{"glyphs":{"0":{"ha":765,"x_min":62,"x_max":746,"o":"m 746 686 q 692 316 746 479 q 544 70 639 153 q 323 -14 449 -14 q 127 73 192 -14 q 62 319 62 159 q 119 676 62 512 q 270 924 175 840 q 488 1007 364 1007 q 680 927 614 1007 q 746 686 746 846 m 475 873 q 353 798 409 873 q 260 586 296 722 q 224 318 224 450 q 250 170 224 221 q 338 119 277 119 q 461 196 406 119 q 551 411 517 273 q 585 692 585 549 q 475 873 585 873 z "},"1":{"ha":765,"x_min":164,"x_max":643,"o":"m 432 0 l 271 0 l 399 590 q 454 810 418 692 q 363 741 416 772 l 236 661 l 164 777 l 509 991 l 643 991 l 432 0 z "},"2":{"ha":765,"x_min":-12,"x_max":737,"o":"m 618 0 l -12 0 l 12 122 l 332 408 q 493 565 451 516 q 555 655 536 614 q 574 745 574 697 q 540 836 574 802 q 446 869 507 869 q 351 849 398 869 q 236 775 304 829 l 158 884 q 315 978 239 949 q 469 1006 390 1006 q 665 943 592 1006 q 737 772 737 880 q 711 636 737 699 q 627 507 684 573 q 435 325 570 441 l 224 146 l 224 140 l 646 140 l 618 0 z "},"3":{"ha":765,"x_min":21,"x_max":737,"o":"m 737 782 q 670 603 737 675 q 488 510 603 531 l 488 505 q 621 433 574 489 q 668 294 668 378 q 622 134 668 204 q 489 25 576 64 q 282 -14 401 -14 q 21 40 130 -14 l 21 186 q 147 135 78 153 q 279 117 216 117 q 446 165 386 117 q 505 298 505 214 q 317 447 505 447 l 227 447 l 252 571 l 323 571 q 505 622 435 571 q 575 757 575 672 q 542 841 575 810 q 447 872 508 872 q 348 855 398 872 q 237 798 297 838 l 167 907 q 320 984 248 962 q 473 1006 391 1006 q 667 946 597 1006 q 737 782 737 886 z "},"4":{"ha":765,"x_min":-3,"x_max":739,"o":"m 710 215 l 574 215 l 528 0 l 372 0 l 419 215 l -3 215 l 22 349 l 567 994 l 739 994 l 603 349 l 739 349 l 710 215 m 447 349 l 493 558 q 561 814 514 650 l 555 814 q 464 688 521 755 l 178 349 l 447 349 z "},"5":{"ha":765,"x_min":36,"x_max":754,"o":"m 414 615 q 609 545 536 615 q 682 351 682 475 q 635 159 682 242 q 496 32 587 77 q 277 -14 406 -14 q 36 40 132 -14 l 36 187 q 268 119 149 119 q 451 176 385 119 q 517 332 517 232 q 475 446 517 403 q 347 489 433 489 q 195 465 283 489 l 135 511 l 271 991 l 754 991 l 724 850 l 380 850 l 309 603 q 414 615 372 615 z "},"6":{"ha":765,"x_min":75,"x_max":768,"o":"m 75 302 q 116 578 75 441 q 228 810 157 714 q 398 956 299 907 q 631 1006 498 1006 q 768 989 710 1006 l 739 857 q 616 872 690 872 q 388 784 477 872 q 254 518 298 696 l 258 518 q 479 633 343 633 q 645 566 585 633 q 704 382 704 499 q 657 178 704 272 q 532 35 611 83 q 349 -14 452 -14 q 146 68 217 -14 q 75 302 75 149 m 359 118 q 456 151 414 118 q 522 242 498 184 q 545 370 545 300 q 424 505 545 505 q 359 492 389 505 q 306 460 329 479 q 266 416 282 440 q 239 360 250 392 q 231 283 229 329 q 264 163 231 209 q 359 118 298 118 z "},"7":{"ha":765,"x_min":85,"x_max":800,"o":"m 85 0 l 596 852 l 139 852 l 168 991 l 800 991 l 778 878 l 264 0 l 85 0 z "},"8":{"ha":765,"x_min":52,"x_max":758,"o":"m 496 1007 q 688 947 617 1007 q 758 785 758 886 q 705 629 758 695 q 536 518 651 563 q 653 406 618 465 q 689 269 689 347 q 647 122 689 187 q 528 22 606 58 q 345 -14 451 -14 q 129 54 207 -14 q 52 236 52 122 q 301 529 52 437 q 213 627 239 576 q 186 737 186 678 q 272 933 186 859 q 496 1007 358 1007 m 403 456 q 256 370 302 419 q 211 250 211 321 q 251 149 211 187 q 358 111 291 111 q 483 155 436 111 q 530 268 530 198 q 497 375 530 330 q 403 456 465 420 m 482 882 q 380 844 419 882 q 342 743 342 806 q 368 650 342 687 q 439 587 395 614 q 559 659 517 616 q 602 765 602 701 q 569 851 602 820 q 482 882 536 882 z "},"9":{"ha":765,"x_min":62,"x_max":732,"o":"m 732 690 q 692 409 732 551 q 589 173 653 267 q 436 32 525 78 q 225 -14 347 -14 q 62 8 135 -14 l 62 149 q 222 119 144 119 q 430 203 350 119 q 550 467 510 286 l 546 467 q 339 358 469 358 q 166 427 227 358 q 104 623 104 496 q 150 819 104 728 q 276 957 195 909 q 463 1006 357 1006 q 662 925 593 1006 q 732 690 732 844 m 450 873 q 352 842 395 873 q 286 753 309 810 q 262 632 262 697 q 294 524 262 561 q 385 486 325 486 q 519 550 464 486 q 574 713 574 614 q 541 830 574 786 q 450 873 509 873 z "}," ":{"ha":361,"x_min":0,"x_max":0,"o":""},"!":{"ha":378,"x_min":22,"x_max":407,"o":"m 228 301 l 109 301 l 222 991 l 407 991 l 228 301 m 22 65 q 53 153 22 119 q 142 187 84 187 q 203 165 180 187 q 227 102 227 143 q 195 15 227 48 q 111 -18 163 -18 q 46 4 69 -18 q 22 65 22 27 z "},"\"":{"ha":582,"x_min":144,"x_max":606,"o":"m 350 991 l 248 633 l 144 633 l 193 991 l 350 991 m 606 991 l 503 633 l 399 633 l 449 991 l 606 991 z "},"#":{"ha":897,"x_min":35,"x_max":905,"o":"m 703 591 l 646 397 l 829 397 l 819 283 l 614 283 l 532 0 l 410 0 l 493 283 l 325 283 l 243 0 l 125 0 l 204 283 l 35 283 l 46 397 l 236 397 l 293 591 l 114 591 l 125 705 l 325 705 l 407 991 l 528 991 l 446 705 l 616 705 l 699 991 l 817 991 l 734 705 l 905 705 l 896 591 l 703 591 m 357 397 l 526 397 l 582 591 l 412 591 l 357 397 z "},"$":{"ha":765,"x_min":41,"x_max":743,"o":"m 669 335 q 588 147 669 218 q 359 62 507 76 l 329 -81 l 237 -81 l 268 62 q 41 117 134 71 l 41 258 q 163 211 94 230 q 294 191 232 192 l 351 453 q 200 547 245 491 q 154 682 154 603 q 234 864 154 795 q 454 943 315 932 l 479 1054 l 571 1054 l 547 942 q 743 886 656 931 l 685 761 q 519 811 594 806 l 465 559 q 592 495 552 525 q 650 427 631 465 q 669 335 669 388 m 387 193 q 480 234 446 201 q 514 319 514 267 q 436 418 514 388 l 387 193 m 427 811 q 336 772 366 804 q 306 689 306 741 q 380 595 306 623 l 427 811 z "},"%":{"ha":1145,"x_min":96,"x_max":1089,"o":"m 359 892 q 292 850 322 892 q 244 733 262 809 q 227 587 227 657 q 281 496 227 496 q 346 535 316 496 q 395 654 375 574 q 415 803 415 734 q 359 892 415 892 m 546 804 q 508 592 546 696 q 409 435 471 488 q 269 383 347 383 q 140 437 185 383 q 96 591 96 490 q 132 804 96 704 q 228 955 168 904 q 370 1006 289 1006 q 501 954 456 1006 q 546 804 546 903 m 1025 991 l 289 0 l 157 0 l 893 991 l 1025 991 m 901 496 q 837 457 866 496 q 788 341 807 418 q 768 191 768 264 q 823 100 768 100 q 888 139 859 100 q 938 258 918 179 q 958 407 958 336 q 901 496 958 496 m 1089 410 q 1052 196 1089 300 q 952 39 1014 91 q 814 -14 890 -14 q 683 38 728 -14 q 637 189 637 90 q 673 406 637 305 q 770 558 709 507 q 911 608 831 608 q 1043 557 997 608 q 1089 410 1089 507 z "},"&":{"ha":957,"x_min":45,"x_max":929,"o":"m 507 880 q 416 844 448 880 q 385 747 385 807 q 427 611 385 673 q 562 702 526 662 q 597 787 597 741 q 573 856 597 832 q 507 880 549 880 m 345 119 q 444 138 397 119 q 542 193 492 156 l 363 452 q 240 356 273 401 q 207 252 207 310 q 245 156 207 193 q 345 119 283 119 m 45 237 q 103 410 45 337 q 297 549 161 482 q 237 741 237 651 q 314 935 237 863 q 515 1007 390 1007 q 686 952 624 1007 q 749 804 749 897 q 688 648 749 717 q 489 518 627 580 l 648 297 q 771 497 722 373 l 929 497 q 728 189 852 314 l 867 0 l 679 0 l 615 89 q 472 11 543 35 q 317 -14 401 -14 q 116 53 188 -14 q 45 237 45 119 z "},"'":{"ha":328,"x_min":144,"x_max":350,"o":"m 350 991 l 248 633 l 144 633 l 193 991 l 350 991 z "},"(":{"ha":433,"x_min":53,"x_max":536,"o":"m 53 187 q 137 616 53 420 q 395 991 222 812 l 536 991 q 199 184 199 620 q 277 -220 199 -39 l 153 -220 q 53 187 53 -43 z "},")":{"ha":433,"x_min":-104,"x_max":379,"o":"m 379 583 q 296 156 379 351 q 37 -220 212 -39 l -104 -220 q 233 587 233 152 q 155 991 233 809 l 279 991 q 379 583 379 812 z "},"*":{"ha":761,"x_min":131,"x_max":783,"o":"m 589 1034 l 510 785 l 783 800 l 775 661 l 526 692 l 642 447 l 503 406 l 433 657 l 279 446 l 170 543 l 368 724 l 131 791 l 179 924 l 419 803 l 444 1063 l 589 1034 z "},"+":{"ha":765,"x_min":79,"x_max":714,"o":"m 336 428 l 79 428 l 79 550 l 336 550 l 336 808 l 458 808 l 458 550 l 714 550 l 714 428 l 458 428 l 458 174 l 336 174 l 336 428 z "},",":{"ha":359,"x_min":-69,"x_max":232,"o":"m 227 161 l 232 146 q 52 -179 147 -31 l -69 -179 q 66 161 2 -18 l 227 161 z "},"-":{"ha":440,"x_min":32,"x_max":403,"o":"m 32 302 l 62 440 l 403 440 l 372 302 l 32 302 z "},".":{"ha":374,"x_min":22,"x_max":227,"o":"m 22 64 q 54 154 22 120 q 143 187 86 187 q 204 166 181 187 q 227 103 227 144 q 194 15 227 50 q 110 -20 162 -20 q 44 4 65 -20 q 22 64 22 28 z "},"/":{"ha":534,"x_min":-62,"x_max":646,"o":"m 646 991 l 96 0 l -62 0 l 488 991 l 646 991 z "},":":{"ha":374,"x_min":22,"x_max":343,"o":"m 139 643 q 171 733 139 699 q 260 766 203 766 q 320 745 298 766 q 343 682 343 724 q 310 594 343 629 q 225 559 277 559 q 160 584 180 559 q 139 643 139 608 m 22 64 q 54 154 22 120 q 143 187 86 187 q 204 166 181 187 q 227 103 227 144 q 194 15 227 50 q 110 -20 162 -20 q 44 4 65 -20 q 22 64 22 28 z "},";":{"ha":374,"x_min":-68,"x_max":343,"o":"m 227 161 l 232 146 q 52 -179 147 -31 l -68 -179 q 66 161 -3 -34 l 227 161 m 139 643 q 171 733 139 699 q 260 766 203 766 q 320 745 298 766 q 343 682 343 724 q 310 594 343 629 q 225 559 277 559 q 160 584 180 559 q 139 643 139 608 z "},"<":{"ha":765,"x_min":78,"x_max":713,"o":"m 713 150 l 78 441 l 78 524 l 713 854 l 713 722 l 240 489 l 713 283 l 713 150 z "},"=":{"ha":765,"x_min":79,"x_max":714,"o":"m 79 564 l 79 685 l 714 685 l 714 564 l 79 564 m 79 292 l 79 414 l 714 414 l 714 292 l 79 292 z "},">":{"ha":765,"x_min":78,"x_max":713,"o":"m 78 283 l 549 489 l 78 722 l 78 854 l 713 524 l 713 441 l 78 150 l 78 283 z "},"?":{"ha":615,"x_min":110,"x_max":653,"o":"m 176 301 q 225 451 189 391 q 345 571 261 510 q 444 650 417 623 q 483 705 471 677 q 496 765 496 732 q 467 842 496 812 q 383 872 438 872 q 281 853 331 872 q 179 810 232 835 l 126 929 q 404 1006 267 1006 q 587 948 520 1006 q 653 783 653 890 q 610 636 653 702 q 453 489 567 570 q 351 399 382 439 q 310 301 320 359 l 176 301 m 110 64 q 142 154 110 120 q 231 187 174 187 q 291 166 269 187 q 314 103 314 144 q 281 16 314 50 q 196 -18 248 -18 q 131 5 151 -18 q 110 64 110 28 z "},"@":{"ha":1182,"x_min":68,"x_max":1157,"o":"m 1157 574 q 1117 355 1157 454 q 1004 199 1076 256 q 842 143 931 143 q 740 174 775 143 q 696 256 704 205 l 692 256 q 504 143 623 143 q 375 196 420 143 q 330 345 330 250 q 376 534 330 447 q 504 672 422 621 q 682 722 585 722 q 746 719 718 722 q 800 710 775 715 q 888 684 825 705 l 819 418 q 799 310 799 340 q 852 248 799 248 q 943 293 901 248 q 1009 411 985 338 q 1034 567 1034 484 q 946 803 1034 722 q 700 884 859 884 q 439 816 555 884 q 258 625 323 749 q 193 350 193 502 q 289 78 193 174 q 554 -18 384 -18 q 846 40 690 -18 l 846 -65 q 538 -126 697 -126 q 289 -70 395 -126 q 125 93 182 -13 q 68 340 68 199 q 151 672 68 524 q 384 905 234 821 q 718 990 533 990 q 953 940 854 990 q 1104 794 1052 889 q 1157 574 1157 699 m 671 619 q 563 583 612 619 q 486 485 514 547 q 458 354 458 424 q 534 248 458 248 q 630 296 590 248 q 699 446 671 345 l 742 608 q 671 619 706 619 z "},"A":{"ha":821,"x_min":-82,"x_max":747,"o":"m 561 275 l 232 275 l 90 0 l -82 0 l 449 993 l 635 993 l 747 0 l 589 0 l 561 275 m 550 416 q 519 758 523 699 q 515 852 515 817 q 419 644 478 758 l 302 416 l 550 416 z "},"B":{"ha":846,"x_min":47,"x_max":832,"o":"m 528 991 q 755 935 678 991 q 832 766 832 878 q 773 602 832 667 q 611 515 715 536 l 611 510 q 725 440 684 491 q 765 315 765 389 q 663 84 765 168 q 380 0 562 0 l 47 0 l 257 991 l 528 991 m 332 582 l 467 582 q 612 623 561 582 q 664 739 664 664 q 513 856 664 856 l 390 856 l 332 582 m 236 136 l 387 136 q 544 182 487 136 q 600 314 600 229 q 559 415 600 380 q 440 450 519 450 l 304 450 l 236 136 z "},"C":{"ha":831,"x_min":92,"x_max":890,"o":"m 627 867 q 440 806 522 867 q 309 630 358 746 q 260 376 260 515 q 316 190 260 254 q 481 125 372 125 q 704 171 576 125 l 704 32 q 450 -14 582 -14 q 187 87 282 -14 q 92 370 92 188 q 163 697 92 546 q 354 927 235 848 q 627 1006 473 1006 q 890 943 774 1006 l 827 811 q 736 850 784 834 q 627 867 688 867 z "},"D":{"ha":932,"x_min":47,"x_max":889,"o":"m 889 606 q 821 285 889 422 q 624 74 753 148 q 319 0 494 0 l 47 0 l 257 991 l 507 991 q 790 893 691 991 q 889 606 889 795 m 328 136 q 537 195 448 136 q 674 359 627 253 q 722 600 722 465 q 663 790 722 725 q 489 856 603 856 l 390 856 l 236 136 l 328 136 z "},"E":{"ha":730,"x_min":47,"x_max":783,"o":"m 574 0 l 47 0 l 257 991 l 783 991 l 754 852 l 389 852 l 332 585 l 672 585 l 644 447 l 302 447 l 237 138 l 603 138 l 574 0 z "},"F":{"ha":696,"x_min":47,"x_max":782,"o":"m 208 0 l 47 0 l 257 991 l 782 991 l 753 852 l 389 852 l 323 545 l 664 545 l 633 407 l 294 407 l 208 0 z "},"G":{"ha":949,"x_min":92,"x_max":930,"o":"m 533 538 l 880 538 l 774 39 q 626 -1 698 12 q 464 -14 553 -14 q 189 85 287 -14 q 92 366 92 184 q 161 693 92 545 q 358 924 231 842 q 647 1006 485 1006 q 791 992 722 1006 q 930 945 861 978 l 869 807 q 643 865 751 865 q 448 804 536 865 q 310 629 361 743 q 260 376 260 515 q 320 189 260 252 q 492 125 380 125 q 637 147 566 125 l 692 399 l 504 399 l 533 538 z "},"H":{"ha":957,"x_min":47,"x_max":962,"o":"m 753 0 l 591 0 l 686 447 l 302 447 l 208 0 l 47 0 l 257 991 l 418 991 l 332 586 l 715 586 l 802 991 l 962 991 l 753 0 z "},"J":{"ha":415,"x_min":-218,"x_max":425,"o":"m -103 -277 q -218 -260 -174 -277 l -215 -123 q -111 -138 -158 -138 q 61 32 25 -138 l 264 991 l 425 991 l 218 11 q 109 -207 187 -136 q -103 -277 31 -277 z "},"K":{"ha":812,"x_min":47,"x_max":937,"o":"m 737 0 l 559 0 l 389 444 l 288 376 l 208 0 l 47 0 l 257 991 l 418 991 l 315 513 l 411 625 l 745 991 l 937 991 l 519 538 l 737 0 z "},"L":{"ha":689,"x_min":47,"x_max":603,"o":"m 47 0 l 257 991 l 418 991 l 237 139 l 603 139 l 574 0 l 47 0 z "},"M":{"ha":1192,"x_min":46,"x_max":1197,"o":"m 439 0 l 361 823 l 357 823 q 319 593 351 743 l 195 0 l 46 0 l 256 991 l 475 991 l 549 212 l 553 212 l 964 991 l 1197 991 l 990 0 l 836 0 l 960 591 q 1018 823 986 718 l 1014 823 l 578 0 l 439 0 z "},"N":{"ha":1011,"x_min":46,"x_max":1018,"o":"m 808 0 l 632 0 l 354 789 l 350 789 l 343 742 q 319 598 327 641 q 195 0 311 555 l 46 0 l 256 991 l 437 991 l 708 212 l 713 212 q 734 343 717 249 q 761 481 751 437 l 869 991 l 1018 991 l 808 0 z "},"O":{"ha":1007,"x_min":92,"x_max":964,"o":"m 964 625 q 899 288 964 436 q 722 63 835 140 q 460 -14 609 -14 q 188 88 284 -14 q 92 368 92 189 q 158 699 92 549 q 341 928 225 848 q 604 1007 457 1007 q 869 906 774 1007 q 964 625 964 805 m 591 868 q 422 803 498 868 q 303 622 346 738 q 260 370 260 507 q 315 189 260 252 q 469 125 370 125 q 638 190 563 125 q 754 369 713 254 q 796 624 796 484 q 743 804 796 739 q 591 868 689 868 z "},"P":{"ha":796,"x_min":47,"x_max":796,"o":"m 315 507 l 379 507 q 566 561 500 507 q 632 714 632 615 q 592 822 632 788 q 471 856 553 856 l 390 856 l 315 507 m 796 720 q 681 461 796 551 q 361 371 566 371 l 286 371 l 208 0 l 47 0 l 257 991 l 484 991 q 718 923 639 991 q 796 720 796 855 z "},"Q":{"ha":1007,"x_min":92,"x_max":964,"o":"m 964 625 q 876 243 964 407 q 635 18 787 80 l 814 -236 l 618 -236 l 481 -14 l 460 -14 q 188 88 284 -14 q 92 368 92 189 q 158 699 92 549 q 341 928 225 848 q 604 1007 457 1007 q 869 906 774 1007 q 964 625 964 805 m 591 868 q 422 803 498 868 q 303 622 346 738 q 260 370 260 507 q 315 189 260 252 q 469 125 370 125 q 638 189 563 125 q 754 367 713 252 q 796 624 796 482 q 743 804 796 739 q 591 868 689 868 z "},"R":{"ha":818,"x_min":47,"x_max":799,"o":"m 292 396 l 208 0 l 47 0 l 257 991 l 486 991 q 718 927 637 991 q 799 730 799 863 q 740 542 799 618 q 566 429 682 465 l 734 0 l 558 0 l 418 396 l 292 396 m 321 530 l 404 530 q 576 581 519 530 q 633 721 633 632 q 593 823 633 792 q 469 854 553 854 l 389 854 l 321 530 z "},"S":{"ha":717,"x_min":26,"x_max":734,"o":"m 631 290 q 533 67 631 148 q 262 -14 435 -14 q 26 37 120 -14 l 26 189 q 264 123 144 123 q 410 163 357 123 q 464 273 464 203 q 436 356 464 320 q 319 449 408 393 q 214 532 248 494 q 162 613 180 569 q 144 711 144 658 q 186 865 144 798 q 304 969 228 932 q 476 1006 380 1006 q 734 943 615 1006 l 676 814 q 476 867 567 867 q 357 827 402 867 q 313 724 313 787 q 323 668 313 692 q 354 623 333 644 q 446 558 376 602 q 591 431 551 492 q 631 290 631 370 z "},"T":{"ha":714,"x_min":119,"x_max":827,"o":"m 358 0 l 197 0 l 376 852 l 119 852 l 150 991 l 827 991 l 798 852 l 539 852 l 358 0 z "},"U":{"ha":949,"x_min":103,"x_max":962,"o":"m 962 991 l 825 343 q 684 74 787 162 q 411 -14 581 -14 q 183 58 264 -14 q 103 265 103 130 q 117 380 103 321 l 248 991 l 408 991 l 278 378 q 264 271 264 318 q 304 163 264 201 q 427 125 345 125 q 583 179 525 125 q 667 357 640 234 l 802 991 l 962 991 z "},"V":{"ha":790,"x_min":126,"x_max":917,"o":"m 343 168 q 436 378 391 289 l 745 991 l 917 991 l 399 0 l 224 0 l 126 991 l 283 991 l 334 378 q 341 220 340 308 l 340 168 l 343 168 z "},"W":{"ha":1213,"x_min":138,"x_max":1337,"o":"m 893 0 l 718 0 l 693 571 l 689 696 l 692 768 l 688 768 q 608 571 656 671 l 347 0 l 174 0 l 138 991 l 293 991 l 306 415 q 297 180 306 323 l 301 180 q 397 421 357 330 l 660 991 l 812 991 l 833 422 l 836 308 l 833 180 l 839 180 q 886 314 858 240 q 928 418 915 389 l 1171 991 l 1337 991 l 893 0 z "},"X":{"ha":781,"x_min":-75,"x_max":893,"o":"m 705 0 l 532 0 l 401 401 l 104 0 l -75 0 l 322 522 l 153 991 l 319 991 l 440 625 l 713 991 l 893 991 l 519 510 l 705 0 z "},"Y":{"ha":741,"x_min":126,"x_max":868,"o":"m 395 538 l 688 991 l 868 991 l 446 372 l 368 0 l 207 0 l 288 375 l 126 991 l 290 991 l 395 538 z "},"Z":{"ha":741,"x_min":-26,"x_max":804,"o":"m 611 0 l -26 0 l -4 114 l 572 851 l 167 851 l 196 991 l 804 991 l 781 875 l 203 139 l 640 139 l 611 0 z "},"[":{"ha":428,"x_min":-18,"x_max":532,"o":"m 273 -220 l -18 -220 l 240 991 l 532 991 l 505 872 l 355 872 l 150 -100 l 300 -100 l 273 -220 z "},"\\":{"ha":534,"x_min":150,"x_max":439,"o":"m 290 991 l 439 0 l 297 0 l 150 991 l 290 991 z "},"]":{"ha":428,"x_min":-97,"x_max":452,"o":"m -72 -100 l 77 -100 l 283 872 l 134 872 l 160 991 l 452 991 l 193 -220 l -97 -220 l -72 -100 z "},"^":{"ha":725,"x_min":25,"x_max":708,"o":"m 25 364 l 437 997 l 524 997 l 708 364 l 583 364 l 456 832 l 161 364 l 25 364 z "},"_":{"ha":551,"x_min":-127,"x_max":447,"o":"m 427 -220 l -127 -220 l -107 -125 l 447 -125 l 427 -220 z "},"`":{"ha":770,"x_min":367,"x_max":623,"o":"m 623 842 l 525 842 q 435 944 481 884 q 367 1050 390 1004 l 367 1064 l 533 1064 q 623 859 565 960 l 623 842 z "},"a":{"ha":804,"x_min":64,"x_max":781,"o":"m 271 -14 q 119 55 175 -14 q 64 249 64 124 q 111 505 64 386 q 241 694 158 625 q 422 764 323 764 q 536 733 488 764 q 610 643 583 702 l 616 643 l 659 750 l 781 750 l 621 0 l 497 0 l 511 119 l 507 119 q 271 -14 400 -14 m 329 115 q 438 168 385 115 q 526 309 492 220 q 561 501 561 397 q 529 597 561 561 q 446 633 497 633 q 337 581 388 633 q 256 439 286 529 q 225 253 225 349 q 253 150 225 184 q 329 115 280 115 z "},"b":{"ha":814,"x_min":32,"x_max":749,"o":"m 392 -14 q 278 17 326 -14 q 203 106 230 47 l 196 106 l 153 0 l 32 0 l 256 1055 l 415 1055 l 367 829 q 341 723 358 787 q 314 628 324 660 l 319 628 q 431 734 380 705 q 541 764 482 764 q 694 693 639 764 q 749 500 749 623 q 702 242 749 363 q 572 54 654 122 q 392 -14 490 -14 m 482 633 q 372 579 427 633 q 284 436 317 525 q 250 253 250 348 q 282 152 250 188 q 371 115 313 115 q 479 169 429 115 q 558 311 529 222 q 587 497 587 400 q 482 633 587 633 z "},"c":{"ha":647,"x_min":64,"x_max":660,"o":"m 343 -14 q 137 58 210 -14 q 64 264 64 130 q 114 519 64 404 q 254 699 163 634 q 458 764 344 764 q 660 722 570 764 l 612 597 q 463 633 530 633 q 293 529 361 633 q 225 272 225 425 q 263 156 225 197 q 368 115 301 115 q 462 130 418 115 q 550 167 506 145 l 550 35 q 343 -14 455 -14 z "},"d":{"ha":812,"x_min":64,"x_max":844,"o":"m 422 764 q 604 643 544 764 l 610 643 q 635 812 618 742 l 686 1055 l 844 1055 l 621 0 l 496 0 l 509 119 l 504 119 q 389 17 444 47 q 271 -14 333 -14 q 119 55 174 -14 q 64 250 64 124 q 112 510 64 389 q 242 697 161 631 q 422 764 323 764 m 332 115 q 442 171 387 115 q 529 316 496 227 q 562 497 562 406 q 533 596 562 559 q 443 633 503 633 q 335 581 385 633 q 255 438 285 529 q 225 253 225 347 q 332 115 225 115 z "},"e":{"ha":729,"x_min":64,"x_max":690,"o":"m 450 642 q 328 583 385 642 q 245 429 271 525 l 265 429 q 465 466 393 429 q 536 568 536 502 q 515 622 536 603 q 450 642 493 642 m 347 -14 q 139 62 214 -14 q 64 272 64 137 q 116 522 64 406 q 259 701 169 637 q 460 764 349 764 q 630 714 569 764 q 690 575 690 665 q 577 382 690 452 q 256 313 465 313 l 227 313 l 225 292 l 225 272 q 263 154 225 197 q 378 111 302 111 q 475 124 427 111 q 589 168 523 137 l 589 41 q 469 -1 524 12 q 347 -14 414 -14 z "},"f":{"ha":476,"x_min":-153,"x_max":639,"o":"m -52 -334 q -153 -318 -113 -334 l -153 -189 q -75 -203 -109 -203 q 45 -64 16 -203 l 192 629 l 71 629 l 85 701 l 216 753 l 231 815 q 322 1006 260 949 q 496 1063 383 1063 q 639 1034 574 1063 l 597 914 q 505 933 547 933 q 430 904 458 933 q 387 808 402 875 l 375 750 l 530 750 l 505 629 l 350 629 l 199 -85 q 110 -273 172 -213 q -52 -334 48 -334 z "},"g":{"ha":724,"x_min":-82,"x_max":775,"o":"m 775 750 l 754 657 l 624 635 q 643 542 643 595 q 562 334 643 411 q 346 257 481 257 q 283 262 311 257 q 208 192 208 235 q 230 157 208 166 q 292 142 251 147 l 378 131 q 549 72 497 116 q 600 -56 600 27 q 498 -261 600 -189 q 207 -334 395 -334 q -6 -283 69 -334 q -82 -143 -82 -232 q -35 -22 -82 -73 q 117 64 12 28 q 65 150 65 94 q 97 231 65 197 q 196 297 128 265 q 104 468 104 352 q 188 682 104 601 q 407 764 271 764 q 515 750 461 764 l 775 750 m 220 12 q 103 -36 144 0 q 62 -125 62 -72 q 100 -195 62 -169 q 215 -221 138 -221 q 388 -184 326 -221 q 450 -79 450 -148 q 420 -25 450 -45 q 313 3 389 -5 l 220 12 m 403 657 q 326 631 359 657 q 274 560 292 605 q 256 461 256 515 q 280 387 256 413 q 349 361 304 361 q 425 387 393 361 q 475 460 457 414 q 493 561 493 506 q 403 657 493 657 z "},"h":{"ha":819,"x_min":32,"x_max":745,"o":"m 476 0 l 572 456 q 585 542 585 517 q 497 633 585 633 q 355 549 421 633 q 258 317 289 464 l 192 0 l 32 0 l 256 1055 l 415 1055 l 376 878 q 327 679 358 792 l 314 628 l 319 628 q 434 732 376 700 q 554 764 491 764 q 695 711 646 764 q 745 561 745 659 q 729 443 745 509 l 635 0 l 476 0 z "},"i":{"ha":382,"x_min":32,"x_max":406,"o":"m 224 935 q 250 1009 224 981 q 325 1038 277 1038 q 383 1020 361 1038 q 406 965 406 1002 q 378 889 406 917 q 307 861 351 861 q 248 879 271 861 q 224 935 224 897 m 192 0 l 32 0 l 192 750 l 351 750 l 192 0 z "},"j":{"ha":382,"x_min":-178,"x_max":406,"o":"m -77 -334 q -178 -318 -138 -334 l -178 -189 q -98 -203 -134 -203 q 17 -77 -9 -203 l 193 750 l 351 750 l 171 -96 q 84 -276 145 -218 q -77 -334 24 -334 m 225 935 q 251 1009 225 981 q 325 1038 277 1038 q 384 1020 361 1038 q 406 965 406 1002 q 378 889 406 917 q 307 861 351 861 q 248 879 271 861 q 225 935 225 896 z "},"k":{"ha":733,"x_min":32,"x_max":786,"o":"m 602 750 l 786 750 l 458 421 l 656 0 l 478 0 l 336 319 l 244 254 l 192 0 l 32 0 l 256 1055 l 415 1055 q 307 561 323 630 q 267 407 290 491 l 269 407 l 602 750 z "},"l":{"ha":382,"x_min":32,"x_max":415,"o":"m 191 0 l 32 0 l 256 1055 l 415 1055 l 191 0 z "},"m":{"ha":1234,"x_min":32,"x_max":1160,"o":"m 547 764 q 720 604 696 764 l 725 604 q 841 723 776 683 q 975 764 905 764 q 1113 712 1065 764 q 1160 566 1160 660 q 1145 443 1160 522 l 1050 0 l 890 0 l 987 456 q 1000 546 1000 520 q 918 633 1000 633 q 782 549 845 633 q 689 326 718 465 l 621 0 l 461 0 l 558 456 q 570 542 570 511 q 490 633 570 633 q 352 547 416 633 q 258 318 289 461 l 192 0 l 32 0 l 192 750 l 317 750 l 302 611 l 309 611 q 547 764 409 764 z "},"n":{"ha":819,"x_min":32,"x_max":745,"o":"m 476 0 l 572 456 q 585 545 585 517 q 497 633 585 633 q 401 595 448 633 q 315 483 353 556 q 258 318 277 410 l 192 0 l 32 0 l 192 750 l 317 750 l 302 611 l 309 611 q 425 727 365 691 q 554 764 484 764 q 695 712 645 764 q 745 566 745 661 q 729 443 745 519 l 636 0 l 476 0 z "},"o":{"ha":796,"x_min":64,"x_max":732,"o":"m 571 476 q 538 590 571 549 q 443 631 505 631 q 330 582 380 631 q 253 451 280 534 q 225 273 225 368 q 259 158 225 198 q 358 118 292 118 q 468 164 419 118 q 544 293 517 210 q 571 476 571 376 m 732 469 q 682 220 732 332 q 546 48 633 108 q 347 -12 460 -12 q 140 65 217 -12 q 64 277 64 143 q 112 524 64 412 q 248 700 161 637 q 450 762 336 762 q 657 684 583 762 q 732 469 732 605 z "},"p":{"ha":814,"x_min":-37,"x_max":749,"o":"m 392 -14 q 210 106 269 -14 l 203 106 q 186 -20 198 40 l 121 -334 l -37 -334 l 192 750 l 317 750 l 302 623 l 309 623 q 542 764 415 764 q 694 694 639 764 q 749 500 749 624 q 701 241 749 361 q 572 54 654 121 q 392 -14 490 -14 m 482 633 q 373 579 427 633 q 284 437 319 526 q 250 253 250 348 q 282 152 250 188 q 371 115 313 115 q 479 169 429 115 q 558 311 529 222 q 587 497 587 400 q 482 633 587 633 z "},"q":{"ha":812,"x_min":64,"x_max":781,"o":"m 424 764 q 610 643 548 764 l 616 643 l 660 750 l 781 750 l 550 -334 l 392 -334 l 443 -97 q 472 25 451 -59 q 498 121 494 109 l 493 121 q 382 17 436 47 q 267 -14 328 -14 q 118 56 172 -14 q 64 249 64 125 q 113 511 64 390 q 244 698 163 633 q 424 764 325 764 m 334 115 q 441 170 388 115 q 528 315 495 225 q 561 497 561 404 q 530 597 561 561 q 444 633 499 633 q 336 581 386 633 q 255 439 286 528 q 225 253 225 349 q 334 115 225 115 z "},"r":{"ha":567,"x_min":32,"x_max":614,"o":"m 541 764 q 614 755 583 764 l 579 607 q 510 616 543 616 q 357 540 425 616 q 264 339 290 463 l 192 0 l 32 0 l 192 750 l 317 750 l 302 611 l 309 611 q 421 728 365 692 q 541 764 477 764 z "},"s":{"ha":625,"x_min":9,"x_max":597,"o":"m 530 231 q 450 50 530 113 q 228 -14 370 -14 q 9 32 99 -14 l 9 170 q 221 109 113 109 q 328 136 287 109 q 368 210 368 163 q 345 269 368 244 q 249 335 321 294 q 129 428 164 380 q 94 539 94 475 q 167 704 94 644 q 363 764 239 764 q 597 707 496 764 l 546 587 q 366 639 451 639 q 285 616 316 639 q 254 554 254 594 q 277 500 254 524 q 368 439 299 476 q 469 370 439 399 q 515 308 499 342 q 530 231 530 275 z "},"t":{"ha":510,"x_min":62,"x_max":546,"o":"m 309 115 q 411 136 355 115 l 411 16 q 347 -5 387 4 q 265 -14 306 -14 q 79 154 79 -14 q 90 243 79 193 l 172 629 l 62 629 l 77 704 l 205 760 l 293 917 l 392 917 l 357 750 l 546 750 l 519 629 l 332 629 l 249 241 q 240 179 240 204 q 257 133 240 150 q 309 115 274 115 z "},"u":{"ha":819,"x_min":75,"x_max":786,"o":"m 343 750 l 256 336 q 235 205 235 241 q 321 115 235 115 q 418 154 370 115 q 503 264 466 193 q 561 432 541 336 l 628 750 l 786 750 l 628 0 l 503 0 l 517 139 l 511 139 q 395 23 456 60 q 265 -14 335 -14 q 125 38 174 -14 q 75 186 75 90 q 83 270 75 229 q 100 354 92 312 l 183 750 l 343 750 z "},"v":{"ha":676,"x_min":68,"x_max":749,"o":"m 157 0 l 68 750 l 225 750 l 262 345 q 272 143 272 237 l 277 143 q 324 255 296 193 q 368 345 353 317 l 579 750 l 749 750 l 343 0 l 157 0 z "},"w":{"ha":1044,"x_min":82,"x_max":1105,"o":"m 572 0 l 559 425 l 559 473 l 561 608 q 526 524 544 566 q 292 0 508 481 l 114 0 l 82 750 l 232 750 l 241 312 q 233 146 239 253 l 237 146 q 311 330 282 265 l 500 750 l 672 750 l 685 340 l 686 304 l 684 146 l 688 146 q 726 253 699 180 q 769 364 753 327 q 940 750 785 401 l 1105 750 l 754 0 l 572 0 z "},"x":{"ha":700,"x_min":-58,"x_max":751,"o":"m 332 262 l 125 0 l -58 0 l 264 386 l 107 750 l 273 750 l 371 497 l 566 750 l 751 750 l 439 378 l 607 0 l 440 0 l 332 262 z "},"y":{"ha":681,"x_min":-115,"x_max":750,"o":"m 68 750 l 225 750 l 268 390 q 279 272 274 348 q 283 149 283 195 l 288 149 q 379 361 346 294 l 578 750 l 750 750 l 283 -118 q 151 -282 222 -230 q -18 -334 79 -334 q -115 -321 -70 -334 l -115 -193 q -31 -204 -64 -204 q 60 -175 20 -204 q 144 -69 101 -145 l 179 -7 l 68 750 z "},"z":{"ha":624,"x_min":-26,"x_max":631,"o":"m 488 0 l -26 0 l -7 100 l 424 629 l 126 629 l 153 750 l 631 750 l 606 635 l 183 121 l 513 121 l 488 0 z "},"{":{"ha":489,"x_min":5,"x_max":571,"o":"m 310 -220 q 96 -60 96 -220 q 107 31 96 -18 l 138 167 q 147 233 147 211 q 5 329 147 329 l 32 456 q 162 485 113 456 q 225 582 210 513 l 265 768 q 315 905 284 859 q 396 971 345 951 q 530 991 447 991 l 571 991 l 543 867 q 449 844 478 867 q 407 765 419 821 l 359 555 q 300 440 343 482 q 179 386 258 397 l 179 382 q 288 236 288 351 q 277 154 288 210 l 248 22 q 240 -28 240 -10 q 262 -78 240 -62 q 336 -94 284 -94 l 336 -220 l 310 -220 z "},"|":{"ha":765,"x_min":338,"x_max":458,"o":"m 338 1053 l 458 1053 l 458 -326 l 338 -326 l 338 1053 z "},"}":{"ha":489,"x_min":-60,"x_max":489,"o":"m 183 991 q 399 832 399 991 q 387 742 399 791 l 357 604 q 347 538 347 560 q 489 441 347 441 l 463 315 q 332 287 380 315 q 269 191 284 258 l 227 -17 q 143 -174 203 -129 q -40 -220 82 -220 l -60 -220 l -60 -96 q 44 -71 12 -94 q 87 7 75 -47 l 135 216 q 194 332 151 290 q 315 385 237 373 l 315 389 q 208 534 208 421 q 220 616 208 572 l 249 750 q 256 800 256 780 q 227 853 256 840 q 144 867 197 867 l 168 991 l 183 991 z "},"~":{"ha":765,"x_min":75,"x_max":724,"o":"m 233 469 q 157 448 199 469 q 75 387 116 427 l 75 517 q 244 590 143 590 q 325 582 288 590 q 424 547 361 574 q 502 518 471 527 q 566 510 532 510 q 642 531 600 510 q 724 591 684 552 l 724 463 q 554 387 654 387 q 470 398 511 387 q 376 432 429 410 q 295 461 325 454 q 233 469 266 469 z "}," ":{"ha":361,"x_min":0,"x_max":0,"o":""},"¡":{"ha":378,"x_min":-31,"x_max":354,"o":"m 150 437 l 268 437 l 155 -253 l -31 -253 l 150 437 m 354 673 q 322 585 354 619 q 236 551 290 551 q 173 573 196 551 q 150 635 150 594 q 183 724 150 690 q 269 758 216 758 q 334 734 313 758 q 354 673 354 710 z "},"¢":{"ha":765,"x_min":132,"x_max":728,"o":"m 392 -14 l 286 -14 l 317 131 q 180 222 227 154 q 132 397 132 290 q 175 635 132 526 q 296 812 218 745 q 473 895 374 880 l 497 1006 l 603 1006 l 578 895 q 728 856 662 886 l 681 730 q 530 766 596 766 q 408 718 463 766 q 323 586 353 669 q 293 406 293 503 q 331 290 293 330 q 436 249 369 249 q 530 263 486 249 q 618 300 574 278 l 618 168 q 419 118 528 121 l 392 -14 z "},"£":{"ha":765,"x_min":-12,"x_max":819,"o":"m 581 1006 q 819 947 708 1006 l 760 823 q 585 873 663 873 q 431 734 459 873 l 392 546 l 618 546 l 595 429 l 367 429 l 345 326 q 298 214 330 260 q 210 140 266 169 l 677 140 l 647 0 l -12 0 l 14 131 q 183 318 149 161 l 207 429 l 74 429 l 98 546 l 232 546 l 273 749 q 377 940 299 874 q 581 1006 455 1006 z "},"¤":{"ha":765,"x_min":96,"x_max":711,"o":"m 142 490 q 183 629 142 565 l 96 717 l 176 798 l 262 711 q 403 753 332 753 q 543 710 476 753 l 629 798 l 711 718 l 624 631 q 665 490 665 564 q 624 349 665 413 l 710 264 l 629 183 l 543 269 q 403 229 479 229 q 262 269 321 229 l 176 184 l 97 265 l 183 350 q 142 490 142 414 m 256 490 q 298 386 256 429 q 403 343 340 343 q 509 385 465 343 q 553 490 553 427 q 509 596 553 553 q 403 639 465 639 q 298 595 340 639 q 256 490 256 552 z "},"¥":{"ha":765,"x_min":72,"x_max":864,"o":"m 403 538 l 696 991 l 864 991 l 513 476 l 660 476 l 636 371 l 450 371 l 429 271 l 615 271 l 593 165 l 408 165 l 372 0 l 222 0 l 257 165 l 72 165 l 94 271 l 279 271 l 300 371 l 115 371 l 139 476 l 282 476 l 147 991 l 304 991 l 403 538 z "},"¦":{"ha":765,"x_min":338,"x_max":458,"o":"m 338 1053 l 458 1053 l 458 514 l 338 514 l 338 1053 m 338 214 l 458 214 l 458 -326 l 338 -326 l 338 214 z "},"§":{"ha":675,"x_min":26,"x_max":686,"o":"m 110 518 q 258 726 110 646 q 205 782 227 748 q 184 860 184 816 q 260 1009 184 954 q 461 1065 336 1065 q 686 1013 582 1065 l 640 905 q 552 940 598 925 q 454 954 507 954 q 363 931 396 954 q 330 867 330 907 q 355 815 330 838 q 456 758 380 792 q 582 672 542 720 q 623 558 623 623 q 587 442 623 496 q 478 347 551 389 q 547 216 547 296 q 464 50 547 110 q 240 -9 380 -9 q 26 36 113 -9 l 26 163 q 243 100 130 100 q 361 127 321 100 q 400 203 400 155 q 374 257 400 232 q 278 314 347 281 q 150 403 190 355 q 110 518 110 452 m 346 669 q 271 616 299 652 q 243 538 243 580 q 274 467 243 496 q 392 399 306 437 q 459 460 434 423 q 485 538 485 497 q 451 609 485 578 q 346 669 418 639 z "},"¨":{"ha":770,"x_min":289,"x_max":710,"o":"m 289 936 q 313 1002 289 977 q 379 1028 336 1028 q 431 1012 412 1028 q 450 964 450 996 q 426 895 450 920 q 363 869 402 869 q 310 885 331 869 q 289 936 289 901 m 549 936 q 572 1002 549 977 q 639 1028 596 1028 q 691 1012 671 1028 q 710 964 710 996 q 686 895 710 920 q 623 869 662 869 q 570 885 591 869 q 549 936 549 901 z "},"©":{"ha":1156,"x_min":89,"x_max":1108,"o":"m 631 701 q 512 650 554 701 q 469 493 469 598 q 631 289 469 289 q 707 300 663 289 q 781 323 751 311 l 781 216 q 618 182 701 182 q 412 266 484 182 q 340 493 340 349 q 417 724 340 640 q 629 808 494 808 q 810 764 723 808 l 764 664 q 631 701 692 701 m 89 496 q 157 750 89 631 q 343 937 224 869 q 599 1006 462 1006 q 852 939 734 1006 q 1039 752 970 871 q 1108 496 1108 632 q 1041 243 1108 361 q 857 56 975 125 q 599 -14 739 -14 q 340 57 458 -14 q 155 244 221 127 q 89 496 89 361 m 172 496 q 229 284 172 382 q 384 127 285 186 q 599 69 483 69 q 815 128 716 69 q 970 285 915 187 q 1025 496 1025 383 q 969 706 1025 608 q 815 864 913 805 q 599 922 716 922 q 386 865 485 922 q 229 708 286 808 q 172 496 172 609 z "},"ª":{"ha":494,"x_min":109,"x_max":561,"o":"m 338 1003 q 450 933 414 1003 l 454 933 l 481 994 l 561 994 l 461 530 l 378 530 l 385 602 l 382 602 q 315 541 348 559 q 241 522 283 522 q 144 567 180 522 q 109 689 109 612 q 140 851 109 776 q 223 964 172 926 q 338 1003 275 1003 m 279 608 q 346 641 313 608 q 398 727 378 673 q 418 835 418 781 q 349 916 418 916 q 255 849 293 916 q 216 693 216 783 q 279 608 216 608 z "},"«":{"ha":715,"x_min":54,"x_max":707,"o":"m 54 390 l 322 675 l 414 595 l 218 370 l 322 119 l 201 68 l 54 375 l 54 390 m 353 376 l 614 671 l 707 595 l 517 357 l 616 119 l 494 68 l 353 359 l 353 376 z "},"¬":{"ha":765,"x_min":79,"x_max":714,"o":"m 714 550 l 714 174 l 593 174 l 593 428 l 79 428 l 79 550 l 714 550 z "},"­":{"ha":440,"x_min":32,"x_max":403,"o":"m 32 302 l 62 440 l 403 440 l 372 302 l 32 302 z "},"®":{"ha":1156,"x_min":89,"x_max":1108,"o":"m 89 496 q 157 750 89 631 q 343 937 224 869 q 599 1006 462 1006 q 852 939 734 1006 q 1039 752 970 871 q 1108 496 1108 632 q 1041 243 1108 361 q 857 56 975 125 q 599 -14 739 -14 q 340 57 458 -14 q 155 244 221 127 q 89 496 89 361 m 172 496 q 229 284 172 382 q 384 127 285 186 q 599 69 483 69 q 815 128 716 69 q 970 285 915 187 q 1025 496 1025 383 q 969 706 1025 608 q 815 864 913 805 q 599 922 716 922 q 386 865 485 922 q 229 708 286 808 q 172 496 172 609 m 823 615 q 792 517 823 559 q 704 450 762 475 l 847 197 l 711 197 l 595 418 l 533 418 l 533 197 l 412 197 l 412 793 l 595 793 q 823 615 823 793 m 533 515 l 582 515 q 669 540 639 515 q 700 607 700 564 q 669 675 700 656 q 582 694 638 694 l 533 694 l 533 515 z "},"¯":{"ha":612,"x_min":75,"x_max":720,"o":"m 692 1055 l 75 1055 l 102 1168 l 720 1168 l 692 1055 z "},"°":{"ha":595,"x_min":127,"x_max":574,"o":"m 127 782 q 193 940 127 874 q 351 1006 259 1006 q 509 940 444 1006 q 574 782 574 874 q 509 625 574 689 q 351 561 444 561 q 239 591 292 561 q 157 671 187 621 q 127 782 127 722 m 231 782 q 266 699 231 734 q 351 664 301 664 q 435 699 400 664 q 471 782 471 734 q 436 867 471 832 q 351 903 401 903 q 266 868 301 903 q 231 782 231 833 z "},"±":{"ha":765,"x_min":79,"x_max":714,"o":"m 336 446 l 79 446 l 79 568 l 336 568 l 336 827 l 458 827 l 458 568 l 714 568 l 714 446 l 458 446 l 458 192 l 336 192 l 336 446 m 79 0 l 79 122 l 714 122 l 714 0 l 79 0 z "},"²":{"ha":505,"x_min":53,"x_max":532,"o":"m 463 397 l 53 397 l 72 489 l 254 640 q 355 732 330 705 q 392 785 380 760 q 404 835 404 809 q 385 884 404 866 q 334 901 366 901 q 204 847 272 901 l 150 930 q 247 986 196 967 q 361 1004 297 1004 q 485 964 439 1004 q 532 859 532 923 q 516 774 532 812 q 466 699 500 736 q 351 600 431 662 l 233 504 l 485 504 l 463 397 z "},"³":{"ha":505,"x_min":71,"x_max":532,"o":"m 532 863 q 495 762 532 802 q 387 704 458 722 l 387 701 q 465 656 440 689 q 490 578 490 623 q 423 438 490 490 q 240 386 355 386 q 71 424 146 386 l 71 532 q 239 484 156 484 q 333 509 300 484 q 367 581 367 534 q 268 657 367 657 l 195 657 l 214 747 l 277 747 q 373 770 337 747 q 410 838 410 793 q 330 905 410 905 q 203 861 268 905 l 157 943 q 354 1004 242 1004 q 485 967 438 1004 q 532 863 532 929 z "},"´":{"ha":770,"x_min":345,"x_max":676,"o":"m 345 859 q 497 1064 410 932 l 676 1064 l 676 1051 q 569 942 640 1006 q 450 842 498 877 l 345 842 l 345 859 z "},"µ":{"ha":828,"x_min":-37,"x_max":794,"o":"m 243 208 q 265 140 243 164 q 330 115 288 115 q 472 200 407 115 q 568 429 538 286 l 637 750 l 794 750 l 635 0 l 510 0 l 525 129 l 518 129 q 414 20 467 54 q 302 -14 361 -14 q 197 41 229 -14 l 192 41 q 165 -118 186 -8 l 121 -334 l -37 -334 l 192 750 l 351 750 l 256 296 q 243 208 243 239 z "},"¶":{"ha":909,"x_min":117,"x_max":817,"o":"m 817 -176 l 722 -176 l 722 935 l 595 935 l 595 -176 l 500 -176 l 500 379 q 401 367 458 367 q 186 452 255 367 q 117 707 117 536 q 191 969 117 883 q 422 1055 264 1055 l 817 1055 l 817 -176 z "},"·":{"ha":374,"x_min":102,"x_max":306,"o":"m 102 469 q 134 559 102 526 q 222 593 165 593 q 283 571 260 593 q 306 509 306 550 q 274 421 306 456 q 189 386 241 386 q 123 410 144 386 q 102 469 102 434 z "},"¸":{"ha":285,"x_min":-127,"x_max":160,"o":"m 160 -179 q 104 -292 160 -251 q -47 -334 49 -334 q -127 -323 -91 -334 l -127 -232 q -62 -241 -96 -241 q 31 -176 31 -241 q 7 -135 31 -149 q -64 -114 -17 -120 l 3 0 l 102 0 l 68 -65 q 138 -111 117 -82 q 160 -179 160 -139 z "},"¹":{"ha":505,"x_min":131,"x_max":471,"o":"m 361 991 l 471 991 l 345 397 l 215 397 l 282 710 q 321 857 294 764 q 287 828 307 844 q 183 758 268 812 l 131 846 l 361 991 z "},"º":{"ha":489,"x_min":111,"x_max":526,"o":"m 526 818 q 498 665 526 732 q 416 560 469 598 q 288 522 362 522 q 158 572 205 522 q 111 710 111 621 q 141 860 111 793 q 226 965 171 928 q 354 1003 281 1003 q 482 955 438 1003 q 526 818 526 906 m 346 913 q 256 853 291 913 q 221 707 221 794 q 297 611 221 611 q 384 670 349 611 q 418 819 418 730 q 346 913 418 913 z "},"»":{"ha":715,"x_min":7,"x_max":661,"o":"m 661 346 l 392 62 l 301 143 l 496 367 l 392 618 l 514 669 l 661 361 l 661 346 m 363 359 l 102 66 l 7 143 l 197 379 l 98 618 l 220 669 l 363 376 l 363 359 z "},"¼":{"ha":1126,"x_min":101,"x_max":1002,"o":"m 969 991 l 235 0 l 101 0 l 837 991 l 969 991 m 332 991 l 442 991 l 316 397 l 186 397 l 254 710 q 292 857 265 764 q 259 828 278 844 q 155 758 239 812 l 102 846 l 332 991 m 982 120 l 899 120 l 873 1 l 749 1 l 775 120 l 526 120 l 543 213 l 867 599 l 1000 599 l 918 217 l 1002 217 l 982 120 m 795 217 l 830 367 l 853 454 q 787 366 831 420 l 660 217 l 795 217 z "},"½":{"ha":1126,"x_min":82,"x_max":1062,"o":"m 950 991 l 216 0 l 82 0 l 818 991 l 950 991 m 313 991 l 422 991 l 296 397 l 167 397 l 234 710 q 273 857 245 764 q 239 828 258 844 q 135 758 220 812 l 83 846 l 313 991 m 993 1 l 583 1 l 602 92 l 785 243 q 885 336 860 308 q 923 388 911 363 q 935 438 935 412 q 916 487 935 469 q 864 505 897 505 q 734 450 802 505 l 680 534 q 777 589 726 570 q 891 608 827 608 q 1016 567 969 608 q 1062 462 1062 526 q 1046 377 1062 415 q 996 302 1030 340 q 882 203 962 265 l 764 107 l 1015 107 l 993 1 z "},"¾":{"ha":1141,"x_min":73,"x_max":1074,"o":"m 1065 991 l 331 0 l 197 0 l 933 991 l 1065 991 m 1054 120 l 971 120 l 945 1 l 821 1 l 847 120 l 597 120 l 615 213 l 939 599 l 1072 599 l 990 217 l 1074 217 l 1054 120 m 867 217 l 902 367 l 925 454 q 859 366 903 420 l 732 217 l 867 217 m 534 863 q 497 762 534 802 q 390 704 460 722 l 390 701 q 468 656 443 689 q 493 578 493 623 q 426 438 493 490 q 243 386 358 386 q 73 424 149 386 l 73 532 q 241 484 159 484 q 336 509 302 484 q 370 581 370 534 q 271 657 370 657 l 197 657 l 216 747 l 279 747 q 376 770 340 747 q 412 838 412 793 q 333 905 412 905 q 205 861 271 905 l 159 943 q 357 1004 245 1004 q 488 967 441 1004 q 534 863 534 929 z "},"¿":{"ha":615,"x_min":-24,"x_max":519,"o":"m 453 436 q 399 279 436 337 q 283 165 362 222 q 185 85 211 112 q 146 32 159 59 q 134 -28 134 5 q 162 -105 134 -76 q 245 -135 191 -135 q 347 -116 297 -135 q 450 -72 397 -98 l 501 -192 q 224 -268 362 -268 q 41 -210 106 -268 q -24 -46 -24 -152 q 20 102 -24 35 q 176 249 63 170 q 272 332 239 292 q 319 436 304 372 l 453 436 m 519 673 q 487 582 519 616 q 399 549 454 549 q 338 571 361 549 q 315 633 315 593 q 347 721 315 686 q 432 755 378 755 q 498 732 477 755 q 519 673 519 709 z "},"À":{"ha":821,"x_min":-82,"x_max":747,"o":"m 561 275 l 232 275 l 90 0 l -82 0 l 449 993 l 635 993 l 747 0 l 589 0 l 561 275 m 550 416 q 519 758 523 699 q 515 852 515 817 q 419 644 478 758 l 302 416 l 550 416 m 621 1071 l 523 1071 q 433 1174 479 1114 q 365 1279 388 1234 l 365 1293 l 531 1293 q 621 1088 563 1189 l 621 1071 z "},"Á":{"ha":821,"x_min":-82,"x_max":811,"o":"m 561 275 l 232 275 l 90 0 l -82 0 l 449 993 l 635 993 l 747 0 l 589 0 l 561 275 m 550 416 q 519 758 523 699 q 515 852 515 817 q 419 644 478 758 l 302 416 l 550 416 m 479 1088 q 632 1293 545 1161 l 811 1293 l 811 1280 q 704 1171 774 1236 q 585 1071 633 1106 l 479 1071 l 479 1088 z "},"Â":{"ha":821,"x_min":-82,"x_max":785,"o":"m 561 275 l 232 275 l 90 0 l -82 0 l 449 993 l 635 993 l 747 0 l 589 0 l 561 275 m 550 416 q 519 758 523 699 q 515 852 515 817 q 419 644 478 758 l 302 416 l 550 416 m 785 1071 l 682 1071 q 572 1192 630 1114 q 412 1071 484 1117 l 301 1071 l 301 1088 q 437 1220 395 1175 q 498 1293 480 1266 l 667 1293 q 785 1088 692 1226 l 785 1071 z "},"Ã":{"ha":821,"x_min":-82,"x_max":832,"o":"m 561 275 l 232 275 l 90 0 l -82 0 l 449 993 l 635 993 l 747 0 l 589 0 l 561 275 m 550 416 q 519 758 523 699 q 515 852 515 817 q 419 644 478 758 l 302 416 l 550 416 m 656 1071 q 600 1082 625 1071 q 551 1108 574 1094 q 507 1133 528 1122 q 464 1145 486 1145 q 421 1126 438 1145 q 392 1069 404 1107 l 299 1069 q 473 1263 338 1263 q 530 1251 504 1263 q 579 1225 557 1239 q 623 1199 602 1211 q 663 1187 643 1187 q 707 1205 690 1187 q 739 1264 724 1223 l 832 1264 q 656 1071 787 1071 z "},"Ä":{"ha":821,"x_min":-82,"x_max":772,"o":"m 561 275 l 232 275 l 90 0 l -82 0 l 449 993 l 635 993 l 747 0 l 589 0 l 561 275 m 550 416 q 519 758 523 699 q 515 852 515 817 q 419 644 478 758 l 302 416 l 550 416 m 351 1165 q 375 1232 351 1206 q 441 1257 399 1257 q 493 1241 474 1257 q 513 1193 513 1225 q 489 1124 513 1149 q 425 1099 465 1099 q 372 1115 393 1099 q 351 1165 351 1131 m 611 1165 q 635 1232 611 1206 q 701 1257 659 1257 q 753 1241 734 1257 q 772 1193 772 1225 q 748 1124 772 1149 q 685 1099 724 1099 q 632 1115 653 1099 q 611 1165 611 1131 z "},"Å":{"ha":821,"x_min":-82,"x_max":747,"o":"m 561 275 l 232 275 l 90 0 l -82 0 l 449 993 l 635 993 l 747 0 l 589 0 l 561 275 m 550 416 q 519 758 523 699 q 515 852 515 817 q 419 644 478 758 l 302 416 l 550 416 m 705 1068 q 660 956 705 998 q 543 914 615 914 q 428 956 471 914 q 385 1067 385 997 q 429 1178 385 1137 q 543 1220 473 1220 q 659 1179 614 1220 q 705 1068 705 1138 m 616 1067 q 595 1120 616 1101 q 543 1139 575 1139 q 493 1120 513 1139 q 473 1067 473 1101 q 491 1015 473 1034 q 543 996 509 996 q 595 1015 575 996 q 616 1067 616 1034 z "},"Æ":{"ha":1189,"x_min":-82,"x_max":1240,"o":"m 1031 0 l 504 0 l 562 275 l 269 275 l 96 0 l -82 0 l 549 991 l 1240 991 l 1211 852 l 846 852 l 789 585 l 1131 585 l 1101 449 l 761 449 l 694 138 l 1060 138 l 1031 0 m 591 416 l 685 852 l 629 852 l 358 416 l 591 416 z "},"Ç":{"ha":831,"x_min":92,"x_max":890,"o":"m 627 867 q 440 806 522 867 q 309 630 358 746 q 260 376 260 515 q 316 190 260 254 q 481 125 372 125 q 704 171 576 125 l 704 32 q 450 -14 582 -14 q 187 87 282 -14 q 92 370 92 188 q 163 697 92 546 q 354 927 235 848 q 627 1006 473 1006 q 890 943 774 1006 l 827 811 q 736 850 784 834 q 627 867 688 867 m 536 -179 q 481 -292 536 -251 q 329 -334 425 -334 q 249 -323 286 -334 l 249 -232 q 314 -241 281 -241 q 407 -176 407 -241 q 383 -135 407 -149 q 313 -114 359 -120 l 379 0 l 478 0 l 444 -65 q 515 -111 493 -82 q 536 -179 536 -139 z "},"È":{"ha":730,"x_min":47,"x_max":783,"o":"m 574 0 l 47 0 l 257 991 l 783 991 l 754 852 l 389 852 l 332 585 l 672 585 l 644 447 l 302 447 l 237 138 l 603 138 l 574 0 m 612 1071 l 515 1071 q 425 1174 471 1114 q 357 1279 380 1234 l 357 1293 l 523 1293 q 612 1088 555 1189 l 612 1071 z "},"É":{"ha":730,"x_min":47,"x_max":783,"o":"m 574 0 l 47 0 l 257 991 l 783 991 l 754 852 l 389 852 l 332 585 l 672 585 l 644 447 l 302 447 l 237 138 l 603 138 l 574 0 m 429 1088 q 582 1293 495 1161 l 761 1293 l 761 1280 q 654 1171 724 1236 q 535 1071 583 1106 l 429 1071 l 429 1088 z "},"Ê":{"ha":730,"x_min":47,"x_max":783,"o":"m 574 0 l 47 0 l 257 991 l 783 991 l 754 852 l 389 852 l 332 585 l 672 585 l 644 447 l 302 447 l 237 138 l 603 138 l 574 0 m 766 1071 l 663 1071 q 554 1192 612 1114 q 394 1071 465 1117 l 283 1071 l 283 1088 q 419 1220 376 1175 q 480 1293 462 1266 l 648 1293 q 766 1088 674 1226 l 766 1071 z "},"Ë":{"ha":730,"x_min":47,"x_max":783,"o":"m 574 0 l 47 0 l 257 991 l 783 991 l 754 852 l 389 852 l 332 585 l 672 585 l 644 447 l 302 447 l 237 138 l 603 138 l 574 0 m 325 1165 q 349 1232 325 1206 q 415 1257 372 1257 q 467 1241 448 1257 q 486 1193 486 1225 q 462 1124 486 1149 q 399 1099 438 1099 q 346 1115 367 1099 q 325 1165 325 1131 m 585 1165 q 608 1232 585 1206 q 675 1257 632 1257 q 727 1241 707 1257 q 746 1193 746 1225 q 722 1124 746 1149 q 659 1099 698 1099 q 606 1115 627 1099 q 585 1165 585 1131 z "},"Ð":{"ha":932,"x_min":36,"x_max":889,"o":"m 889 606 q 821 285 889 422 q 624 74 753 148 q 319 0 494 0 l 47 0 l 135 422 l 36 422 l 66 558 l 164 558 l 257 991 l 507 991 q 790 893 691 991 q 889 606 889 795 m 328 136 q 537 195 448 136 q 674 359 627 253 q 722 600 722 465 q 663 790 722 725 q 489 856 603 856 l 390 856 l 326 558 l 519 558 l 489 422 l 297 422 l 236 136 l 328 136 z "},"Ñ":{"ha":1011,"x_min":46,"x_max":1018,"o":"m 808 0 l 632 0 l 354 789 l 350 789 l 343 742 q 319 598 327 641 q 195 0 311 555 l 46 0 l 256 991 l 437 991 l 708 212 l 713 212 q 734 343 717 249 q 761 481 751 437 l 869 991 l 1018 991 l 808 0 m 751 1071 q 695 1082 721 1071 q 647 1108 670 1094 q 603 1133 624 1122 q 559 1145 581 1145 q 517 1126 534 1145 q 488 1069 500 1107 l 395 1069 q 568 1263 433 1263 q 626 1251 600 1263 q 675 1225 652 1239 q 718 1199 698 1211 q 758 1187 739 1187 q 802 1205 785 1187 q 835 1264 819 1223 l 928 1264 q 751 1071 883 1071 z "},"Ò":{"ha":1007,"x_min":92,"x_max":964,"o":"m 964 625 q 899 288 964 436 q 722 63 835 140 q 460 -14 609 -14 q 188 88 284 -14 q 92 368 92 189 q 158 699 92 549 q 341 928 225 848 q 604 1007 457 1007 q 869 906 774 1007 q 964 625 964 805 m 591 868 q 422 803 498 868 q 303 622 346 738 q 260 370 260 507 q 315 189 260 252 q 469 125 370 125 q 638 190 563 125 q 754 369 713 254 q 796 624 796 484 q 743 804 796 739 q 591 868 689 868 m 698 1071 l 600 1071 q 511 1174 556 1114 q 442 1279 465 1234 l 442 1293 l 608 1293 q 698 1088 640 1189 l 698 1071 z "},"Ó":{"ha":1007,"x_min":92,"x_max":964,"o":"m 964 625 q 899 288 964 436 q 722 63 835 140 q 460 -14 609 -14 q 188 88 284 -14 q 92 368 92 189 q 158 699 92 549 q 341 928 225 848 q 604 1007 457 1007 q 869 906 774 1007 q 964 625 964 805 m 591 868 q 422 803 498 868 q 303 622 346 738 q 260 370 260 507 q 315 189 260 252 q 469 125 370 125 q 638 190 563 125 q 754 369 713 254 q 796 624 796 484 q 743 804 796 739 q 591 868 689 868 m 534 1088 q 686 1293 600 1161 l 865 1293 l 865 1280 q 758 1171 829 1236 q 640 1071 688 1106 l 534 1071 l 534 1088 z "},"Ô":{"ha":1007,"x_min":92,"x_max":964,"o":"m 964 625 q 899 288 964 436 q 722 63 835 140 q 460 -14 609 -14 q 188 88 284 -14 q 92 368 92 189 q 158 699 92 549 q 341 928 225 848 q 604 1007 457 1007 q 869 906 774 1007 q 964 625 964 805 m 591 868 q 422 803 498 868 q 303 622 346 738 q 260 370 260 507 q 315 189 260 252 q 469 125 370 125 q 638 190 563 125 q 754 369 713 254 q 796 624 796 484 q 743 804 796 739 q 591 868 689 868 m 860 1071 l 757 1071 q 648 1192 705 1114 q 488 1071 559 1117 l 376 1071 l 376 1088 q 513 1220 470 1175 q 574 1293 555 1266 l 742 1293 q 860 1088 768 1226 l 860 1071 z "},"Õ":{"ha":1007,"x_min":92,"x_max":964,"o":"m 964 625 q 899 288 964 436 q 722 63 835 140 q 460 -14 609 -14 q 188 88 284 -14 q 92 368 92 189 q 158 699 92 549 q 341 928 225 848 q 604 1007 457 1007 q 869 906 774 1007 q 964 625 964 805 m 591 868 q 422 803 498 868 q 303 622 346 738 q 260 370 260 507 q 315 189 260 252 q 469 125 370 125 q 638 190 563 125 q 754 369 713 254 q 796 624 796 484 q 743 804 796 739 q 591 868 689 868 m 725 1071 q 669 1082 694 1071 q 621 1108 644 1094 q 576 1133 597 1122 q 533 1145 555 1145 q 490 1126 507 1145 q 461 1069 473 1107 l 368 1069 q 542 1263 407 1263 q 600 1251 573 1263 q 649 1225 626 1239 q 692 1199 671 1211 q 732 1187 712 1187 q 776 1205 759 1187 q 808 1264 793 1223 l 901 1264 q 725 1071 857 1071 z "},"Ö":{"ha":1007,"x_min":92,"x_max":964,"o":"m 964 625 q 899 288 964 436 q 722 63 835 140 q 460 -14 609 -14 q 188 88 284 -14 q 92 368 92 189 q 158 699 92 549 q 341 928 225 848 q 604 1007 457 1007 q 869 906 774 1007 q 964 625 964 805 m 591 868 q 422 803 498 868 q 303 622 346 738 q 260 370 260 507 q 315 189 260 252 q 469 125 370 125 q 638 190 563 125 q 754 369 713 254 q 796 624 796 484 q 743 804 796 739 q 591 868 689 868 m 422 1165 q 446 1232 422 1206 q 513 1257 470 1257 q 565 1241 545 1257 q 584 1193 584 1225 q 560 1124 584 1149 q 496 1099 536 1099 q 444 1115 465 1099 q 422 1165 422 1131 m 682 1165 q 706 1232 682 1206 q 772 1257 730 1257 q 824 1241 805 1257 q 844 1193 844 1225 q 820 1124 844 1149 q 756 1099 795 1099 q 703 1115 724 1099 q 682 1165 682 1131 z "},"×":{"ha":765,"x_min":100,"x_max":694,"o":"m 310 490 l 100 701 l 184 786 l 396 576 l 608 786 l 694 703 l 481 490 l 692 278 l 608 195 l 396 404 l 184 196 l 102 279 l 310 490 z "},"Ø":{"ha":1007,"x_min":74,"x_max":990,"o":"m 964 625 q 899 288 964 436 q 722 63 835 140 q 460 -14 609 -14 q 244 43 329 -14 l 164 -58 l 74 12 l 161 121 q 92 368 92 214 q 158 699 92 549 q 341 928 225 848 q 604 1007 457 1007 q 819 943 732 1007 l 900 1044 l 990 974 l 900 861 q 964 625 964 773 m 591 869 q 420 806 496 869 q 300 627 344 743 q 256 370 256 510 q 272 258 256 310 l 725 825 q 591 869 671 869 m 800 624 q 787 721 800 684 l 339 161 q 471 123 390 123 q 641 188 565 123 q 758 368 716 253 q 800 624 800 482 z "},"Ù":{"ha":949,"x_min":103,"x_max":962,"o":"m 962 991 l 825 343 q 684 74 787 162 q 411 -14 581 -14 q 183 58 264 -14 q 103 265 103 130 q 117 380 103 321 l 248 991 l 408 991 l 278 378 q 264 271 264 318 q 304 163 264 201 q 427 125 345 125 q 583 179 525 125 q 667 357 640 234 l 802 991 l 962 991 m 675 1071 l 578 1071 q 488 1174 534 1114 q 420 1279 443 1234 l 420 1293 l 586 1293 q 675 1088 618 1189 l 675 1071 z "},"Ú":{"ha":949,"x_min":103,"x_max":962,"o":"m 962 991 l 825 343 q 684 74 787 162 q 411 -14 581 -14 q 183 58 264 -14 q 103 265 103 130 q 117 380 103 321 l 248 991 l 408 991 l 278 378 q 264 271 264 318 q 304 163 264 201 q 427 125 345 125 q 583 179 525 125 q 667 357 640 234 l 802 991 l 962 991 m 536 1088 q 689 1293 602 1161 l 868 1293 l 868 1280 q 761 1171 831 1236 q 642 1071 690 1106 l 536 1071 l 536 1088 z "},"Û":{"ha":949,"x_min":103,"x_max":962,"o":"m 962 991 l 825 343 q 684 74 787 162 q 411 -14 581 -14 q 183 58 264 -14 q 103 265 103 130 q 117 380 103 321 l 248 991 l 408 991 l 278 378 q 264 271 264 318 q 304 163 264 201 q 427 125 345 125 q 583 179 525 125 q 667 357 640 234 l 802 991 l 962 991 m 847 1071 l 744 1071 q 635 1192 692 1114 q 475 1071 546 1117 l 363 1071 l 363 1088 q 500 1220 457 1175 q 561 1293 543 1266 l 729 1293 q 847 1088 755 1226 l 847 1071 z "},"Ü":{"ha":949,"x_min":103,"x_max":962,"o":"m 962 991 l 825 343 q 684 74 787 162 q 411 -14 581 -14 q 183 58 264 -14 q 103 265 103 130 q 117 380 103 321 l 248 991 l 408 991 l 278 378 q 264 271 264 318 q 304 163 264 201 q 427 125 345 125 q 583 179 525 125 q 667 357 640 234 l 802 991 l 962 991 m 408 1165 q 432 1232 408 1206 q 498 1257 456 1257 q 550 1241 531 1257 q 570 1193 570 1225 q 546 1124 570 1149 q 482 1099 522 1099 q 429 1115 450 1099 q 408 1165 408 1131 m 668 1165 q 692 1232 668 1206 q 758 1257 715 1257 q 810 1241 791 1257 q 829 1193 829 1225 q 805 1124 829 1149 q 742 1099 781 1099 q 689 1115 710 1099 q 668 1165 668 1131 z "},"Ý":{"ha":741,"x_min":126,"x_max":868,"o":"m 395 538 l 688 991 l 868 991 l 446 372 l 368 0 l 207 0 l 288 375 l 126 991 l 290 991 l 395 538 m 414 1088 q 566 1293 479 1161 l 745 1293 l 745 1280 q 638 1171 709 1236 q 519 1071 568 1106 l 414 1071 l 414 1088 z "},"Þ":{"ha":796,"x_min":47,"x_max":762,"o":"m 762 554 q 649 298 762 389 q 326 207 536 207 l 253 207 l 208 0 l 47 0 l 257 991 l 418 991 l 383 827 l 449 827 q 683 758 603 827 q 762 554 762 690 m 281 343 l 346 343 q 532 396 465 343 q 599 550 599 450 q 558 657 599 624 q 436 690 518 690 l 354 690 l 281 343 z "},"ß":{"ha":859,"x_min":-175,"x_max":818,"o":"m -79 -334 q -175 -318 -126 -334 l -175 -187 q -98 -201 -134 -201 q -26 -172 -54 -201 q 17 -72 2 -142 l 195 765 q 312 991 227 922 q 549 1060 397 1060 q 747 1006 676 1060 q 818 860 818 951 q 696 657 818 745 q 596 576 616 598 q 575 530 575 554 q 625 462 575 500 q 722 376 698 405 q 760 313 747 347 q 772 239 772 279 q 694 54 772 122 q 481 -14 615 -14 q 289 31 357 -14 l 289 167 q 460 109 374 109 q 571 138 531 109 q 611 222 611 168 q 595 280 611 255 q 519 353 579 305 q 437 435 464 396 q 411 521 411 474 q 441 615 411 572 q 533 699 471 659 q 627 775 600 744 q 654 842 654 806 q 623 910 654 886 q 533 935 591 935 q 355 772 391 935 l 176 -82 q 85 -275 148 -216 q -79 -334 22 -334 z "},"à":{"ha":804,"x_min":64,"x_max":781,"o":"m 271 -14 q 119 55 175 -14 q 64 249 64 124 q 111 505 64 386 q 241 694 158 625 q 422 764 323 764 q 536 733 488 764 q 610 643 583 702 l 616 643 l 659 750 l 781 750 l 621 0 l 497 0 l 511 119 l 507 119 q 271 -14 400 -14 m 329 115 q 438 168 385 115 q 526 309 492 220 q 561 501 561 397 q 529 597 561 561 q 446 633 497 633 q 337 581 388 633 q 256 439 286 529 q 225 253 225 349 q 253 150 225 184 q 329 115 280 115 m 574 842 l 477 842 q 387 944 433 884 q 319 1050 342 1004 l 319 1064 l 485 1064 q 574 859 517 960 l 574 842 z "},"á":{"ha":804,"x_min":64,"x_max":781,"o":"m 271 -14 q 119 55 175 -14 q 64 249 64 124 q 111 505 64 386 q 241 694 158 625 q 422 764 323 764 q 536 733 488 764 q 610 643 583 702 l 616 643 l 659 750 l 781 750 l 621 0 l 497 0 l 511 119 l 507 119 q 271 -14 400 -14 m 329 115 q 438 168 385 115 q 526 309 492 220 q 561 501 561 397 q 529 597 561 561 q 446 633 497 633 q 337 581 388 633 q 256 439 286 529 q 225 253 225 349 q 253 150 225 184 q 329 115 280 115 m 406 859 q 558 1064 471 932 l 737 1064 l 737 1051 q 630 942 701 1006 q 511 842 559 877 l 406 842 l 406 859 z "},"â":{"ha":804,"x_min":64,"x_max":781,"o":"m 271 -14 q 119 55 175 -14 q 64 249 64 124 q 111 505 64 386 q 241 694 158 625 q 422 764 323 764 q 536 733 488 764 q 610 643 583 702 l 616 643 l 659 750 l 781 750 l 621 0 l 497 0 l 511 119 l 507 119 q 271 -14 400 -14 m 329 115 q 438 168 385 115 q 526 309 492 220 q 561 501 561 397 q 529 597 561 561 q 446 633 497 633 q 337 581 388 633 q 256 439 286 529 q 225 253 225 349 q 253 150 225 184 q 329 115 280 115 m 722 842 l 618 842 q 509 962 567 884 q 349 842 420 888 l 238 842 l 238 859 q 374 991 332 945 q 435 1064 417 1037 l 604 1064 q 722 859 629 997 l 722 842 z "},"ã":{"ha":804,"x_min":64,"x_max":781,"o":"m 271 -14 q 119 55 175 -14 q 64 249 64 124 q 111 505 64 386 q 241 694 158 625 q 422 764 323 764 q 536 733 488 764 q 610 643 583 702 l 616 643 l 659 750 l 781 750 l 621 0 l 497 0 l 511 119 l 507 119 q 271 -14 400 -14 m 329 115 q 438 168 385 115 q 526 309 492 220 q 561 501 561 397 q 529 597 561 561 q 446 633 497 633 q 337 581 388 633 q 256 439 286 529 q 225 253 225 349 q 253 150 225 184 q 329 115 280 115 m 590 842 q 534 853 559 842 q 486 879 509 865 q 441 904 463 892 q 398 916 420 916 q 355 897 372 916 q 326 840 338 878 l 233 840 q 407 1034 272 1034 q 465 1022 438 1034 q 514 996 491 1010 q 557 970 536 982 q 597 958 577 958 q 641 976 624 958 q 673 1035 658 994 l 766 1035 q 590 842 722 842 z "},"ä":{"ha":804,"x_min":64,"x_max":781,"o":"m 271 -14 q 119 55 175 -14 q 64 249 64 124 q 111 505 64 386 q 241 694 158 625 q 422 764 323 764 q 536 733 488 764 q 610 643 583 702 l 616 643 l 659 750 l 781 750 l 621 0 l 497 0 l 511 119 l 507 119 q 271 -14 400 -14 m 329 115 q 438 168 385 115 q 526 309 492 220 q 561 501 561 397 q 529 597 561 561 q 446 633 497 633 q 337 581 388 633 q 256 439 286 529 q 225 253 225 349 q 253 150 225 184 q 329 115 280 115 m 288 936 q 312 1002 288 977 q 378 1028 336 1028 q 430 1012 411 1028 q 450 964 450 996 q 426 895 450 920 q 362 869 401 869 q 309 885 330 869 q 288 936 288 901 m 548 936 q 572 1002 548 977 q 638 1028 595 1028 q 690 1012 671 1028 q 709 964 709 996 q 685 895 709 920 q 622 869 661 869 q 569 885 590 869 q 548 936 548 901 z "},"å":{"ha":804,"x_min":64,"x_max":781,"o":"m 271 -14 q 119 55 175 -14 q 64 249 64 124 q 111 505 64 386 q 241 694 158 625 q 422 764 323 764 q 536 733 488 764 q 610 643 583 702 l 616 643 l 659 750 l 781 750 l 621 0 l 497 0 l 511 119 l 507 119 q 271 -14 400 -14 m 329 115 q 438 168 385 115 q 526 309 492 220 q 561 501 561 397 q 529 597 561 561 q 446 633 497 633 q 337 581 388 633 q 256 439 286 529 q 225 253 225 349 q 253 150 225 184 q 329 115 280 115 m 670 994 q 625 882 670 924 q 509 840 581 840 q 394 882 437 840 q 351 993 351 923 q 395 1104 351 1063 q 509 1146 439 1146 q 625 1105 579 1146 q 670 994 670 1064 m 581 993 q 561 1046 581 1027 q 509 1065 541 1065 q 458 1046 478 1065 q 438 993 438 1027 q 456 941 438 960 q 509 922 474 922 q 561 941 541 922 q 581 993 581 960 z "},"æ":{"ha":1171,"x_min":64,"x_max":1139,"o":"m 804 -14 q 597 79 654 -14 l 582 0 l 479 0 l 493 119 l 488 119 q 375 17 430 47 q 257 -14 321 -14 q 115 56 166 -14 q 64 249 64 126 q 111 505 64 385 q 238 694 157 625 q 415 764 319 764 q 518 734 475 764 q 591 643 562 705 l 597 643 l 640 750 l 741 750 l 724 671 q 812 739 758 713 q 935 764 867 764 q 1084 712 1029 764 q 1139 575 1139 660 q 1026 382 1139 452 q 704 313 913 313 l 673 313 l 671 272 q 712 152 671 193 q 831 111 753 111 q 1038 168 916 111 l 1038 40 q 804 -14 919 -14 m 315 115 q 426 170 373 115 q 511 316 478 224 q 543 497 543 408 q 517 596 543 559 q 440 633 491 633 q 332 579 382 633 q 253 436 281 525 q 225 253 225 347 q 250 149 225 182 q 315 115 275 115 m 904 642 q 776 583 834 642 q 693 429 718 525 l 714 429 q 913 466 841 429 q 985 567 985 502 q 962 624 985 606 q 904 642 939 642 z "},"ç":{"ha":647,"x_min":64,"x_max":660,"o":"m 343 -14 q 137 58 210 -14 q 64 264 64 130 q 114 519 64 404 q 254 699 163 634 q 458 764 344 764 q 660 722 570 764 l 612 597 q 463 633 530 633 q 293 529 361 633 q 225 272 225 425 q 263 156 225 197 q 368 115 301 115 q 462 130 418 115 q 550 167 506 145 l 550 35 q 343 -14 455 -14 m 421 -179 q 366 -292 421 -251 q 214 -334 310 -334 q 134 -323 170 -334 l 134 -232 q 199 -241 165 -241 q 292 -176 292 -241 q 268 -135 292 -149 q 197 -114 244 -120 l 264 0 l 363 0 l 329 -65 q 399 -111 378 -82 q 421 -179 421 -139 z "},"è":{"ha":729,"x_min":64,"x_max":690,"o":"m 450 642 q 328 583 385 642 q 245 429 271 525 l 265 429 q 465 466 393 429 q 536 568 536 502 q 515 622 536 603 q 450 642 493 642 m 347 -14 q 139 62 214 -14 q 64 272 64 137 q 116 522 64 406 q 259 701 169 637 q 460 764 349 764 q 630 714 569 764 q 690 575 690 665 q 577 382 690 452 q 256 313 465 313 l 227 313 l 225 292 l 225 272 q 263 154 225 197 q 378 111 302 111 q 475 124 427 111 q 589 168 523 137 l 589 41 q 469 -1 524 12 q 347 -14 414 -14 m 551 842 l 454 842 q 364 944 410 884 q 296 1050 319 1004 l 296 1064 l 462 1064 q 551 859 494 960 l 551 842 z "},"é":{"ha":729,"x_min":64,"x_max":709,"o":"m 450 642 q 328 583 385 642 q 245 429 271 525 l 265 429 q 465 466 393 429 q 536 568 536 502 q 515 622 536 603 q 450 642 493 642 m 347 -14 q 139 62 214 -14 q 64 272 64 137 q 116 522 64 406 q 259 701 169 637 q 460 764 349 764 q 630 714 569 764 q 690 575 690 665 q 577 382 690 452 q 256 313 465 313 l 227 313 l 225 292 l 225 272 q 263 154 225 197 q 378 111 302 111 q 475 124 427 111 q 589 168 523 137 l 589 41 q 469 -1 524 12 q 347 -14 414 -14 m 378 859 q 530 1064 444 932 l 709 1064 l 709 1051 q 602 942 673 1006 q 484 842 532 877 l 378 842 l 378 859 z "},"ê":{"ha":729,"x_min":64,"x_max":701,"o":"m 450 642 q 328 583 385 642 q 245 429 271 525 l 265 429 q 465 466 393 429 q 536 568 536 502 q 515 622 536 603 q 450 642 493 642 m 347 -14 q 139 62 214 -14 q 64 272 64 137 q 116 522 64 406 q 259 701 169 637 q 460 764 349 764 q 630 714 569 764 q 690 575 690 665 q 577 382 690 452 q 256 313 465 313 l 227 313 l 225 292 l 225 272 q 263 154 225 197 q 378 111 302 111 q 475 124 427 111 q 589 168 523 137 l 589 41 q 469 -1 524 12 q 347 -14 414 -14 m 701 842 l 597 842 q 488 962 546 884 q 328 842 399 888 l 217 842 l 217 859 q 353 991 311 945 q 414 1064 396 1037 l 583 1064 q 701 859 608 997 l 701 842 z "},"ë":{"ha":729,"x_min":64,"x_max":690,"o":"m 450 642 q 328 583 385 642 q 245 429 271 525 l 265 429 q 465 466 393 429 q 536 568 536 502 q 515 622 536 603 q 450 642 493 642 m 347 -14 q 139 62 214 -14 q 64 272 64 137 q 116 522 64 406 q 259 701 169 637 q 460 764 349 764 q 630 714 569 764 q 690 575 690 665 q 577 382 690 452 q 256 313 465 313 l 227 313 l 225 292 l 225 272 q 263 154 225 197 q 378 111 302 111 q 475 124 427 111 q 589 168 523 137 l 589 41 q 469 -1 524 12 q 347 -14 414 -14 m 263 936 q 287 1002 263 977 q 353 1028 311 1028 q 405 1012 386 1028 q 425 964 425 996 q 400 895 425 920 q 337 869 376 869 q 284 885 305 869 q 263 936 263 901 m 523 936 q 547 1002 523 977 q 613 1028 570 1028 q 665 1012 646 1028 q 684 964 684 996 q 660 895 684 920 q 597 869 636 869 q 544 885 565 869 q 523 936 523 901 z "},"ì":{"ha":382,"x_min":32,"x_max":363,"o":"m 192 0 l 32 0 l 192 750 l 351 750 l 192 0 m 363 842 l 266 842 q 176 944 222 884 q 108 1050 131 1004 l 108 1064 l 274 1064 q 363 859 306 960 l 363 842 z "},"í":{"ha":382,"x_min":32,"x_max":541,"o":"m 192 0 l 32 0 l 192 750 l 351 750 l 192 0 m 209 859 q 361 1064 275 932 l 541 1064 l 541 1051 q 433 942 504 1006 q 315 842 363 877 l 209 842 l 209 859 z "},"î":{"ha":382,"x_min":32,"x_max":527,"o":"m 192 0 l 32 0 l 192 750 l 351 750 l 192 0 m 527 842 l 424 842 q 315 962 372 884 q 155 842 226 888 l 43 842 l 43 859 q 180 991 137 945 q 241 1064 222 1037 l 409 1064 q 527 859 435 997 l 527 842 z "},"ï":{"ha":382,"x_min":32,"x_max":517,"o":"m 192 0 l 32 0 l 192 750 l 351 750 l 192 0 m 96 936 q 120 1002 96 977 q 186 1028 144 1028 q 238 1012 219 1028 q 258 964 258 996 q 234 895 258 920 q 170 869 210 869 q 117 885 138 869 q 96 936 96 901 m 356 936 q 380 1002 356 977 q 446 1028 404 1028 q 498 1012 479 1028 q 517 964 517 996 q 493 895 517 920 q 430 869 469 869 q 377 885 398 869 q 356 936 356 901 z "},"ð":{"ha":796,"x_min":54,"x_max":778,"o":"m 439 899 q 347 964 409 926 l 419 1067 q 561 968 507 1018 l 730 1061 l 778 975 l 631 893 q 736 546 736 754 q 686 244 736 373 q 548 51 637 116 q 336 -14 459 -14 q 129 59 203 -14 q 54 264 54 132 q 99 467 54 374 q 224 612 143 559 q 404 665 304 665 q 518 639 469 665 q 595 566 567 613 l 599 566 q 509 825 592 730 l 339 729 l 290 817 l 439 899 m 345 110 q 454 150 407 110 q 528 258 501 191 q 554 397 554 326 q 519 503 554 463 q 421 542 484 542 q 312 504 359 542 q 240 400 265 466 q 215 256 215 334 q 248 148 215 185 q 345 110 281 110 z "},"ñ":{"ha":819,"x_min":32,"x_max":779,"o":"m 476 0 l 572 456 q 585 545 585 517 q 497 633 585 633 q 401 595 448 633 q 315 483 353 556 q 258 318 277 410 l 192 0 l 32 0 l 192 750 l 317 750 l 302 611 l 309 611 q 425 727 365 691 q 554 764 484 764 q 695 712 645 764 q 745 566 745 661 q 729 443 745 519 l 636 0 l 476 0 m 603 842 q 547 853 572 842 q 498 879 522 865 q 454 904 475 892 q 411 916 433 916 q 368 897 385 916 q 339 840 351 878 l 246 840 q 420 1034 285 1034 q 477 1022 451 1034 q 527 996 504 1010 q 570 970 549 982 q 610 958 590 958 q 654 976 637 958 q 686 1035 671 994 l 779 1035 q 603 842 734 842 z "},"ò":{"ha":796,"x_min":64,"x_max":732,"o":"m 571 476 q 538 590 571 549 q 443 631 505 631 q 330 582 380 631 q 253 451 280 534 q 225 273 225 368 q 259 158 225 198 q 358 118 292 118 q 468 164 419 118 q 544 293 517 210 q 571 476 571 376 m 732 469 q 682 220 732 332 q 546 48 633 108 q 347 -12 460 -12 q 140 65 217 -12 q 64 277 64 143 q 112 524 64 412 q 248 700 161 637 q 450 762 336 762 q 657 684 583 762 q 732 469 732 605 m 557 842 l 459 842 q 370 944 415 884 q 301 1050 324 1004 l 301 1064 l 467 1064 q 557 859 499 960 l 557 842 z "},"ó":{"ha":796,"x_min":64,"x_max":732,"o":"m 571 476 q 538 590 571 549 q 443 631 505 631 q 330 582 380 631 q 253 451 280 534 q 225 273 225 368 q 259 158 225 198 q 358 118 292 118 q 468 164 419 118 q 544 293 517 210 q 571 476 571 376 m 732 469 q 682 220 732 332 q 546 48 633 108 q 347 -12 460 -12 q 140 65 217 -12 q 64 277 64 143 q 112 524 64 412 q 248 700 161 637 q 450 762 336 762 q 657 684 583 762 q 732 469 732 605 m 393 859 q 546 1064 459 932 l 725 1064 l 725 1051 q 618 942 688 1006 q 499 842 547 877 l 393 842 l 393 859 z "},"ô":{"ha":796,"x_min":64,"x_max":732,"o":"m 571 476 q 538 590 571 549 q 443 631 505 631 q 330 582 380 631 q 253 451 280 534 q 225 273 225 368 q 259 158 225 198 q 358 118 292 118 q 468 164 419 118 q 544 293 517 210 q 571 476 571 376 m 732 469 q 682 220 732 332 q 546 48 633 108 q 347 -12 460 -12 q 140 65 217 -12 q 64 277 64 143 q 112 524 64 412 q 248 700 161 637 q 450 762 336 762 q 657 684 583 762 q 732 469 732 605 m 715 842 l 612 842 q 503 962 560 884 q 342 842 414 888 l 231 842 l 231 859 q 368 991 325 945 q 429 1064 410 1037 l 597 1064 q 715 859 623 997 l 715 842 z "},"õ":{"ha":796,"x_min":64,"x_max":755,"o":"m 571 476 q 538 590 571 549 q 443 631 505 631 q 330 582 380 631 q 253 451 280 534 q 225 273 225 368 q 259 158 225 198 q 358 118 292 118 q 468 164 419 118 q 544 293 517 210 q 571 476 571 376 m 732 469 q 682 220 732 332 q 546 48 633 108 q 347 -12 460 -12 q 140 65 217 -12 q 64 277 64 143 q 112 524 64 412 q 248 700 161 637 q 450 762 336 762 q 657 684 583 762 q 732 469 732 605 m 579 842 q 523 853 549 842 q 475 879 498 865 q 430 904 452 892 q 387 916 409 916 q 345 897 361 916 q 315 840 328 878 l 222 840 q 396 1034 261 1034 q 454 1022 427 1034 q 503 996 480 1010 q 546 970 526 982 q 586 958 566 958 q 630 976 613 958 q 663 1035 647 994 l 755 1035 q 579 842 711 842 z "},"ö":{"ha":796,"x_min":64,"x_max":732,"o":"m 571 476 q 538 590 571 549 q 443 631 505 631 q 330 582 380 631 q 253 451 280 534 q 225 273 225 368 q 259 158 225 198 q 358 118 292 118 q 468 164 419 118 q 544 293 517 210 q 571 476 571 376 m 732 469 q 682 220 732 332 q 546 48 633 108 q 347 -12 460 -12 q 140 65 217 -12 q 64 277 64 143 q 112 524 64 412 q 248 700 161 637 q 450 762 336 762 q 657 684 583 762 q 732 469 732 605 m 277 936 q 301 1002 277 977 q 368 1028 325 1028 q 419 1012 400 1028 q 439 964 439 996 q 415 895 439 920 q 351 869 391 869 q 298 885 319 869 q 277 936 277 901 m 537 936 q 561 1002 537 977 q 627 1028 585 1028 q 679 1012 660 1028 q 699 964 699 996 q 674 895 699 920 q 611 869 650 869 q 558 885 579 869 q 537 936 537 901 z "},"÷":{"ha":765,"x_min":79,"x_max":714,"o":"m 79 428 l 79 550 l 714 550 l 714 428 l 79 428 m 311 253 q 333 320 311 296 q 396 345 354 345 q 460 320 438 345 q 482 253 482 296 q 459 185 482 210 q 396 160 435 160 q 334 184 357 160 q 311 253 311 208 m 311 726 q 333 794 311 770 q 396 818 354 818 q 460 793 438 818 q 482 726 482 769 q 459 658 482 683 q 396 633 435 633 q 334 657 357 633 q 311 726 311 682 z "},"ø":{"ha":796,"x_min":35,"x_max":755,"o":"m 730 475 q 680 220 730 334 q 544 47 630 106 q 349 -12 458 -12 q 189 28 256 -12 l 118 -61 l 35 4 l 113 100 q 65 277 65 170 q 113 524 65 412 q 248 699 161 636 q 450 762 336 762 q 612 721 543 762 l 671 794 l 755 729 l 688 650 q 730 475 730 582 m 443 635 q 283 536 347 635 q 220 289 220 437 q 225 239 220 262 l 525 611 q 443 635 494 635 m 358 114 q 469 159 418 114 q 548 284 519 204 q 576 458 576 363 q 572 504 576 489 l 277 136 q 358 114 304 114 z "},"ù":{"ha":819,"x_min":75,"x_max":786,"o":"m 343 750 l 256 336 q 235 205 235 241 q 321 115 235 115 q 418 154 370 115 q 503 264 466 193 q 561 432 541 336 l 628 750 l 786 750 l 628 0 l 503 0 l 517 139 l 511 139 q 395 23 456 60 q 265 -14 335 -14 q 125 38 174 -14 q 75 186 75 90 q 83 270 75 229 q 100 354 92 312 l 183 750 l 343 750 m 558 842 l 460 842 q 371 944 416 884 q 302 1050 326 1004 l 302 1064 l 469 1064 q 558 859 500 960 l 558 842 z "},"ú":{"ha":819,"x_min":75,"x_max":786,"o":"m 343 750 l 256 336 q 235 205 235 241 q 321 115 235 115 q 418 154 370 115 q 503 264 466 193 q 561 432 541 336 l 628 750 l 786 750 l 628 0 l 503 0 l 517 139 l 511 139 q 395 23 456 60 q 265 -14 335 -14 q 125 38 174 -14 q 75 186 75 90 q 83 270 75 229 q 100 354 92 312 l 183 750 l 343 750 m 422 859 q 575 1064 488 932 l 754 1064 l 754 1051 q 647 942 718 1006 q 528 842 576 877 l 422 842 l 422 859 z "},"û":{"ha":819,"x_min":75,"x_max":786,"o":"m 343 750 l 256 336 q 235 205 235 241 q 321 115 235 115 q 418 154 370 115 q 503 264 466 193 q 561 432 541 336 l 628 750 l 786 750 l 628 0 l 503 0 l 517 139 l 511 139 q 395 23 456 60 q 265 -14 335 -14 q 125 38 174 -14 q 75 186 75 90 q 83 270 75 229 q 100 354 92 312 l 183 750 l 343 750 m 734 842 l 631 842 q 522 962 580 884 q 362 842 433 888 l 251 842 l 251 859 q 387 991 345 945 q 448 1064 430 1037 l 616 1064 q 734 859 642 997 l 734 842 z "},"ü":{"ha":819,"x_min":75,"x_max":786,"o":"m 343 750 l 256 336 q 235 205 235 241 q 321 115 235 115 q 418 154 370 115 q 503 264 466 193 q 561 432 541 336 l 628 750 l 786 750 l 628 0 l 503 0 l 517 139 l 511 139 q 395 23 456 60 q 265 -14 335 -14 q 125 38 174 -14 q 75 186 75 90 q 83 270 75 229 q 100 354 92 312 l 183 750 l 343 750 m 293 936 q 317 1002 293 977 q 383 1028 340 1028 q 435 1012 416 1028 q 454 964 454 996 q 430 895 454 920 q 367 869 406 869 q 314 885 335 869 q 293 936 293 901 m 553 936 q 576 1002 553 977 q 643 1028 600 1028 q 695 1012 675 1028 q 714 964 714 996 q 690 895 714 920 q 627 869 666 869 q 574 885 595 869 q 553 936 553 901 z "},"ý":{"ha":681,"x_min":-115,"x_max":750,"o":"m 68 750 l 225 750 l 268 390 q 279 272 274 348 q 283 149 283 195 l 288 149 q 379 361 346 294 l 578 750 l 750 750 l 283 -118 q 151 -282 222 -230 q -18 -334 79 -334 q -115 -321 -70 -334 l -115 -193 q -31 -204 -64 -204 q 60 -175 20 -204 q 144 -69 101 -145 l 179 -7 l 68 750 m 340 859 q 492 1064 406 932 l 671 1064 l 671 1051 q 564 942 635 1006 q 446 842 494 877 l 340 842 l 340 859 z "},"þ":{"ha":814,"x_min":-37,"x_max":749,"o":"m 397 -14 q 286 17 334 -14 q 208 106 237 48 l 203 106 q 186 -20 198 44 l 121 -334 l -37 -334 l 256 1055 l 415 1055 q 366 825 382 904 q 314 628 349 747 l 319 628 q 542 764 425 764 q 694 694 640 764 q 749 500 749 625 q 703 241 749 361 q 577 54 656 121 q 397 -14 498 -14 m 479 633 q 369 578 422 633 q 283 434 315 524 q 250 253 250 344 q 281 151 250 186 q 371 115 313 115 q 479 168 429 115 q 558 309 529 220 q 587 497 587 399 q 559 599 587 565 q 479 633 532 633 z "},"ÿ":{"ha":681,"x_min":-115,"x_max":750,"o":"m 68 750 l 225 750 l 268 390 q 279 272 274 348 q 283 149 283 195 l 288 149 q 379 361 346 294 l 578 750 l 750 750 l 283 -118 q 151 -282 222 -230 q -18 -334 79 -334 q -115 -321 -70 -334 l -115 -193 q -31 -204 -64 -204 q 60 -175 20 -204 q 144 -69 101 -145 l 179 -7 l 68 750 m 219 936 q 243 1002 219 977 q 309 1028 267 1028 q 361 1012 342 1028 q 380 964 380 996 q 356 895 380 920 q 293 869 332 869 q 240 885 261 869 q 219 936 219 901 m 479 936 q 503 1002 479 977 q 569 1028 526 1028 q 621 1012 602 1028 q 640 964 640 996 q 616 895 640 920 q 553 869 592 869 q 500 885 521 869 q 479 936 479 901 z "},"Ā":{"ha":821,"x_min":-82,"x_max":771,"o":"m 561 275 l 232 275 l 90 0 l -82 0 l 449 993 l 635 993 l 747 0 l 589 0 l 561 275 m 550 416 q 519 758 523 699 q 515 852 515 817 q 419 644 478 758 l 302 416 l 550 416 m 376 1190 l 771 1190 l 746 1071 l 351 1071 l 376 1190 z "},"ā":{"ha":804,"x_min":64,"x_max":781,"o":"m 271 -14 q 119 55 175 -14 q 64 249 64 124 q 111 505 64 386 q 241 694 158 625 q 422 764 323 764 q 536 733 488 764 q 610 643 583 702 l 616 643 l 659 750 l 781 750 l 621 0 l 497 0 l 511 119 l 507 119 q 271 -14 400 -14 m 329 115 q 438 168 385 115 q 526 309 492 220 q 561 501 561 397 q 529 597 561 561 q 446 633 497 633 q 337 581 388 633 q 256 439 286 529 q 225 253 225 349 q 253 150 225 184 q 329 115 280 115 m 317 961 l 711 961 l 686 842 l 292 842 l 317 961 z "},"Ă":{"ha":821,"x_min":-82,"x_max":793,"o":"m 561 275 l 232 275 l 90 0 l -82 0 l 449 993 l 635 993 l 747 0 l 589 0 l 561 275 m 550 416 q 519 758 523 699 q 515 852 515 817 q 419 644 478 758 l 302 416 l 550 416 m 793 1276 q 712 1121 772 1171 q 549 1071 652 1071 q 407 1116 458 1071 q 356 1239 356 1160 q 359 1276 356 1263 l 450 1276 q 475 1213 450 1234 q 559 1192 500 1192 q 651 1213 618 1192 q 693 1276 683 1234 l 793 1276 z "},"ă":{"ha":804,"x_min":64,"x_max":781,"o":"m 271 -14 q 119 55 175 -14 q 64 249 64 124 q 111 505 64 386 q 241 694 158 625 q 422 764 323 764 q 536 733 488 764 q 610 643 583 702 l 616 643 l 659 750 l 781 750 l 621 0 l 497 0 l 511 119 l 507 119 q 271 -14 400 -14 m 329 115 q 438 168 385 115 q 526 309 492 220 q 561 501 561 397 q 529 597 561 561 q 446 633 497 633 q 337 581 388 633 q 256 439 286 529 q 225 253 225 349 q 253 150 225 184 q 329 115 280 115 m 740 1047 q 659 892 719 942 q 495 842 598 842 q 354 886 405 842 q 302 1010 302 931 q 305 1047 302 1034 l 397 1047 q 421 983 397 1004 q 505 962 446 962 q 597 983 565 962 q 640 1047 629 1004 l 740 1047 z "},"Ą":{"ha":821,"x_min":-82,"x_max":747,"o":"m 561 275 l 232 275 l 90 0 l -82 0 l 449 993 l 635 993 l 747 0 l 589 0 l 561 275 m 550 416 q 519 758 523 699 q 515 852 515 817 q 419 644 478 758 l 302 416 l 550 416 m 699 0 q 596 -99 623 -60 q 570 -172 570 -138 q 581 -205 570 -194 q 612 -216 593 -216 q 675 -207 638 -216 l 675 -302 q 582 -317 631 -317 q 483 -285 520 -317 q 446 -196 446 -253 q 478 -96 446 -141 q 591 0 510 -50 l 699 0 z "},"ą":{"ha":804,"x_min":64,"x_max":781,"o":"m 271 -14 q 119 55 175 -14 q 64 249 64 124 q 111 505 64 386 q 241 694 158 625 q 422 764 323 764 q 536 733 488 764 q 610 643 583 702 l 616 643 l 659 750 l 781 750 l 621 0 l 497 0 l 511 119 l 507 119 q 271 -14 400 -14 m 329 115 q 438 168 385 115 q 526 309 492 220 q 561 501 561 397 q 529 597 561 561 q 446 633 497 633 q 337 581 388 633 q 256 439 286 529 q 225 253 225 349 q 253 150 225 184 q 329 115 280 115 m 603 0 q 501 -99 528 -60 q 474 -172 474 -138 q 486 -205 474 -194 q 517 -216 497 -216 q 579 -207 543 -216 l 579 -302 q 486 -317 535 -317 q 387 -285 425 -317 q 350 -196 350 -253 q 382 -96 350 -141 q 496 0 414 -50 l 603 0 z "},"Ć":{"ha":831,"x_min":92,"x_max":890,"o":"m 627 867 q 440 806 522 867 q 309 630 358 746 q 260 376 260 515 q 316 190 260 254 q 481 125 372 125 q 704 171 576 125 l 704 32 q 450 -14 582 -14 q 187 87 282 -14 q 92 370 92 188 q 163 697 92 546 q 354 927 235 848 q 627 1006 473 1006 q 890 943 774 1006 l 827 811 q 736 850 784 834 q 627 867 688 867 m 536 1088 q 689 1293 602 1161 l 868 1293 l 868 1280 q 761 1171 831 1236 q 642 1071 690 1106 l 536 1071 l 536 1088 z "},"ć":{"ha":647,"x_min":64,"x_max":708,"o":"m 343 -14 q 137 58 210 -14 q 64 264 64 130 q 114 519 64 404 q 254 699 163 634 q 458 764 344 764 q 660 722 570 764 l 612 597 q 463 633 530 633 q 293 529 361 633 q 225 272 225 425 q 263 156 225 197 q 368 115 301 115 q 462 130 418 115 q 550 167 506 145 l 550 35 q 343 -14 455 -14 m 376 859 q 529 1064 442 932 l 708 1064 l 708 1051 q 601 942 671 1006 q 482 842 530 877 l 376 842 l 376 859 z "},"Ĉ":{"ha":831,"x_min":92,"x_max":890,"o":"m 627 867 q 440 806 522 867 q 309 630 358 746 q 260 376 260 515 q 316 190 260 254 q 481 125 372 125 q 704 171 576 125 l 704 32 q 450 -14 582 -14 q 187 87 282 -14 q 92 370 92 188 q 163 697 92 546 q 354 927 235 848 q 627 1006 473 1006 q 890 943 774 1006 l 827 811 q 736 850 784 834 q 627 867 688 867 m 854 1071 l 751 1071 q 642 1192 700 1114 q 482 1071 553 1117 l 371 1071 l 371 1088 q 507 1220 465 1175 q 568 1293 550 1266 l 736 1293 q 854 1088 762 1226 l 854 1071 z "},"ĉ":{"ha":647,"x_min":64,"x_max":687,"o":"m 343 -14 q 137 58 210 -14 q 64 264 64 130 q 114 519 64 404 q 254 699 163 634 q 458 764 344 764 q 660 722 570 764 l 612 597 q 463 633 530 633 q 293 529 361 633 q 225 272 225 425 q 263 156 225 197 q 368 115 301 115 q 462 130 418 115 q 550 167 506 145 l 550 35 q 343 -14 455 -14 m 687 842 l 584 842 q 475 962 532 884 q 315 842 386 888 l 203 842 l 203 859 q 340 991 297 945 q 401 1064 382 1037 l 569 1064 q 687 859 595 997 l 687 842 z "},"Ċ":{"ha":831,"x_min":92,"x_max":890,"o":"m 627 867 q 440 806 522 867 q 309 630 358 746 q 260 376 260 515 q 316 190 260 254 q 481 125 372 125 q 704 171 576 125 l 704 32 q 450 -14 582 -14 q 187 87 282 -14 q 92 370 92 188 q 163 697 92 546 q 354 927 235 848 q 627 1006 473 1006 q 890 943 774 1006 l 827 811 q 736 850 784 834 q 627 867 688 867 m 541 1164 q 567 1238 541 1210 q 642 1267 593 1267 q 700 1249 677 1267 q 722 1194 722 1231 q 695 1118 722 1146 q 623 1090 667 1090 q 564 1108 588 1090 q 541 1164 541 1126 z "},"ċ":{"ha":647,"x_min":64,"x_max":660,"o":"m 343 -14 q 137 58 210 -14 q 64 264 64 130 q 114 519 64 404 q 254 699 163 634 q 458 764 344 764 q 660 722 570 764 l 612 597 q 463 633 530 633 q 293 529 361 633 q 225 272 225 425 q 263 156 225 197 q 368 115 301 115 q 462 130 418 115 q 550 167 506 145 l 550 35 q 343 -14 455 -14 m 384 935 q 410 1009 384 981 q 485 1038 437 1038 q 543 1020 521 1038 q 566 965 566 1002 q 538 889 566 917 q 467 861 511 861 q 408 879 431 861 q 384 935 384 897 z "},"Č":{"ha":831,"x_min":92,"x_max":890,"o":"m 627 867 q 440 806 522 867 q 309 630 358 746 q 260 376 260 515 q 316 190 260 254 q 481 125 372 125 q 704 171 576 125 l 704 32 q 450 -14 582 -14 q 187 87 282 -14 q 92 370 92 188 q 163 697 92 546 q 354 927 235 848 q 627 1006 473 1006 q 890 943 774 1006 l 827 811 q 736 850 784 834 q 627 867 688 867 m 389 1293 l 490 1293 q 600 1173 537 1254 q 762 1293 685 1244 l 871 1293 l 871 1275 q 757 1165 817 1227 q 674 1071 696 1103 l 506 1071 q 389 1275 476 1145 l 389 1293 z "},"č":{"ha":647,"x_min":64,"x_max":723,"o":"m 343 -14 q 137 58 210 -14 q 64 264 64 130 q 114 519 64 404 q 254 699 163 634 q 458 764 344 764 q 660 722 570 764 l 612 597 q 463 633 530 633 q 293 529 361 633 q 225 272 225 425 q 263 156 225 197 q 368 115 301 115 q 462 130 418 115 q 550 167 506 145 l 550 35 q 343 -14 455 -14 m 241 1064 l 342 1064 q 452 943 389 1025 q 613 1064 536 1015 l 723 1064 l 723 1046 q 608 936 669 998 q 526 842 548 873 l 357 842 q 241 1046 328 916 l 241 1064 z "},"Ď":{"ha":932,"x_min":47,"x_max":889,"o":"m 889 606 q 821 285 889 422 q 624 74 753 148 q 319 0 494 0 l 47 0 l 257 991 l 507 991 q 790 893 691 991 q 889 606 889 795 m 328 136 q 537 195 448 136 q 674 359 627 253 q 722 600 722 465 q 663 790 722 725 q 489 856 603 856 l 390 856 l 236 136 l 328 136 m 349 1293 l 450 1293 q 559 1173 496 1254 q 721 1293 644 1244 l 831 1293 l 831 1275 q 716 1165 777 1227 q 633 1071 656 1103 l 465 1071 q 349 1275 435 1145 l 349 1293 z "},"ď":{"ha":812,"x_min":64,"x_max":1105,"o":"m 422 764 q 604 643 544 764 l 610 643 q 635 812 618 742 l 686 1055 l 844 1055 l 621 0 l 496 0 l 509 119 l 504 119 q 389 17 444 47 q 271 -14 333 -14 q 119 55 174 -14 q 64 250 64 124 q 112 510 64 389 q 242 697 161 631 q 422 764 323 764 m 332 115 q 442 171 387 115 q 529 316 496 227 q 562 497 562 406 q 533 596 562 559 q 443 633 503 633 q 335 581 385 633 q 255 438 285 529 q 225 253 225 347 q 332 115 225 115 m 863 851 q 956 1055 917 949 l 1105 1055 l 1105 1042 q 1037 932 1083 995 q 954 833 991 869 l 863 833 l 863 851 z "},"Đ":{"ha":932,"x_min":36,"x_max":889,"o":"m 889 606 q 821 285 889 422 q 624 74 753 148 q 319 0 494 0 l 47 0 l 135 422 l 36 422 l 66 558 l 164 558 l 257 991 l 507 991 q 790 893 691 991 q 889 606 889 795 m 328 136 q 537 195 448 136 q 674 359 627 253 q 722 600 722 465 q 663 790 722 725 q 489 856 603 856 l 390 856 l 326 558 l 519 558 l 489 422 l 297 422 l 236 136 l 328 136 z "},"đ":{"ha":812,"x_min":64,"x_max":922,"o":"m 416 746 q 602 631 541 746 l 607 631 q 623 753 610 682 l 637 827 l 411 827 l 433 937 l 661 937 l 686 1055 l 844 1055 l 819 937 l 922 937 l 899 827 l 796 827 l 621 0 l 496 0 l 509 119 l 504 119 q 392 18 448 50 q 273 -14 336 -14 q 119 57 174 -14 q 64 250 64 127 q 109 497 64 380 q 235 680 155 614 q 416 746 315 746 m 334 115 q 440 168 388 115 q 527 307 493 220 q 561 484 561 393 q 532 579 561 543 q 441 615 504 615 q 333 565 382 615 q 254 431 283 515 q 225 253 225 346 q 334 115 225 115 z "},"Ē":{"ha":730,"x_min":47,"x_max":783,"o":"m 574 0 l 47 0 l 257 991 l 783 991 l 754 852 l 389 852 l 332 585 l 672 585 l 644 447 l 302 447 l 237 138 l 603 138 l 574 0 m 353 1190 l 747 1190 l 722 1071 l 328 1071 l 353 1190 z "},"ē":{"ha":729,"x_min":64,"x_max":690,"o":"m 450 642 q 328 583 385 642 q 245 429 271 525 l 265 429 q 465 466 393 429 q 536 568 536 502 q 515 622 536 603 q 450 642 493 642 m 347 -14 q 139 62 214 -14 q 64 272 64 137 q 116 522 64 406 q 259 701 169 637 q 460 764 349 764 q 630 714 569 764 q 690 575 690 665 q 577 382 690 452 q 256 313 465 313 l 227 313 l 225 292 l 225 272 q 263 154 225 197 q 378 111 302 111 q 475 124 427 111 q 589 168 523 137 l 589 41 q 469 -1 524 12 q 347 -14 414 -14 m 296 961 l 690 961 l 665 842 l 271 842 l 296 961 z "},"Ĕ":{"ha":730,"x_min":47,"x_max":783,"o":"m 574 0 l 47 0 l 257 991 l 783 991 l 754 852 l 389 852 l 332 585 l 672 585 l 644 447 l 302 447 l 237 138 l 603 138 l 574 0 m 775 1276 q 694 1121 754 1171 q 530 1071 633 1071 q 389 1116 440 1071 q 338 1239 338 1160 q 340 1276 338 1263 l 432 1276 q 457 1213 432 1234 q 541 1192 481 1192 q 632 1213 600 1192 q 675 1276 665 1234 l 775 1276 z "},"ĕ":{"ha":729,"x_min":64,"x_max":722,"o":"m 450 642 q 328 583 385 642 q 245 429 271 525 l 265 429 q 465 466 393 429 q 536 568 536 502 q 515 622 536 603 q 450 642 493 642 m 347 -14 q 139 62 214 -14 q 64 272 64 137 q 116 522 64 406 q 259 701 169 637 q 460 764 349 764 q 630 714 569 764 q 690 575 690 665 q 577 382 690 452 q 256 313 465 313 l 227 313 l 225 292 l 225 272 q 263 154 225 197 q 378 111 302 111 q 475 124 427 111 q 589 168 523 137 l 589 41 q 469 -1 524 12 q 347 -14 414 -14 m 722 1047 q 640 892 701 942 q 477 842 580 842 q 335 886 387 842 q 284 1010 284 931 q 287 1047 284 1034 l 378 1047 q 403 983 378 1004 q 487 962 428 962 q 579 983 547 962 q 621 1047 611 1004 l 722 1047 z "},"Ė":{"ha":730,"x_min":47,"x_max":783,"o":"m 574 0 l 47 0 l 257 991 l 783 991 l 754 852 l 389 852 l 332 585 l 672 585 l 644 447 l 302 447 l 237 138 l 603 138 l 574 0 m 438 1144 q 465 1219 438 1190 q 539 1247 491 1247 q 597 1229 575 1247 q 620 1175 620 1211 q 592 1099 620 1126 q 521 1071 565 1071 q 462 1088 486 1071 q 438 1144 438 1106 z "},"ė":{"ha":729,"x_min":64,"x_max":690,"o":"m 450 642 q 328 583 385 642 q 245 429 271 525 l 265 429 q 465 466 393 429 q 536 568 536 502 q 515 622 536 603 q 450 642 493 642 m 347 -14 q 139 62 214 -14 q 64 272 64 137 q 116 522 64 406 q 259 701 169 637 q 460 764 349 764 q 630 714 569 764 q 690 575 690 665 q 577 382 690 452 q 256 313 465 313 l 227 313 l 225 292 l 225 272 q 263 154 225 197 q 378 111 302 111 q 475 124 427 111 q 589 168 523 137 l 589 41 q 469 -1 524 12 q 347 -14 414 -14 m 391 935 q 417 1009 391 981 q 492 1038 444 1038 q 550 1020 528 1038 q 572 965 572 1002 q 545 889 572 917 q 473 861 517 861 q 414 879 438 861 q 391 935 391 897 z "},"Ę":{"ha":730,"x_min":47,"x_max":783,"o":"m 574 0 l 47 0 l 257 991 l 783 991 l 754 852 l 389 852 l 332 585 l 672 585 l 644 447 l 302 447 l 237 138 l 603 138 l 574 0 m 524 0 q 421 -99 448 -60 q 395 -172 395 -138 q 406 -205 395 -194 q 437 -216 418 -216 q 500 -207 463 -216 l 500 -302 q 407 -317 456 -317 q 308 -285 345 -317 q 271 -196 271 -253 q 303 -96 271 -141 q 416 0 335 -50 l 524 0 z "},"ę":{"ha":729,"x_min":64,"x_max":690,"o":"m 450 642 q 328 583 385 642 q 245 429 271 525 l 265 429 q 465 466 393 429 q 536 568 536 502 q 515 622 536 603 q 450 642 493 642 m 347 -14 q 139 62 214 -14 q 64 272 64 137 q 116 522 64 406 q 259 701 169 637 q 460 764 349 764 q 630 714 569 764 q 690 575 690 665 q 577 382 690 452 q 256 313 465 313 l 227 313 l 225 292 l 225 272 q 263 154 225 197 q 378 111 302 111 q 475 124 427 111 q 589 168 523 137 l 589 41 q 469 -1 524 12 q 347 -14 414 -14 m 481 17 q 379 -82 406 -43 q 352 -155 352 -121 q 363 -188 352 -177 q 395 -199 375 -199 q 457 -190 420 -199 l 457 -286 q 364 -300 413 -300 q 265 -268 302 -300 q 228 -179 228 -236 q 260 -79 228 -124 q 374 17 292 -33 l 481 17 z "},"Ě":{"ha":730,"x_min":47,"x_max":799,"o":"m 574 0 l 47 0 l 257 991 l 783 991 l 754 852 l 389 852 l 332 585 l 672 585 l 644 447 l 302 447 l 237 138 l 603 138 l 574 0 m 317 1293 l 418 1293 q 528 1173 465 1254 q 689 1293 612 1244 l 799 1293 l 799 1275 q 684 1165 745 1227 q 602 1071 624 1103 l 433 1071 q 317 1275 404 1145 l 317 1293 z "},"ě":{"ha":729,"x_min":64,"x_max":743,"o":"m 450 642 q 328 583 385 642 q 245 429 271 525 l 265 429 q 465 466 393 429 q 536 568 536 502 q 515 622 536 603 q 450 642 493 642 m 347 -14 q 139 62 214 -14 q 64 272 64 137 q 116 522 64 406 q 259 701 169 637 q 460 764 349 764 q 630 714 569 764 q 690 575 690 665 q 577 382 690 452 q 256 313 465 313 l 227 313 l 225 292 l 225 272 q 263 154 225 197 q 378 111 302 111 q 475 124 427 111 q 589 168 523 137 l 589 41 q 469 -1 524 12 q 347 -14 414 -14 m 260 1064 l 361 1064 q 471 943 408 1025 q 633 1064 556 1015 l 743 1064 l 743 1046 q 628 936 688 998 q 545 842 568 873 l 377 842 q 260 1046 347 916 l 260 1064 z "},"Ĝ":{"ha":949,"x_min":92,"x_max":930,"o":"m 533 538 l 880 538 l 774 39 q 626 -1 698 12 q 464 -14 553 -14 q 189 85 287 -14 q 92 366 92 184 q 161 693 92 545 q 358 924 231 842 q 647 1006 485 1006 q 791 992 722 1006 q 930 945 861 978 l 869 807 q 643 865 751 865 q 448 804 536 865 q 310 629 361 743 q 260 376 260 515 q 320 189 260 252 q 492 125 380 125 q 637 147 566 125 l 692 399 l 504 399 l 533 538 m 857 1071 l 754 1071 q 645 1192 703 1114 q 485 1071 556 1117 l 374 1071 l 374 1088 q 510 1220 467 1175 q 571 1293 553 1266 l 739 1293 q 857 1088 765 1226 l 857 1071 z "},"ĝ":{"ha":724,"x_min":-82,"x_max":775,"o":"m 775 750 l 754 657 l 624 635 q 643 542 643 595 q 562 334 643 411 q 346 257 481 257 q 283 262 311 257 q 208 192 208 235 q 230 157 208 166 q 292 142 251 147 l 378 131 q 549 72 497 116 q 600 -56 600 27 q 498 -261 600 -189 q 207 -334 395 -334 q -6 -283 69 -334 q -82 -143 -82 -232 q -35 -22 -82 -73 q 117 64 12 28 q 65 150 65 94 q 97 231 65 197 q 196 297 128 265 q 104 468 104 352 q 188 682 104 601 q 407 764 271 764 q 515 750 461 764 l 775 750 m 220 12 q 103 -36 144 0 q 62 -125 62 -72 q 100 -195 62 -169 q 215 -221 138 -221 q 388 -184 326 -221 q 450 -79 450 -148 q 420 -25 450 -45 q 313 3 389 -5 l 220 12 m 403 657 q 326 631 359 657 q 274 560 292 605 q 256 461 256 515 q 280 387 256 413 q 349 361 304 361 q 425 387 393 361 q 475 460 457 414 q 493 561 493 506 q 403 657 493 657 m 725 842 l 622 842 q 513 962 570 884 q 353 842 424 888 l 241 842 l 241 859 q 378 991 335 945 q 439 1064 420 1037 l 607 1064 q 725 859 633 997 l 725 842 z "},"Ğ":{"ha":949,"x_min":92,"x_max":930,"o":"m 533 538 l 880 538 l 774 39 q 626 -1 698 12 q 464 -14 553 -14 q 189 85 287 -14 q 92 366 92 184 q 161 693 92 545 q 358 924 231 842 q 647 1006 485 1006 q 791 992 722 1006 q 930 945 861 978 l 869 807 q 643 865 751 865 q 448 804 536 865 q 310 629 361 743 q 260 376 260 515 q 320 189 260 252 q 492 125 380 125 q 637 147 566 125 l 692 399 l 504 399 l 533 538 m 860 1276 q 779 1121 839 1171 q 615 1071 718 1071 q 474 1116 525 1071 q 422 1239 422 1160 q 425 1276 422 1263 l 517 1276 q 542 1213 517 1234 q 625 1192 566 1192 q 717 1213 685 1192 q 760 1276 749 1234 l 860 1276 z "},"ğ":{"ha":724,"x_min":-82,"x_max":775,"o":"m 775 750 l 754 657 l 624 635 q 643 542 643 595 q 562 334 643 411 q 346 257 481 257 q 283 262 311 257 q 208 192 208 235 q 230 157 208 166 q 292 142 251 147 l 378 131 q 549 72 497 116 q 600 -56 600 27 q 498 -261 600 -189 q 207 -334 395 -334 q -6 -283 69 -334 q -82 -143 -82 -232 q -35 -22 -82 -73 q 117 64 12 28 q 65 150 65 94 q 97 231 65 197 q 196 297 128 265 q 104 468 104 352 q 188 682 104 601 q 407 764 271 764 q 515 750 461 764 l 775 750 m 220 12 q 103 -36 144 0 q 62 -125 62 -72 q 100 -195 62 -169 q 215 -221 138 -221 q 388 -184 326 -221 q 450 -79 450 -148 q 420 -25 450 -45 q 313 3 389 -5 l 220 12 m 403 657 q 326 631 359 657 q 274 560 292 605 q 256 461 256 515 q 280 387 256 413 q 349 361 304 361 q 425 387 393 361 q 475 460 457 414 q 493 561 493 506 q 403 657 493 657 m 722 1047 q 640 892 701 942 q 477 842 580 842 q 335 886 387 842 q 284 1010 284 931 q 287 1047 284 1034 l 378 1047 q 403 983 378 1004 q 487 962 428 962 q 579 983 547 962 q 621 1047 611 1004 l 722 1047 z "},"Ġ":{"ha":949,"x_min":92,"x_max":930,"o":"m 533 538 l 880 538 l 774 39 q 626 -1 698 12 q 464 -14 553 -14 q 189 85 287 -14 q 92 366 92 184 q 161 693 92 545 q 358 924 231 842 q 647 1006 485 1006 q 791 992 722 1006 q 930 945 861 978 l 869 807 q 643 865 751 865 q 448 804 536 865 q 310 629 361 743 q 260 376 260 515 q 320 189 260 252 q 492 125 380 125 q 637 147 566 125 l 692 399 l 504 399 l 533 538 m 546 1164 q 572 1238 546 1210 q 647 1267 599 1267 q 705 1249 683 1267 q 728 1194 728 1231 q 700 1118 728 1146 q 629 1090 673 1090 q 570 1108 593 1090 q 546 1164 546 1126 z "},"ġ":{"ha":724,"x_min":-82,"x_max":775,"o":"m 775 750 l 754 657 l 624 635 q 643 542 643 595 q 562 334 643 411 q 346 257 481 257 q 283 262 311 257 q 208 192 208 235 q 230 157 208 166 q 292 142 251 147 l 378 131 q 549 72 497 116 q 600 -56 600 27 q 498 -261 600 -189 q 207 -334 395 -334 q -6 -283 69 -334 q -82 -143 -82 -232 q -35 -22 -82 -73 q 117 64 12 28 q 65 150 65 94 q 97 231 65 197 q 196 297 128 265 q 104 468 104 352 q 188 682 104 601 q 407 764 271 764 q 515 750 461 764 l 775 750 m 220 12 q 103 -36 144 0 q 62 -125 62 -72 q 100 -195 62 -169 q 215 -221 138 -221 q 388 -184 326 -221 q 450 -79 450 -148 q 420 -25 450 -45 q 313 3 389 -5 l 220 12 m 403 657 q 326 631 359 657 q 274 560 292 605 q 256 461 256 515 q 280 387 256 413 q 349 361 304 361 q 425 387 393 361 q 475 460 457 414 q 493 561 493 506 q 403 657 493 657 m 414 935 q 441 1009 414 981 q 515 1038 467 1038 q 574 1020 551 1038 q 596 965 596 1002 q 569 889 596 917 q 497 861 541 861 q 438 879 462 861 q 414 935 414 897 z "},"Ģ":{"ha":949,"x_min":92,"x_max":930,"o":"m 533 538 l 880 538 l 774 39 q 626 -1 698 12 q 464 -14 553 -14 q 189 85 287 -14 q 92 366 92 184 q 161 693 92 545 q 358 924 231 842 q 647 1006 485 1006 q 791 992 722 1006 q 930 945 861 978 l 869 807 q 643 865 751 865 q 448 804 536 865 q 310 629 361 743 q 260 376 260 515 q 320 189 260 252 q 492 125 380 125 q 637 147 566 125 l 692 399 l 504 399 l 533 538 m 292 -289 q 383 -85 351 -183 l 534 -85 l 534 -98 q 471 -202 514 -142 q 383 -307 427 -261 l 292 -307 l 292 -289 z "},"ģ":{"ha":724,"x_min":-82,"x_max":775,"o":"m 775 750 l 754 657 l 624 635 q 643 542 643 595 q 562 334 643 411 q 346 257 481 257 q 283 262 311 257 q 208 192 208 235 q 230 157 208 166 q 292 142 251 147 l 378 131 q 549 72 497 116 q 600 -56 600 27 q 498 -261 600 -189 q 207 -334 395 -334 q -6 -283 69 -334 q -82 -143 -82 -232 q -35 -22 -82 -73 q 117 64 12 28 q 65 150 65 94 q 97 231 65 197 q 196 297 128 265 q 104 468 104 352 q 188 682 104 601 q 407 764 271 764 q 515 750 461 764 l 775 750 m 220 12 q 103 -36 144 0 q 62 -125 62 -72 q 100 -195 62 -169 q 215 -221 138 -221 q 388 -184 326 -221 q 450 -79 450 -148 q 420 -25 450 -45 q 313 3 389 -5 l 220 12 m 403 657 q 326 631 359 657 q 274 560 292 605 q 256 461 256 515 q 280 387 256 413 q 349 361 304 361 q 425 387 393 361 q 475 460 457 414 q 493 561 493 506 q 403 657 493 657 m 652 1046 q 559 842 586 923 l 408 842 l 408 856 q 472 958 429 898 q 559 1064 515 1018 l 652 1064 l 652 1046 z "},"Ĥ":{"ha":957,"x_min":47,"x_max":962,"o":"m 753 0 l 591 0 l 686 447 l 302 447 l 208 0 l 47 0 l 257 991 l 418 991 l 332 586 l 715 586 l 802 991 l 962 991 l 753 0 m 848 1071 l 745 1071 q 636 1192 694 1114 q 476 1071 547 1117 l 365 1071 l 365 1088 q 501 1220 458 1175 q 562 1293 544 1266 l 730 1293 q 848 1088 756 1226 l 848 1071 z "},"ĥ":{"ha":819,"x_min":32,"x_max":771,"o":"m 476 0 l 572 456 q 585 542 585 517 q 497 633 585 633 q 355 549 421 633 q 258 317 289 464 l 192 0 l 32 0 l 256 1055 l 415 1055 l 376 878 q 327 679 358 792 l 314 628 l 319 628 q 434 732 376 700 q 554 764 491 764 q 695 711 646 764 q 745 561 745 659 q 729 443 745 509 l 635 0 l 476 0 m 771 1108 l 668 1108 q 559 1229 616 1151 q 399 1108 470 1154 l 288 1108 l 288 1125 q 424 1258 381 1212 q 485 1331 467 1303 l 653 1331 q 771 1125 679 1263 l 771 1108 z "},"Ħ":{"ha":957,"x_min":47,"x_max":1055,"o":"m 932 840 l 1055 840 l 1032 725 l 907 725 l 754 0 l 591 0 l 686 447 l 302 447 l 208 0 l 47 0 l 200 725 l 77 725 l 102 840 l 225 840 l 257 991 l 418 991 l 386 840 l 770 840 l 802 991 l 964 991 l 932 840 m 715 586 l 745 725 l 361 725 l 332 586 l 715 586 z "},"ħ":{"ha":819,"x_min":32,"x_max":737,"o":"m 476 0 l 568 431 q 579 517 579 479 q 497 606 579 606 q 398 567 448 606 q 310 457 348 528 q 253 293 271 386 l 192 0 l 32 0 l 208 827 l 102 827 l 126 937 l 231 937 l 256 1055 l 415 1055 l 390 937 l 610 937 l 586 827 l 367 827 l 310 604 l 315 604 q 429 708 372 676 q 549 739 486 739 q 737 526 737 739 q 724 418 737 488 l 635 0 l 476 0 z "},"ĩ":{"ha":382,"x_min":32,"x_max":573,"o":"m 192 0 l 32 0 l 192 750 l 351 750 l 192 0 m 397 842 q 341 853 366 842 q 292 879 315 865 q 248 904 269 892 q 205 916 227 916 q 162 897 179 916 q 133 840 145 878 l 40 840 q 214 1034 79 1034 q 271 1022 245 1034 q 320 996 298 1010 q 363 970 343 982 q 404 958 384 958 q 448 976 431 958 q 480 1035 465 994 l 573 1035 q 397 842 528 842 z "},"ī":{"ha":382,"x_min":32,"x_max":507,"o":"m 192 0 l 32 0 l 192 750 l 351 750 l 192 0 m 112 961 l 507 961 l 481 842 l 87 842 l 112 961 z "},"ĭ":{"ha":382,"x_min":32,"x_max":536,"o":"m 192 0 l 32 0 l 192 750 l 351 750 l 192 0 m 536 1047 q 454 892 515 942 q 291 842 394 842 q 150 886 201 842 q 98 1010 98 931 q 101 1047 98 1034 l 193 1047 q 217 983 193 1004 q 301 962 242 962 q 393 983 361 962 q 435 1047 425 1004 l 536 1047 z "},"į":{"ha":382,"x_min":-61,"x_max":406,"o":"m 224 935 q 250 1009 224 981 q 325 1038 277 1038 q 383 1020 361 1038 q 406 965 406 1002 q 378 889 406 917 q 307 861 351 861 q 248 879 271 861 q 224 935 224 897 m 192 0 l 32 0 l 192 750 l 351 750 l 192 0 m 192 0 q 90 -99 117 -60 q 63 -172 63 -138 q 75 -205 63 -194 q 106 -216 86 -216 q 168 -207 132 -216 l 168 -302 q 75 -317 124 -317 q -24 -285 14 -317 q -61 -196 -61 -253 q -29 -96 -61 -141 q 85 0 3 -50 l 192 0 z "},"ı":{"ha":382,"x_min":32,"x_max":351,"o":"m 192 0 l 32 0 l 192 750 l 351 750 l 192 0 z "},"ĳ":{"ha":765,"x_min":32,"x_max":787,"o":"m 224 935 q 250 1009 224 981 q 325 1038 277 1038 q 383 1020 361 1038 q 406 965 406 1002 q 378 889 406 917 q 307 861 351 861 q 248 879 271 861 q 224 935 224 897 m 192 0 l 32 0 l 192 750 l 351 750 l 192 0 m 305 -334 q 204 -318 244 -334 l 204 -189 q 283 -203 248 -203 q 399 -77 372 -203 l 575 750 l 733 750 l 553 -96 q 466 -276 527 -218 q 305 -334 406 -334 m 607 935 q 633 1009 607 981 q 707 1038 659 1038 q 765 1020 743 1038 q 787 965 787 1002 q 760 889 787 917 q 689 861 733 861 q 630 879 653 861 q 607 935 607 896 z "},"Ĵ":{"ha":415,"x_min":-218,"x_max":592,"o":"m -103 -277 q -218 -260 -174 -277 l -215 -123 q -111 -138 -158 -138 q 61 32 25 -138 l 264 991 l 425 991 l 218 11 q 109 -207 187 -136 q -103 -277 31 -277 m 592 1071 l 489 1071 q 380 1192 437 1114 q 220 1071 291 1117 l 109 1071 l 109 1088 q 245 1220 202 1175 q 306 1293 288 1266 l 474 1293 q 592 1088 500 1226 l 592 1071 z "},"ĵ":{"ha":382,"x_min":-176,"x_max":522,"o":"m -77 -334 q -176 -318 -140 -334 l -176 -189 q -97 -203 -134 -203 q 18 -77 -8 -203 l 193 750 l 351 750 l 172 -96 q 85 -276 146 -219 q -77 -334 24 -334 m 522 842 l 418 842 q 309 962 367 884 q 149 842 220 888 l 38 842 l 38 859 q 174 991 132 945 q 235 1064 217 1037 l 404 1064 q 522 859 429 997 l 522 842 z "},"Ķ":{"ha":812,"x_min":47,"x_max":937,"o":"m 737 0 l 559 0 l 389 444 l 288 376 l 208 0 l 47 0 l 257 991 l 418 991 l 315 513 l 411 625 l 745 991 l 937 991 l 519 538 l 737 0 m 204 -289 q 296 -85 263 -183 l 446 -85 l 446 -98 q 383 -202 427 -142 q 296 -307 340 -261 l 204 -307 l 204 -289 z "},"ķ":{"ha":733,"x_min":32,"x_max":786,"o":"m 602 750 l 786 750 l 458 421 l 656 0 l 478 0 l 336 319 l 244 254 l 192 0 l 32 0 l 256 1055 l 415 1055 q 307 561 323 630 q 267 407 290 491 l 269 407 l 602 750 m 159 -289 q 251 -85 218 -183 l 401 -85 l 401 -98 q 338 -202 382 -142 q 251 -307 295 -261 l 159 -307 l 159 -289 z "},"ĸ":{"ha":733,"x_min":32,"x_max":786,"o":"m 268 406 l 602 750 l 786 750 l 458 421 l 656 0 l 478 0 l 336 319 l 244 254 l 192 0 l 32 0 l 191 750 l 350 750 l 311 572 q 265 406 302 536 l 268 406 z "},"Ĺ":{"ha":689,"x_min":47,"x_max":617,"o":"m 47 0 l 257 991 l 418 991 l 237 139 l 603 139 l 574 0 l 47 0 m 286 1088 q 438 1293 351 1161 l 617 1293 l 617 1280 q 510 1171 581 1236 q 391 1071 439 1106 l 286 1071 l 286 1088 z "},"ĺ":{"ha":382,"x_min":32,"x_max":600,"o":"m 191 0 l 32 0 l 256 1055 l 415 1055 l 191 0 m 269 1126 q 421 1332 334 1200 l 600 1332 l 600 1319 q 493 1210 564 1274 q 374 1109 422 1145 l 269 1109 l 269 1126 z "},"Ļ":{"ha":689,"x_min":47,"x_max":603,"o":"m 47 0 l 257 991 l 418 991 l 237 139 l 603 139 l 574 0 l 47 0 m 170 -289 q 261 -85 229 -183 l 412 -85 l 412 -98 q 349 -202 392 -142 q 261 -307 305 -261 l 170 -307 l 170 -289 z "},"ļ":{"ha":382,"x_min":-66,"x_max":415,"o":"m 191 0 l 32 0 l 256 1055 l 415 1055 l 191 0 m -66 -289 q 25 -85 -7 -183 l 176 -85 l 176 -98 q 113 -202 156 -142 q 25 -307 69 -261 l -66 -307 l -66 -289 z "},"Ľ":{"ha":689,"x_min":47,"x_max":762,"o":"m 47 0 l 257 991 l 418 991 l 237 139 l 603 139 l 574 0 l 47 0 m 519 788 q 612 992 574 886 l 762 992 l 762 979 q 694 869 740 932 q 611 770 648 806 l 519 770 l 519 788 z "},"ľ":{"ha":382,"x_min":32,"x_max":675,"o":"m 191 0 l 32 0 l 256 1055 l 415 1055 l 191 0 m 432 851 q 525 1055 486 949 l 675 1055 l 675 1042 q 606 932 652 995 q 524 833 560 869 l 432 833 l 432 851 z "},"Ŀ":{"ha":689,"x_min":47,"x_max":649,"o":"m 47 0 l 257 991 l 418 991 l 237 139 l 603 139 l 574 0 l 47 0 m 467 486 q 494 561 467 532 q 568 589 520 589 q 627 571 604 589 q 649 517 649 553 q 622 441 649 469 q 550 413 594 413 q 491 431 515 413 q 467 486 467 448 z "},"ŀ":{"ha":497,"x_min":32,"x_max":555,"o":"m 191 0 l 32 0 l 256 1055 l 415 1055 l 191 0 m 374 477 q 400 551 374 523 q 475 580 427 580 q 533 562 511 580 q 555 507 555 544 q 528 431 555 459 q 456 404 500 404 q 397 421 421 404 q 374 477 374 439 z "},"Ł":{"ha":689,"x_min":7,"x_max":603,"o":"m 47 0 l 119 335 l 62 302 l 7 408 l 151 488 l 257 991 l 418 991 l 334 589 l 461 661 l 518 555 l 300 435 l 237 139 l 603 139 l 574 0 l 47 0 z "},"ł":{"ha":400,"x_min":1,"x_max":446,"o":"m 328 612 l 392 650 l 446 546 l 294 460 l 197 0 l 39 0 l 115 359 l 56 325 l 1 429 l 147 513 l 264 1055 l 421 1055 l 328 612 z "},"Ń":{"ha":1011,"x_min":46,"x_max":1018,"o":"m 808 0 l 632 0 l 354 789 l 350 789 l 343 742 q 319 598 327 641 q 195 0 311 555 l 46 0 l 256 991 l 437 991 l 708 212 l 713 212 q 734 343 717 249 q 761 481 751 437 l 869 991 l 1018 991 l 808 0 m 572 1088 q 725 1293 638 1161 l 904 1293 l 904 1280 q 797 1171 867 1236 q 678 1071 726 1106 l 572 1071 l 572 1088 z "},"ń":{"ha":819,"x_min":32,"x_max":753,"o":"m 476 0 l 572 456 q 585 545 585 517 q 497 633 585 633 q 401 595 448 633 q 315 483 353 556 q 258 318 277 410 l 192 0 l 32 0 l 192 750 l 317 750 l 302 611 l 309 611 q 425 727 365 691 q 554 764 484 764 q 695 712 645 764 q 745 566 745 661 q 729 443 745 519 l 636 0 l 476 0 m 421 859 q 574 1064 487 932 l 753 1064 l 753 1051 q 646 942 716 1006 q 527 842 575 877 l 421 842 l 421 859 z "},"Ņ":{"ha":1011,"x_min":46,"x_max":1018,"o":"m 808 0 l 632 0 l 354 789 l 350 789 l 343 742 q 319 598 327 641 q 195 0 311 555 l 46 0 l 256 991 l 437 991 l 708 212 l 713 212 q 734 343 717 249 q 761 481 751 437 l 869 991 l 1018 991 l 808 0 m 258 -289 q 350 -85 317 -183 l 500 -85 l 500 -98 q 437 -202 481 -142 q 350 -307 394 -261 l 258 -307 l 258 -289 z "},"ņ":{"ha":819,"x_min":32,"x_max":745,"o":"m 476 0 l 572 456 q 585 545 585 517 q 497 633 585 633 q 401 595 448 633 q 315 483 353 556 q 258 318 277 410 l 192 0 l 32 0 l 192 750 l 317 750 l 302 611 l 309 611 q 425 727 365 691 q 554 764 484 764 q 695 712 645 764 q 745 566 745 661 q 729 443 745 519 l 636 0 l 476 0 m 162 -289 q 254 -85 221 -183 l 404 -85 l 404 -98 q 341 -202 385 -142 q 254 -307 298 -261 l 162 -307 l 162 -289 z "},"Ň":{"ha":1011,"x_min":46,"x_max":1018,"o":"m 808 0 l 632 0 l 354 789 l 350 789 l 343 742 q 319 598 327 641 q 195 0 311 555 l 46 0 l 256 991 l 437 991 l 708 212 l 713 212 q 734 343 717 249 q 761 481 751 437 l 869 991 l 1018 991 l 808 0 m 431 1293 l 532 1293 q 642 1173 578 1254 q 803 1293 726 1244 l 913 1293 l 913 1275 q 798 1165 859 1227 q 715 1071 738 1103 l 547 1071 q 431 1275 517 1145 l 431 1293 z "},"ň":{"ha":819,"x_min":32,"x_max":768,"o":"m 476 0 l 572 456 q 585 545 585 517 q 497 633 585 633 q 401 595 448 633 q 315 483 353 556 q 258 318 277 410 l 192 0 l 32 0 l 192 750 l 317 750 l 302 611 l 309 611 q 425 727 365 691 q 554 764 484 764 q 695 712 645 764 q 745 566 745 661 q 729 443 745 519 l 636 0 l 476 0 m 286 1064 l 387 1064 q 497 943 434 1025 q 659 1064 582 1015 l 768 1064 l 768 1046 q 654 936 714 998 q 571 842 593 873 l 403 842 q 286 1046 373 916 l 286 1064 z "},"ŉ":{"ha":921,"x_min":31,"x_max":844,"o":"m 576 0 l 672 456 q 684 545 684 517 q 597 633 684 633 q 500 595 548 633 q 415 483 453 556 q 358 318 377 410 l 292 0 l 132 0 l 292 750 l 416 750 l 402 611 l 408 611 q 524 727 465 691 q 654 764 584 764 q 794 712 745 764 q 844 566 844 661 q 829 443 844 519 l 736 0 l 576 0 m 327 991 l 332 977 q 257 829 307 920 q 152 652 208 738 l 31 652 q 103 825 60 716 q 165 991 146 933 l 327 991 z "},"Ŋ":{"ha":1011,"x_min":46,"x_max":1018,"o":"m 489 -275 q 372 -258 416 -275 l 375 -121 q 479 -136 434 -136 q 656 0 619 -136 l 354 789 l 350 789 q 301 505 319 590 l 195 0 l 46 0 l 256 991 l 429 991 l 713 245 l 717 245 q 768 513 734 360 l 869 991 l 1018 991 l 808 0 q 699 -205 779 -136 q 489 -275 619 -275 z "},"ŋ":{"ha":819,"x_min":32,"x_max":745,"o":"m 367 -334 q 267 -318 315 -334 l 267 -187 q 346 -203 308 -203 q 460 -75 433 -203 l 572 456 q 585 545 585 517 q 497 633 585 633 q 401 595 448 633 q 315 483 353 556 q 258 318 277 410 l 192 0 l 32 0 l 192 750 l 317 750 l 302 611 l 309 611 q 425 727 365 691 q 554 764 484 764 q 695 712 645 764 q 745 566 745 661 q 729 443 745 526 l 624 -60 q 570 -222 601 -168 q 489 -306 538 -277 q 367 -334 439 -334 z "},"Ō":{"ha":1007,"x_min":92,"x_max":964,"o":"m 964 625 q 899 288 964 436 q 722 63 835 140 q 460 -14 609 -14 q 188 88 284 -14 q 92 368 92 189 q 158 699 92 549 q 341 928 225 848 q 604 1007 457 1007 q 869 906 774 1007 q 964 625 964 805 m 591 868 q 422 803 498 868 q 303 622 346 738 q 260 370 260 507 q 315 189 260 252 q 469 125 370 125 q 638 190 563 125 q 754 369 713 254 q 796 624 796 484 q 743 804 796 739 q 591 868 689 868 m 451 1190 l 846 1190 l 821 1071 l 426 1071 l 451 1190 z "},"ō":{"ha":796,"x_min":64,"x_max":732,"o":"m 571 476 q 538 590 571 549 q 443 631 505 631 q 330 582 380 631 q 253 451 280 534 q 225 273 225 368 q 259 158 225 198 q 358 118 292 118 q 468 164 419 118 q 544 293 517 210 q 571 476 571 376 m 732 469 q 682 220 732 332 q 546 48 633 108 q 347 -12 460 -12 q 140 65 217 -12 q 64 277 64 143 q 112 524 64 412 q 248 700 161 637 q 450 762 336 762 q 657 684 583 762 q 732 469 732 605 m 298 961 l 693 961 l 668 842 l 273 842 l 298 961 z "},"Ŏ":{"ha":1007,"x_min":92,"x_max":964,"o":"m 964 625 q 899 288 964 436 q 722 63 835 140 q 460 -14 609 -14 q 188 88 284 -14 q 92 368 92 189 q 158 699 92 549 q 341 928 225 848 q 604 1007 457 1007 q 869 906 774 1007 q 964 625 964 805 m 591 868 q 422 803 498 868 q 303 622 346 738 q 260 370 260 507 q 315 189 260 252 q 469 125 370 125 q 638 190 563 125 q 754 369 713 254 q 796 624 796 484 q 743 804 796 739 q 591 868 689 868 m 860 1276 q 779 1121 839 1171 q 615 1071 718 1071 q 474 1116 525 1071 q 422 1239 422 1160 q 425 1276 422 1263 l 517 1276 q 542 1213 517 1234 q 625 1192 566 1192 q 717 1213 685 1192 q 760 1276 749 1234 l 860 1276 z "},"ŏ":{"ha":796,"x_min":64,"x_max":732,"o":"m 571 476 q 538 590 571 549 q 443 631 505 631 q 330 582 380 631 q 253 451 280 534 q 225 273 225 368 q 259 158 225 198 q 358 118 292 118 q 468 164 419 118 q 544 293 517 210 q 571 476 571 376 m 732 469 q 682 220 732 332 q 546 48 633 108 q 347 -12 460 -12 q 140 65 217 -12 q 64 277 64 143 q 112 524 64 412 q 248 700 161 637 q 450 762 336 762 q 657 684 583 762 q 732 469 732 605 m 718 1047 q 636 892 696 942 q 473 842 576 842 q 331 886 382 842 q 280 1010 280 931 q 283 1047 280 1034 l 374 1047 q 399 983 374 1004 q 483 962 424 962 q 575 983 543 962 q 617 1047 607 1004 l 718 1047 z "},"Ő":{"ha":1007,"x_min":92,"x_max":1006,"o":"m 964 625 q 899 288 964 436 q 722 63 835 140 q 460 -14 609 -14 q 188 88 284 -14 q 92 368 92 189 q 158 699 92 549 q 341 928 225 848 q 604 1007 457 1007 q 869 906 774 1007 q 964 625 964 805 m 591 868 q 422 803 498 868 q 303 622 346 738 q 260 370 260 507 q 315 189 260 252 q 469 125 370 125 q 638 190 563 125 q 754 369 713 254 q 796 624 796 484 q 743 804 796 739 q 591 868 689 868 m 437 1088 q 527 1199 482 1138 q 593 1293 572 1260 l 755 1293 l 755 1280 q 652 1175 729 1246 q 526 1071 575 1104 l 437 1071 l 437 1088 m 688 1088 q 844 1293 768 1178 l 1006 1293 l 1006 1280 q 898 1171 970 1237 q 778 1071 826 1105 l 688 1071 l 688 1088 z "},"ő":{"ha":796,"x_min":64,"x_max":838,"o":"m 571 476 q 538 590 571 549 q 443 631 505 631 q 330 582 380 631 q 253 451 280 534 q 225 273 225 368 q 259 158 225 198 q 358 118 292 118 q 468 164 419 118 q 544 293 517 210 q 571 476 571 376 m 732 469 q 682 220 732 332 q 546 48 633 108 q 347 -12 460 -12 q 140 65 217 -12 q 64 277 64 143 q 112 524 64 412 q 248 700 161 637 q 450 762 336 762 q 657 684 583 762 q 732 469 732 605 m 269 859 q 359 970 314 909 q 425 1064 404 1031 l 587 1064 l 587 1051 q 484 946 561 1017 q 358 842 407 875 l 269 842 l 269 859 m 519 859 q 676 1064 600 949 l 838 1064 l 838 1051 q 730 942 802 1008 q 610 842 658 876 l 519 842 l 519 859 z "},"Œ":{"ha":1219,"x_min":92,"x_max":1271,"o":"m 1061 0 l 575 0 q 460 -14 518 -14 q 188 88 284 -14 q 92 368 92 189 q 158 699 92 549 q 341 928 225 848 q 604 1007 457 1007 q 755 991 703 1007 l 1271 991 l 1242 852 l 876 852 l 819 585 l 1161 585 l 1132 449 l 790 449 l 725 138 l 1090 138 l 1061 0 m 469 125 q 564 143 519 125 l 714 847 q 591 868 668 868 q 422 803 498 868 q 303 622 346 738 q 260 370 260 507 q 315 189 260 252 q 469 125 370 125 z "},"œ":{"ha":1213,"x_min":64,"x_max":1174,"o":"m 831 -14 q 687 18 749 -14 q 591 111 624 49 q 338 -12 498 -12 q 138 66 212 -12 q 64 278 64 144 q 114 531 64 418 q 250 703 163 644 q 449 762 336 762 q 676 632 610 762 q 794 729 726 694 q 947 764 863 764 q 1115 713 1055 764 q 1174 575 1174 663 q 1062 382 1174 451 q 742 313 949 313 l 710 313 l 708 272 q 746 154 708 197 q 861 111 785 111 q 952 123 908 111 q 1072 168 997 135 l 1072 40 q 954 -1 1010 11 q 831 -14 897 -14 m 439 631 q 332 587 380 631 q 255 461 284 544 q 225 279 225 378 q 258 159 225 201 q 353 118 291 118 q 508 217 450 118 q 567 476 567 317 q 533 591 567 551 q 439 631 500 631 m 940 642 q 810 584 869 642 q 728 429 751 526 l 749 429 q 948 466 877 429 q 1019 571 1019 503 q 999 623 1019 604 q 940 642 979 642 z "},"Ŕ":{"ha":818,"x_min":47,"x_max":799,"o":"m 292 396 l 208 0 l 47 0 l 257 991 l 486 991 q 718 927 637 991 q 799 730 799 863 q 740 542 799 618 q 566 429 682 465 l 734 0 l 558 0 l 418 396 l 292 396 m 321 530 l 404 530 q 576 581 519 530 q 633 721 633 632 q 593 823 633 792 q 469 854 553 854 l 389 854 l 321 530 m 449 1088 q 602 1293 515 1161 l 781 1293 l 781 1280 q 673 1171 744 1236 q 555 1071 603 1106 l 449 1071 l 449 1088 z "},"ŕ":{"ha":567,"x_min":32,"x_max":659,"o":"m 541 764 q 614 755 583 764 l 579 607 q 510 616 543 616 q 357 540 425 616 q 264 339 290 463 l 192 0 l 32 0 l 192 750 l 317 750 l 302 611 l 309 611 q 421 728 365 692 q 541 764 477 764 m 327 859 q 479 1064 393 932 l 659 1064 l 659 1051 q 551 942 622 1006 q 433 842 481 877 l 327 842 l 327 859 z "},"Ŗ":{"ha":818,"x_min":47,"x_max":799,"o":"m 292 396 l 208 0 l 47 0 l 257 991 l 486 991 q 718 927 637 991 q 799 730 799 863 q 740 542 799 618 q 566 429 682 465 l 734 0 l 558 0 l 418 396 l 292 396 m 321 530 l 404 530 q 576 581 519 530 q 633 721 633 632 q 593 823 633 792 q 469 854 553 854 l 389 854 l 321 530 m 207 -289 q 298 -85 266 -183 l 449 -85 l 449 -98 q 386 -202 429 -142 q 298 -307 342 -261 l 207 -307 l 207 -289 z "},"ŗ":{"ha":567,"x_min":-68,"x_max":614,"o":"m 541 764 q 614 755 583 764 l 579 607 q 510 616 543 616 q 357 540 425 616 q 264 339 290 463 l 192 0 l 32 0 l 192 750 l 317 750 l 302 611 l 309 611 q 421 728 365 692 q 541 764 477 764 m -68 -289 q 24 -85 -9 -183 l 174 -85 l 174 -98 q 111 -202 155 -142 q 24 -307 68 -261 l -68 -307 l -68 -289 z "},"Ř":{"ha":818,"x_min":47,"x_max":807,"o":"m 292 396 l 208 0 l 47 0 l 257 991 l 486 991 q 718 927 637 991 q 799 730 799 863 q 740 542 799 618 q 566 429 682 465 l 734 0 l 558 0 l 418 396 l 292 396 m 321 530 l 404 530 q 576 581 519 530 q 633 721 633 632 q 593 823 633 792 q 469 854 553 854 l 389 854 l 321 530 m 325 1293 l 426 1293 q 536 1173 473 1254 q 697 1293 621 1244 l 807 1293 l 807 1275 q 692 1165 753 1227 q 610 1071 632 1103 l 441 1071 q 325 1275 412 1145 l 325 1293 z "},"ř":{"ha":567,"x_min":32,"x_max":683,"o":"m 541 764 q 614 755 583 764 l 579 607 q 510 616 543 616 q 357 540 425 616 q 264 339 290 463 l 192 0 l 32 0 l 192 750 l 317 750 l 302 611 l 309 611 q 421 728 365 692 q 541 764 477 764 m 201 1064 l 302 1064 q 412 943 349 1025 q 573 1064 496 1015 l 683 1064 l 683 1046 q 568 936 629 998 q 486 842 508 873 l 317 842 q 201 1046 288 916 l 201 1064 z "},"Ś":{"ha":717,"x_min":26,"x_max":748,"o":"m 631 290 q 533 67 631 148 q 262 -14 435 -14 q 26 37 120 -14 l 26 189 q 264 123 144 123 q 410 163 357 123 q 464 273 464 203 q 436 356 464 320 q 319 449 408 393 q 214 532 248 494 q 162 613 180 569 q 144 711 144 658 q 186 865 144 798 q 304 969 228 932 q 476 1006 380 1006 q 734 943 615 1006 l 676 814 q 476 867 567 867 q 357 827 402 867 q 313 724 313 787 q 323 668 313 692 q 354 623 333 644 q 446 558 376 602 q 591 431 551 492 q 631 290 631 370 m 416 1088 q 569 1293 482 1161 l 748 1293 l 748 1280 q 641 1171 711 1236 q 522 1071 570 1106 l 416 1071 l 416 1088 z "},"ś":{"ha":625,"x_min":9,"x_max":648,"o":"m 530 231 q 450 50 530 113 q 228 -14 370 -14 q 9 32 99 -14 l 9 170 q 221 109 113 109 q 328 136 287 109 q 368 210 368 163 q 345 269 368 244 q 249 335 321 294 q 129 428 164 380 q 94 539 94 475 q 167 704 94 644 q 363 764 239 764 q 597 707 496 764 l 546 587 q 366 639 451 639 q 285 616 316 639 q 254 554 254 594 q 277 500 254 524 q 368 439 299 476 q 469 370 439 399 q 515 308 499 342 q 530 231 530 275 m 316 859 q 469 1064 382 932 l 648 1064 l 648 1051 q 541 942 611 1006 q 422 842 470 877 l 316 842 l 316 859 z "},"Ŝ":{"ha":717,"x_min":26,"x_max":734,"o":"m 631 290 q 533 67 631 148 q 262 -14 435 -14 q 26 37 120 -14 l 26 189 q 264 123 144 123 q 410 163 357 123 q 464 273 464 203 q 436 356 464 320 q 319 449 408 393 q 214 532 248 494 q 162 613 180 569 q 144 711 144 658 q 186 865 144 798 q 304 969 228 932 q 476 1006 380 1006 q 734 943 615 1006 l 676 814 q 476 867 567 867 q 357 827 402 867 q 313 724 313 787 q 323 668 313 692 q 354 623 333 644 q 446 558 376 602 q 591 431 551 492 q 631 290 631 370 m 725 1071 l 622 1071 q 513 1192 570 1114 q 353 1071 424 1117 l 241 1071 l 241 1088 q 378 1220 335 1175 q 439 1293 420 1266 l 607 1293 q 725 1088 633 1226 l 725 1071 z "},"ŝ":{"ha":625,"x_min":9,"x_max":621,"o":"m 530 231 q 450 50 530 113 q 228 -14 370 -14 q 9 32 99 -14 l 9 170 q 221 109 113 109 q 328 136 287 109 q 368 210 368 163 q 345 269 368 244 q 249 335 321 294 q 129 428 164 380 q 94 539 94 475 q 167 704 94 644 q 363 764 239 764 q 597 707 496 764 l 546 587 q 366 639 451 639 q 285 616 316 639 q 254 554 254 594 q 277 500 254 524 q 368 439 299 476 q 469 370 439 399 q 515 308 499 342 q 530 231 530 275 m 621 842 l 518 842 q 409 962 467 884 q 249 842 320 888 l 138 842 l 138 859 q 274 991 231 945 q 335 1064 317 1037 l 503 1064 q 621 859 529 997 l 621 842 z "},"Ş":{"ha":717,"x_min":26,"x_max":734,"o":"m 631 290 q 533 67 631 148 q 262 -14 435 -14 q 26 37 120 -14 l 26 189 q 264 123 144 123 q 410 163 357 123 q 464 273 464 203 q 436 356 464 320 q 319 449 408 393 q 214 532 248 494 q 162 613 180 569 q 144 711 144 658 q 186 865 144 798 q 304 969 228 932 q 476 1006 380 1006 q 734 943 615 1006 l 676 814 q 476 867 567 867 q 357 827 402 867 q 313 724 313 787 q 323 668 313 692 q 354 623 333 644 q 446 558 376 602 q 591 431 551 492 q 631 290 631 370 m 391 -179 q 335 -292 391 -251 q 183 -334 279 -334 q 103 -323 140 -334 l 103 -232 q 168 -241 135 -241 q 261 -176 261 -241 q 237 -135 261 -149 q 167 -114 214 -120 l 233 0 l 332 0 l 298 -65 q 369 -111 347 -82 q 391 -179 391 -139 z "},"ş":{"ha":625,"x_min":9,"x_max":597,"o":"m 530 231 q 450 50 530 113 q 228 -14 370 -14 q 9 32 99 -14 l 9 170 q 221 109 113 109 q 328 136 287 109 q 368 210 368 163 q 345 269 368 244 q 249 335 321 294 q 129 428 164 380 q 94 539 94 475 q 167 704 94 644 q 363 764 239 764 q 597 707 496 764 l 546 587 q 366 639 451 639 q 285 616 316 639 q 254 554 254 594 q 277 500 254 524 q 368 439 299 476 q 469 370 439 399 q 515 308 499 342 q 530 231 530 275 m 349 -179 q 294 -292 349 -251 q 142 -334 238 -334 q 62 -323 98 -334 l 62 -232 q 127 -241 94 -241 q 220 -176 220 -241 q 196 -135 220 -149 q 125 -114 172 -120 l 192 0 l 291 0 l 257 -65 q 328 -111 306 -82 q 349 -179 349 -139 z "},"Š":{"ha":717,"x_min":26,"x_max":748,"o":"m 631 290 q 533 67 631 148 q 262 -14 435 -14 q 26 37 120 -14 l 26 189 q 264 123 144 123 q 410 163 357 123 q 464 273 464 203 q 436 356 464 320 q 319 449 408 393 q 214 532 248 494 q 162 613 180 569 q 144 711 144 658 q 186 865 144 798 q 304 969 228 932 q 476 1006 380 1006 q 734 943 615 1006 l 676 814 q 476 867 567 867 q 357 827 402 867 q 313 724 313 787 q 323 668 313 692 q 354 623 333 644 q 446 558 376 602 q 591 431 551 492 q 631 290 631 370 m 266 1293 l 367 1293 q 477 1173 414 1254 q 638 1293 562 1244 l 748 1293 l 748 1275 q 633 1165 694 1227 q 551 1071 573 1103 l 382 1071 q 266 1275 353 1145 l 266 1293 z "},"š":{"ha":625,"x_min":9,"x_max":663,"o":"m 530 231 q 450 50 530 113 q 228 -14 370 -14 q 9 32 99 -14 l 9 170 q 221 109 113 109 q 328 136 287 109 q 368 210 368 163 q 345 269 368 244 q 249 335 321 294 q 129 428 164 380 q 94 539 94 475 q 167 704 94 644 q 363 764 239 764 q 597 707 496 764 l 546 587 q 366 639 451 639 q 285 616 316 639 q 254 554 254 594 q 277 500 254 524 q 368 439 299 476 q 469 370 439 399 q 515 308 499 342 q 530 231 530 275 m 181 1064 l 282 1064 q 392 943 329 1025 q 553 1064 477 1015 l 663 1064 l 663 1046 q 549 936 609 998 q 466 842 488 873 l 298 842 q 181 1046 268 916 l 181 1064 z "},"Ț":{"ha":714,"x_min":92,"x_max":827,"o":"m 358 0 l 197 0 l 376 852 l 119 852 l 150 991 l 827 991 l 798 852 l 539 852 l 358 0 m 92 -289 q 184 -85 151 -183 l 334 -85 l 334 -98 q 271 -202 315 -142 q 184 -307 228 -261 l 92 -307 l 92 -289 z "},"ț":{"ha":510,"x_min":39,"x_max":546,"o":"m 309 115 q 411 136 355 115 l 411 16 q 347 -5 387 4 q 265 -14 306 -14 q 79 154 79 -14 q 90 243 79 193 l 172 629 l 62 629 l 77 704 l 205 760 l 293 917 l 392 917 l 357 750 l 546 750 l 519 629 l 332 629 l 249 241 q 240 179 240 204 q 257 133 240 150 q 309 115 274 115 m 39 -289 q 131 -85 98 -183 l 281 -85 l 281 -98 q 218 -202 262 -142 q 131 -307 175 -261 l 39 -307 l 39 -289 z "},"Ť":{"ha":714,"x_min":119,"x_max":827,"o":"m 358 0 l 197 0 l 376 852 l 119 852 l 150 991 l 827 991 l 798 852 l 539 852 l 358 0 m 293 1293 l 394 1293 q 504 1173 441 1254 q 665 1293 589 1244 l 775 1293 l 775 1275 q 661 1165 721 1227 q 578 1071 600 1103 l 410 1071 q 293 1275 380 1145 l 293 1293 z "},"ť":{"ha":510,"x_min":62,"x_max":718,"o":"m 309 115 q 411 136 355 115 l 411 16 q 347 -5 387 4 q 265 -14 306 -14 q 79 154 79 -14 q 90 243 79 193 l 172 629 l 62 629 l 77 704 l 205 760 l 293 917 l 392 917 l 357 750 l 546 750 l 519 629 l 332 629 l 249 241 q 240 179 240 204 q 257 133 240 150 q 309 115 274 115 m 475 857 q 568 1061 530 954 l 718 1061 l 718 1047 q 650 938 696 1000 q 567 839 604 875 l 475 839 l 475 857 z "},"Ŧ":{"ha":714,"x_min":114,"x_max":827,"o":"m 478 564 l 657 564 l 629 432 l 450 432 l 358 0 l 197 0 l 288 432 l 114 432 l 143 564 l 315 564 l 376 852 l 119 852 l 150 991 l 827 991 l 798 852 l 539 852 l 478 564 z "},"ŧ":{"ha":510,"x_min":25,"x_max":546,"o":"m 309 115 q 411 136 355 115 l 411 16 q 347 -5 387 4 q 265 -14 306 -14 q 79 154 79 -14 q 82 195 79 173 q 117 367 85 218 l 25 367 l 47 478 l 139 478 l 172 629 l 62 629 l 77 704 l 205 760 l 293 917 l 392 917 l 357 750 l 546 750 l 519 629 l 332 629 l 298 478 l 461 478 l 437 367 l 275 367 l 249 241 q 240 179 240 204 q 257 133 240 150 q 309 115 274 115 z "},"Ũ":{"ha":949,"x_min":103,"x_max":962,"o":"m 962 991 l 825 343 q 684 74 787 162 q 411 -14 581 -14 q 183 58 264 -14 q 103 265 103 130 q 117 380 103 321 l 248 991 l 408 991 l 278 378 q 264 271 264 318 q 304 163 264 201 q 427 125 345 125 q 583 179 525 125 q 667 357 640 234 l 802 991 l 962 991 m 722 1071 q 666 1082 692 1071 q 618 1108 641 1094 q 573 1133 595 1122 q 530 1145 552 1145 q 488 1126 505 1145 q 458 1069 471 1107 l 366 1069 q 539 1263 404 1263 q 597 1251 570 1263 q 646 1225 623 1239 q 689 1199 669 1211 q 729 1187 709 1187 q 773 1205 756 1187 q 806 1264 790 1223 l 899 1264 q 722 1071 854 1071 z "},"ũ":{"ha":819,"x_min":75,"x_max":787,"o":"m 343 750 l 256 336 q 235 205 235 241 q 321 115 235 115 q 418 154 370 115 q 503 264 466 193 q 561 432 541 336 l 628 750 l 786 750 l 628 0 l 503 0 l 517 139 l 511 139 q 395 23 456 60 q 265 -14 335 -14 q 125 38 174 -14 q 75 186 75 90 q 83 270 75 229 q 100 354 92 312 l 183 750 l 343 750 m 611 842 q 555 853 581 842 q 507 879 530 865 q 462 904 484 892 q 419 916 441 916 q 376 897 393 916 q 347 840 359 878 l 254 840 q 428 1034 293 1034 q 486 1022 459 1034 q 535 996 512 1010 q 578 970 557 982 q 618 958 598 958 q 662 976 645 958 q 694 1035 679 994 l 787 1035 q 611 842 743 842 z "},"Ū":{"ha":949,"x_min":103,"x_max":962,"o":"m 962 991 l 825 343 q 684 74 787 162 q 411 -14 581 -14 q 183 58 264 -14 q 103 265 103 130 q 117 380 103 321 l 248 991 l 408 991 l 278 378 q 264 271 264 318 q 304 163 264 201 q 427 125 345 125 q 583 179 525 125 q 667 357 640 234 l 802 991 l 962 991 m 441 1190 l 836 1190 l 811 1071 l 416 1071 l 441 1190 z "},"ū":{"ha":819,"x_min":75,"x_max":786,"o":"m 343 750 l 256 336 q 235 205 235 241 q 321 115 235 115 q 418 154 370 115 q 503 264 466 193 q 561 432 541 336 l 628 750 l 786 750 l 628 0 l 503 0 l 517 139 l 511 139 q 395 23 456 60 q 265 -14 335 -14 q 125 38 174 -14 q 75 186 75 90 q 83 270 75 229 q 100 354 92 312 l 183 750 l 343 750 m 328 961 l 722 961 l 697 842 l 302 842 l 328 961 z "},"Ŭ":{"ha":949,"x_min":103,"x_max":962,"o":"m 962 991 l 825 343 q 684 74 787 162 q 411 -14 581 -14 q 183 58 264 -14 q 103 265 103 130 q 117 380 103 321 l 248 991 l 408 991 l 278 378 q 264 271 264 318 q 304 163 264 201 q 427 125 345 125 q 583 179 525 125 q 667 357 640 234 l 802 991 l 962 991 m 857 1276 q 776 1121 836 1171 q 612 1071 715 1071 q 471 1116 522 1071 q 420 1239 420 1160 q 422 1276 420 1263 l 514 1276 q 539 1213 514 1234 q 623 1192 564 1192 q 714 1213 682 1192 q 757 1276 747 1234 l 857 1276 z "},"ŭ":{"ha":819,"x_min":75,"x_max":786,"o":"m 343 750 l 256 336 q 235 205 235 241 q 321 115 235 115 q 418 154 370 115 q 503 264 466 193 q 561 432 541 336 l 628 750 l 786 750 l 628 0 l 503 0 l 517 139 l 511 139 q 395 23 456 60 q 265 -14 335 -14 q 125 38 174 -14 q 75 186 75 90 q 83 270 75 229 q 100 354 92 312 l 183 750 l 343 750 m 745 1047 q 663 892 724 942 q 500 842 603 842 q 358 886 410 842 q 307 1010 307 931 q 310 1047 307 1034 l 401 1047 q 426 983 401 1004 q 510 962 451 962 q 602 983 570 962 q 644 1047 634 1004 l 745 1047 z "},"Ů":{"ha":949,"x_min":103,"x_max":962,"o":"m 962 991 l 825 343 q 684 74 787 162 q 411 -14 581 -14 q 183 58 264 -14 q 103 265 103 130 q 117 380 103 321 l 248 991 l 408 991 l 278 378 q 264 271 264 318 q 304 163 264 201 q 427 125 345 125 q 583 179 525 125 q 667 357 640 234 l 802 991 l 962 991 m 789 1223 q 745 1111 789 1153 q 628 1069 700 1069 q 513 1111 556 1069 q 470 1222 470 1152 q 514 1334 470 1292 q 628 1375 558 1375 q 744 1334 699 1375 q 789 1223 789 1293 m 701 1222 q 680 1275 701 1256 q 628 1295 660 1295 q 577 1275 597 1295 q 557 1222 557 1256 q 575 1170 557 1189 q 628 1152 593 1152 q 680 1170 660 1152 q 701 1222 701 1189 z "},"ů":{"ha":819,"x_min":75,"x_max":786,"o":"m 343 750 l 256 336 q 235 205 235 241 q 321 115 235 115 q 418 154 370 115 q 503 264 466 193 q 561 432 541 336 l 628 750 l 786 750 l 628 0 l 503 0 l 517 139 l 511 139 q 395 23 456 60 q 265 -14 335 -14 q 125 38 174 -14 q 75 186 75 90 q 83 270 75 229 q 100 354 92 312 l 183 750 l 343 750 m 675 994 q 630 882 675 924 q 513 840 585 840 q 398 882 441 840 q 355 993 355 923 q 399 1104 355 1063 q 513 1146 444 1146 q 629 1105 584 1146 q 675 994 675 1064 m 586 993 q 566 1046 586 1027 q 513 1065 545 1065 q 463 1046 483 1065 q 443 993 443 1027 q 461 941 443 960 q 513 922 479 922 q 566 941 545 922 q 586 993 586 960 z "},"Ű":{"ha":949,"x_min":103,"x_max":996,"o":"m 962 991 l 825 343 q 684 74 787 162 q 411 -14 581 -14 q 183 58 264 -14 q 103 265 103 130 q 117 380 103 321 l 248 991 l 408 991 l 278 378 q 264 271 264 318 q 304 163 264 201 q 427 125 345 125 q 583 179 525 125 q 667 357 640 234 l 802 991 l 962 991 m 428 1088 q 518 1199 473 1138 q 583 1293 563 1260 l 746 1293 l 746 1280 q 643 1175 720 1246 q 517 1071 566 1104 l 428 1071 l 428 1088 m 678 1088 q 835 1293 759 1178 l 996 1293 l 996 1280 q 889 1171 961 1237 q 768 1071 817 1105 l 678 1071 l 678 1088 z "},"ű":{"ha":819,"x_min":75,"x_max":868,"o":"m 343 750 l 256 336 q 235 205 235 241 q 321 115 235 115 q 418 154 370 115 q 503 264 466 193 q 561 432 541 336 l 628 750 l 786 750 l 628 0 l 503 0 l 517 139 l 511 139 q 395 23 456 60 q 265 -14 335 -14 q 125 38 174 -14 q 75 186 75 90 q 83 270 75 229 q 100 354 92 312 l 183 750 l 343 750 m 300 859 q 390 970 345 909 q 455 1064 435 1031 l 618 1064 l 618 1051 q 514 946 591 1017 q 389 842 437 875 l 300 842 l 300 859 m 550 859 q 707 1064 631 949 l 868 1064 l 868 1051 q 761 942 833 1008 q 640 842 688 876 l 550 842 l 550 859 z "},"Ų":{"ha":949,"x_min":103,"x_max":962,"o":"m 962 991 l 825 343 q 684 74 787 162 q 411 -14 581 -14 q 183 58 264 -14 q 103 265 103 130 q 117 380 103 321 l 248 991 l 408 991 l 278 378 q 264 271 264 318 q 304 163 264 201 q 427 125 345 125 q 583 179 525 125 q 667 357 640 234 l 802 991 l 962 991 m 568 0 q 466 -99 493 -60 q 439 -172 439 -138 q 451 -205 439 -194 q 482 -216 463 -216 q 545 -207 508 -216 l 545 -302 q 452 -317 500 -317 q 353 -285 390 -317 q 315 -196 315 -253 q 348 -96 315 -141 q 461 0 380 -50 l 568 0 z "},"ų":{"ha":819,"x_min":75,"x_max":786,"o":"m 343 750 l 256 336 q 235 205 235 241 q 321 115 235 115 q 418 154 370 115 q 503 264 466 193 q 561 432 541 336 l 628 750 l 786 750 l 628 0 l 503 0 l 517 139 l 511 139 q 395 23 456 60 q 265 -14 335 -14 q 125 38 174 -14 q 75 186 75 90 q 83 270 75 229 q 100 354 92 312 l 183 750 l 343 750 m 610 0 q 508 -99 534 -60 q 481 -172 481 -138 q 492 -205 481 -194 q 524 -216 504 -216 q 586 -207 549 -216 l 586 -302 q 493 -317 542 -317 q 394 -285 431 -317 q 357 -196 357 -253 q 389 -96 357 -141 q 503 0 421 -50 l 610 0 z "},"Ŵ":{"ha":1213,"x_min":138,"x_max":1337,"o":"m 893 0 l 718 0 l 693 571 l 689 696 l 692 768 l 688 768 q 608 571 656 671 l 347 0 l 174 0 l 138 991 l 293 991 l 306 415 q 297 180 306 323 l 301 180 q 397 421 357 330 l 660 991 l 812 991 l 833 422 l 836 308 l 833 180 l 839 180 q 886 314 858 240 q 928 418 915 389 l 1171 991 l 1337 991 l 893 0 m 982 1071 l 879 1071 q 770 1192 827 1114 q 610 1071 681 1117 l 498 1071 l 498 1088 q 635 1220 592 1175 q 696 1293 677 1266 l 864 1293 q 982 1088 890 1226 l 982 1071 z "},"ŵ":{"ha":1044,"x_min":82,"x_max":1105,"o":"m 572 0 l 559 425 l 559 473 l 561 608 q 526 524 544 566 q 292 0 508 481 l 114 0 l 82 750 l 232 750 l 241 312 q 233 146 239 253 l 237 146 q 311 330 282 265 l 500 750 l 672 750 l 685 340 l 686 304 l 684 146 l 688 146 q 726 253 699 180 q 769 364 753 327 q 940 750 785 401 l 1105 750 l 754 0 l 572 0 m 833 842 l 730 842 q 621 962 679 884 q 461 842 532 888 l 350 842 l 350 859 q 486 991 444 945 q 547 1064 529 1037 l 715 1064 q 833 859 741 997 l 833 842 z "},"Ŷ":{"ha":741,"x_min":126,"x_max":868,"o":"m 395 538 l 688 991 l 868 991 l 446 372 l 368 0 l 207 0 l 288 375 l 126 991 l 290 991 l 395 538 m 725 1071 l 622 1071 q 513 1192 570 1114 q 353 1071 424 1117 l 241 1071 l 241 1088 q 378 1220 335 1175 q 439 1293 420 1266 l 607 1293 q 725 1088 633 1226 l 725 1071 z "},"ŷ":{"ha":681,"x_min":-115,"x_max":750,"o":"m 68 750 l 225 750 l 268 390 q 279 272 274 348 q 283 149 283 195 l 288 149 q 379 361 346 294 l 578 750 l 750 750 l 283 -118 q 151 -282 222 -230 q -18 -334 79 -334 q -115 -321 -70 -334 l -115 -193 q -31 -204 -64 -204 q 60 -175 20 -204 q 144 -69 101 -145 l 179 -7 l 68 750 m 645 842 l 542 842 q 433 962 490 884 q 273 842 344 888 l 161 842 l 161 859 q 298 991 255 945 q 359 1064 340 1037 l 527 1064 q 645 859 553 997 l 645 842 z "},"Ÿ":{"ha":741,"x_min":126,"x_max":868,"o":"m 395 538 l 688 991 l 868 991 l 446 372 l 368 0 l 207 0 l 288 375 l 126 991 l 290 991 l 395 538 m 298 1165 q 322 1232 298 1206 q 389 1257 346 1257 q 440 1241 421 1257 q 460 1193 460 1225 q 436 1124 460 1149 q 372 1099 412 1099 q 319 1115 340 1099 q 298 1165 298 1131 m 558 1165 q 582 1232 558 1206 q 648 1257 606 1257 q 700 1241 681 1257 q 720 1193 720 1225 q 695 1124 720 1149 q 632 1099 671 1099 q 579 1115 600 1099 q 558 1165 558 1131 z "},"Ź":{"ha":741,"x_min":-26,"x_max":804,"o":"m 611 0 l -26 0 l -4 114 l 572 851 l 167 851 l 196 991 l 804 991 l 781 875 l 203 139 l 640 139 l 611 0 m 431 1088 q 583 1293 496 1161 l 762 1293 l 762 1280 q 655 1171 726 1236 q 536 1071 585 1106 l 431 1071 l 431 1088 z "},"ź":{"ha":624,"x_min":-26,"x_max":671,"o":"m 488 0 l -26 0 l -7 100 l 424 629 l 126 629 l 153 750 l 631 750 l 606 635 l 183 121 l 513 121 l 488 0 m 340 859 q 492 1064 406 932 l 671 1064 l 671 1051 q 564 942 635 1006 q 446 842 494 877 l 340 842 l 340 859 z "},"Ż":{"ha":741,"x_min":-26,"x_max":804,"o":"m 611 0 l -26 0 l -4 114 l 572 851 l 167 851 l 196 991 l 804 991 l 781 875 l 203 139 l 640 139 l 611 0 m 425 1164 q 452 1238 425 1210 q 526 1267 478 1267 q 585 1249 562 1267 q 607 1194 607 1231 q 579 1118 607 1146 q 508 1090 552 1090 q 449 1108 473 1090 q 425 1164 425 1126 z "},"ż":{"ha":624,"x_min":-26,"x_max":631,"o":"m 488 0 l -26 0 l -7 100 l 424 629 l 126 629 l 153 750 l 631 750 l 606 635 l 183 121 l 513 121 l 488 0 m 323 935 q 349 1009 323 981 q 424 1038 376 1038 q 482 1020 460 1038 q 505 965 505 1002 q 477 889 505 917 q 406 861 450 861 q 347 879 370 861 q 323 935 323 897 z "},"Ž":{"ha":741,"x_min":-26,"x_max":804,"o":"m 611 0 l -26 0 l -4 114 l 572 851 l 167 851 l 196 991 l 804 991 l 781 875 l 203 139 l 640 139 l 611 0 m 302 1293 l 403 1293 q 513 1173 450 1254 q 674 1293 597 1244 l 784 1293 l 784 1275 q 669 1165 730 1227 q 587 1071 609 1103 l 418 1071 q 302 1275 389 1145 l 302 1293 z "},"ž":{"ha":624,"x_min":-26,"x_max":684,"o":"m 488 0 l -26 0 l -7 100 l 424 629 l 126 629 l 153 750 l 631 750 l 606 635 l 183 121 l 513 121 l 488 0 m 202 1064 l 303 1064 q 413 943 350 1025 q 574 1064 498 1015 l 684 1064 l 684 1046 q 570 936 630 998 q 487 842 509 873 l 319 842 q 202 1046 289 916 l 202 1064 z "},"ſ":{"ha":439,"x_min":-172,"x_max":619,"o":"m -71 -334 q -172 -318 -132 -334 l -172 -189 q -94 -203 -129 -203 q -21 -169 -52 -203 q 25 -64 10 -135 l 211 815 q 300 1004 239 945 q 475 1063 361 1063 q 619 1034 554 1063 l 578 914 q 486 933 528 933 q 411 904 439 933 q 368 808 382 876 l 179 -85 q 91 -274 152 -214 q -71 -334 29 -334 z "},"ƒ":{"ha":765,"x_min":-9,"x_max":770,"o":"m 92 -334 q -9 -318 31 -334 l -9 -189 q 68 -203 34 -203 q 141 -169 110 -203 q 187 -64 173 -135 l 318 557 l 197 557 l 211 631 l 345 679 l 359 758 q 447 946 385 887 q 625 1006 510 1006 q 770 977 703 1006 l 728 857 q 636 876 677 876 q 560 847 588 876 q 518 751 532 819 l 503 677 l 657 677 l 632 557 l 478 557 l 342 -85 q 251 -274 313 -215 q 92 -334 190 -334 z "},"Ǻ":{"ha":821,"x_min":-81,"x_max":828,"o":"m 699 981 q 642 859 699 903 l 747 0 l 589 0 l 559 269 l 232 269 l 90 0 l -81 0 l 403 892 q 379 979 379 924 q 424 1090 379 1049 q 538 1132 468 1132 q 653 1090 608 1132 q 699 981 699 1049 m 492 1181 q 568 1252 521 1205 q 640 1331 614 1299 l 828 1331 l 828 1321 q 727 1244 792 1288 q 604 1168 663 1200 l 492 1168 l 492 1181 m 608 979 q 589 1032 608 1013 q 538 1051 569 1051 q 486 1032 506 1051 q 465 979 465 1013 q 484 927 465 945 q 538 908 502 908 q 589 927 569 908 q 608 979 608 945 m 500 799 q 468 729 485 764 q 306 410 452 694 l 549 410 q 520 703 523 656 q 514 799 517 751 l 500 799 z "},"ǻ":{"ha":802,"x_min":64,"x_max":790,"o":"m 454 1181 q 532 1255 487 1208 q 603 1331 578 1301 l 790 1331 l 790 1321 q 696 1249 762 1293 q 567 1168 631 1204 l 454 1168 l 454 1181 m 657 965 q 613 854 657 896 q 496 812 569 812 q 381 853 424 812 q 338 964 338 895 q 382 1075 338 1034 q 496 1117 426 1117 q 612 1076 566 1117 q 657 965 657 1035 m 568 964 q 548 1017 568 998 q 496 1036 528 1036 q 445 1017 465 1036 q 425 964 425 998 q 443 912 425 931 q 496 893 460 893 q 548 912 528 893 q 568 964 568 931 m 271 -14 q 119 55 175 -14 q 64 249 64 124 q 111 505 64 386 q 241 694 158 625 q 422 764 323 764 q 536 733 488 764 q 610 643 583 702 l 616 643 l 659 750 l 781 750 l 621 0 l 497 0 l 511 119 l 507 119 q 271 -14 400 -14 m 329 115 q 438 168 385 115 q 526 309 492 220 q 561 501 561 397 q 529 597 561 561 q 446 633 497 633 q 337 581 388 633 q 256 439 286 529 q 225 253 225 349 q 253 150 225 184 q 329 115 280 115 z "},"Ǽ":{"ha":1189,"x_min":-82,"x_max":1240,"o":"m 1031 0 l 504 0 l 562 275 l 269 275 l 96 0 l -82 0 l 549 991 l 1240 991 l 1211 852 l 846 852 l 789 585 l 1131 585 l 1101 449 l 761 449 l 694 138 l 1060 138 l 1031 0 m 591 416 l 685 852 l 629 852 l 358 416 l 591 416 m 766 1088 q 918 1293 831 1161 l 1097 1293 l 1097 1280 q 990 1171 1061 1236 q 871 1071 920 1106 l 766 1071 l 766 1088 z "},"ǽ":{"ha":1171,"x_min":64,"x_max":1139,"o":"m 804 -14 q 597 79 654 -14 l 582 0 l 479 0 l 493 119 l 488 119 q 375 17 430 47 q 257 -14 321 -14 q 115 56 166 -14 q 64 249 64 126 q 111 505 64 385 q 238 694 157 625 q 415 764 319 764 q 518 734 475 764 q 591 643 562 705 l 597 643 l 640 750 l 741 750 l 724 671 q 812 739 758 713 q 935 764 867 764 q 1084 712 1029 764 q 1139 575 1139 660 q 1026 382 1139 452 q 704 313 913 313 l 673 313 l 671 272 q 712 152 671 193 q 831 111 753 111 q 1038 168 916 111 l 1038 40 q 804 -14 919 -14 m 315 115 q 426 170 373 115 q 511 316 478 224 q 543 497 543 408 q 517 596 543 559 q 440 633 491 633 q 332 579 382 633 q 253 436 281 525 q 225 253 225 347 q 250 149 225 182 q 315 115 275 115 m 904 642 q 776 583 834 642 q 693 429 718 525 l 714 429 q 913 466 841 429 q 985 567 985 502 q 962 624 985 606 q 904 642 939 642 m 633 859 q 786 1064 699 932 l 965 1064 l 965 1051 q 858 942 928 1006 q 739 842 787 877 l 633 842 l 633 859 z "},"Ǿ":{"ha":1007,"x_min":74,"x_max":990,"o":"m 964 625 q 899 288 964 436 q 722 63 835 140 q 460 -14 609 -14 q 244 43 329 -14 l 164 -58 l 74 12 l 161 121 q 92 368 92 214 q 158 699 92 549 q 341 928 225 848 q 604 1007 457 1007 q 819 943 732 1007 l 900 1044 l 990 974 l 900 861 q 964 625 964 773 m 591 869 q 420 806 496 869 q 300 627 344 743 q 256 370 256 510 q 272 258 256 310 l 725 825 q 591 869 671 869 m 800 624 q 787 721 800 684 l 339 161 q 471 123 390 123 q 641 188 565 123 q 758 368 716 253 q 800 624 800 482 m 530 1088 q 683 1293 596 1161 l 862 1293 l 862 1280 q 755 1171 825 1236 q 636 1071 684 1106 l 530 1071 l 530 1088 z "},"ǿ":{"ha":796,"x_min":35,"x_max":755,"o":"m 730 475 q 680 220 730 334 q 544 47 630 106 q 349 -12 458 -12 q 189 28 256 -12 l 118 -61 l 35 4 l 113 100 q 65 277 65 170 q 113 524 65 412 q 248 699 161 636 q 450 762 336 762 q 612 721 543 762 l 671 794 l 755 729 l 688 650 q 730 475 730 582 m 443 635 q 283 536 347 635 q 220 289 220 437 q 225 239 220 262 l 525 611 q 443 635 494 635 m 358 114 q 469 159 418 114 q 548 284 519 204 q 576 458 576 363 q 572 504 576 489 l 277 136 q 358 114 304 114 m 387 859 q 540 1064 453 932 l 719 1064 l 719 1051 q 612 942 682 1006 q 493 842 541 877 l 387 842 l 387 859 z "},"Ș":{"ha":717,"x_min":26,"x_max":734,"o":"m 631 290 q 533 67 631 148 q 262 -14 435 -14 q 26 37 120 -14 l 26 189 q 264 123 144 123 q 410 163 357 123 q 464 273 464 203 q 436 356 464 320 q 319 449 408 393 q 214 532 248 494 q 162 613 180 569 q 144 711 144 658 q 186 865 144 798 q 304 969 228 932 q 476 1006 380 1006 q 734 943 615 1006 l 676 814 q 476 867 567 867 q 357 827 402 867 q 313 724 313 787 q 323 668 313 692 q 354 623 333 644 q 446 558 376 602 q 591 431 551 492 q 631 290 631 370 m 113 -289 q 204 -85 172 -183 l 355 -85 l 355 -98 q 292 -202 335 -142 q 204 -307 248 -261 l 113 -307 l 113 -289 z "},"ș":{"ha":625,"x_min":9,"x_max":597,"o":"m 530 231 q 450 50 530 113 q 228 -14 370 -14 q 9 32 99 -14 l 9 170 q 221 109 113 109 q 328 136 287 109 q 368 210 368 163 q 345 269 368 244 q 249 335 321 294 q 129 428 164 380 q 94 539 94 475 q 167 704 94 644 q 363 764 239 764 q 597 707 496 764 l 546 587 q 366 639 451 639 q 285 616 316 639 q 254 554 254 594 q 277 500 254 524 q 368 439 299 476 q 469 370 439 399 q 515 308 499 342 q 530 231 530 275 m 68 -289 q 160 -85 127 -183 l 311 -85 l 311 -98 q 248 -202 291 -142 q 160 -307 204 -261 l 68 -307 l 68 -289 z "},"ˆ":{"ha":770,"x_min":240,"x_max":724,"o":"m 724 842 l 621 842 q 511 962 569 884 q 351 842 422 888 l 240 842 l 240 859 q 376 991 334 945 q 437 1064 419 1037 l 606 1064 q 724 859 631 997 l 724 842 z "},"ˇ":{"ha":770,"x_min":286,"x_max":768,"o":"m 286 1064 l 387 1064 q 497 943 434 1025 q 659 1064 582 1015 l 768 1064 l 768 1046 q 654 936 714 998 q 571 842 593 873 l 403 842 q 286 1046 373 916 l 286 1064 z "},"ˉ":{"ha":743,"x_min":268,"x_max":688,"o":"m 293 961 l 688 961 l 663 842 l 268 842 l 293 961 z "},"˘":{"ha":770,"x_min":307,"x_max":745,"o":"m 745 1047 q 663 892 724 942 q 500 842 603 842 q 358 886 410 842 q 307 1010 307 931 q 310 1047 307 1034 l 401 1047 q 426 983 401 1004 q 510 962 451 962 q 602 983 570 962 q 644 1047 634 1004 l 745 1047 z "},"˙":{"ha":375,"x_min":218,"x_max":400,"o":"m 218 935 q 245 1009 218 981 q 319 1038 271 1038 q 378 1020 355 1038 q 400 965 400 1002 q 373 889 400 917 q 301 861 345 861 q 242 879 266 861 q 218 935 218 897 z "},"˚":{"ha":802,"x_min":367,"x_max":686,"o":"m 686 994 q 642 882 686 924 q 525 840 597 840 q 410 882 453 840 q 367 993 367 923 q 411 1104 367 1063 q 525 1146 455 1146 q 641 1105 595 1146 q 686 994 686 1064 m 597 993 q 577 1046 597 1027 q 525 1065 557 1065 q 474 1046 494 1065 q 454 993 454 1027 q 472 941 454 960 q 525 922 490 922 q 577 941 557 922 q 597 993 597 960 z "},"˛":{"ha":269,"x_min":-109,"x_max":144,"o":"m 144 0 q 42 -99 69 -60 q 16 -172 16 -138 q 27 -205 16 -194 q 58 -216 39 -216 q 121 -207 84 -216 l 121 -302 q 28 -317 77 -317 q -71 -285 -34 -317 q -109 -196 -109 -253 q -76 -96 -109 -141 q 37 0 -44 -50 l 144 0 z "},"˜":{"ha":770,"x_min":221,"x_max":754,"o":"m 578 842 q 522 853 547 842 q 473 879 496 865 q 429 904 450 892 q 386 916 408 916 q 343 897 360 916 q 314 840 326 878 l 221 840 q 395 1034 260 1034 q 452 1022 426 1034 q 502 996 479 1010 q 545 970 524 982 q 585 958 565 958 q 629 976 612 958 q 661 1035 646 994 l 754 1035 q 578 842 709 842 z "},"˝":{"ha":770,"x_min":229,"x_max":798,"o":"m 229 859 q 319 970 274 909 q 385 1064 364 1031 l 547 1064 l 547 1051 q 444 946 521 1017 q 318 842 367 875 l 229 842 l 229 859 m 479 859 q 636 1064 560 949 l 798 1064 l 798 1051 q 690 942 762 1008 q 570 842 618 876 l 479 842 l 479 859 z "},"΄":{"ha":775,"x_min":403,"x_max":672,"o":"m 403 861 q 514 1112 467 985 l 672 1112 l 672 1095 q 598 974 648 1048 q 498 842 547 900 l 403 842 l 403 861 z "},"΅":{"ha":775,"x_min":268,"x_max":743,"o":"m 268 936 q 290 1002 268 977 q 353 1028 313 1028 q 401 1012 383 1028 q 419 964 419 996 q 397 895 419 920 q 338 869 374 869 q 288 885 308 869 q 268 936 268 901 m 591 936 q 614 1002 591 977 q 676 1028 637 1028 q 725 1012 707 1028 q 743 964 743 996 q 721 895 743 920 q 661 869 698 869 q 612 885 632 869 q 591 936 591 901 m 444 960 q 536 1164 517 1105 l 692 1164 l 692 1150 q 568 996 660 1099 l 519 942 l 444 942 l 444 960 z "},"Ά":{"ha":821,"x_min":-82,"x_max":747,"o":"m 561 275 l 232 275 l 90 0 l -82 0 l 449 993 l 635 993 l 747 0 l 589 0 l 561 275 m 550 416 q 519 758 523 699 q 515 852 515 817 q 419 644 478 758 l 302 416 l 550 416 m 73 790 q 184 1041 137 913 l 342 1041 l 342 1023 q 268 903 319 977 q 169 770 218 829 l 73 770 l 73 790 z "},"·":{"ha":374,"x_min":102,"x_max":306,"o":"m 102 469 q 134 559 102 526 q 222 593 165 593 q 283 571 260 593 q 306 509 306 550 q 274 421 306 456 q 189 386 241 386 q 123 410 144 386 q 102 469 102 434 z "},"Έ":{"ha":832,"x_min":35,"x_max":873,"o":"m 664 0 l 138 0 l 347 991 l 873 991 l 844 852 l 479 852 l 422 585 l 762 585 l 734 447 l 393 447 l 328 138 l 693 138 l 664 0 m 35 790 q 146 1041 99 913 l 304 1041 l 304 1023 q 230 903 281 977 q 131 770 180 829 l 35 770 l 35 790 z "},"Ή":{"ha":1060,"x_min":35,"x_max":1064,"o":"m 854 0 l 693 0 l 788 447 l 404 447 l 310 0 l 149 0 l 359 991 l 519 991 l 433 586 l 817 586 l 903 991 l 1064 991 l 854 0 m 35 790 q 146 1041 99 913 l 304 1041 l 304 1023 q 230 903 281 977 q 131 770 180 829 l 35 770 l 35 790 z "},"Ό":{"ha":1072,"x_min":52,"x_max":1029,"o":"m 1029 625 q 964 288 1029 436 q 787 63 900 140 q 525 -14 674 -14 q 253 88 349 -14 q 157 368 157 189 q 223 699 157 549 q 406 928 290 848 q 669 1007 522 1007 q 934 906 840 1007 q 1029 625 1029 805 m 656 868 q 487 803 563 868 q 368 622 411 738 q 325 370 325 507 q 380 189 325 252 q 534 125 435 125 q 703 190 628 125 q 820 369 778 254 q 861 624 861 484 q 808 804 861 739 q 656 868 754 868 m 52 790 q 163 1041 116 913 l 321 1041 l 321 1023 q 247 903 298 977 q 148 770 197 829 l 52 770 l 52 790 z "},"Ύ":{"ha":942,"x_min":35,"x_max":1068,"o":"m 595 538 l 888 991 l 1068 991 l 646 372 l 568 0 l 407 0 l 488 375 l 326 991 l 490 991 l 595 538 m 35 790 q 146 1041 99 913 l 304 1041 l 304 1023 q 230 903 281 977 q 131 770 180 829 l 35 770 l 35 790 z "},"Ώ":{"ha":1097,"x_min":59,"x_max":1050,"o":"m 669 868 q 510 819 580 868 q 398 676 439 770 q 357 469 357 583 q 386 283 357 361 q 482 138 415 204 l 453 0 l 60 0 l 87 139 l 332 139 q 227 283 262 197 q 191 476 191 370 q 253 751 191 629 q 426 941 316 874 q 681 1007 536 1007 q 879 962 796 1007 q 1006 833 962 918 q 1050 637 1050 749 q 978 352 1050 479 q 761 139 905 224 l 1008 139 l 979 0 l 554 0 l 583 138 q 807 349 731 224 q 884 628 884 473 q 828 806 884 743 q 669 868 772 868 m 59 790 q 170 1041 123 913 l 328 1041 l 328 1023 q 254 903 304 977 q 155 770 203 829 l 59 770 l 59 790 z "},"ΐ":{"ha":467,"x_min":68,"x_max":545,"o":"m 296 115 q 397 136 340 115 l 397 16 q 333 -5 374 4 q 250 -14 293 -14 q 68 154 68 -14 q 82 258 68 189 l 186 750 l 346 750 l 240 250 q 231 179 231 204 q 296 115 231 115 m 70 936 q 92 1002 70 977 q 155 1028 115 1028 q 203 1012 185 1028 q 221 964 221 996 q 199 895 221 920 q 140 869 176 869 q 90 885 110 869 q 70 936 70 901 m 393 936 q 416 1002 393 977 q 478 1028 439 1028 q 527 1012 509 1028 q 545 964 545 996 q 523 895 545 920 q 463 869 500 869 q 414 885 434 869 q 393 936 393 901 m 246 960 q 338 1164 319 1105 l 494 1164 l 494 1150 q 370 996 462 1099 l 321 942 l 246 942 l 246 960 z "},"Α":{"ha":821,"x_min":-82,"x_max":747,"o":"m 561 275 l 232 275 l 90 0 l -82 0 l 449 993 l 635 993 l 747 0 l 589 0 l 561 275 m 550 416 q 519 758 523 699 q 515 852 515 817 q 419 644 478 758 l 302 416 l 550 416 z "},"Β":{"ha":846,"x_min":47,"x_max":832,"o":"m 528 991 q 755 935 678 991 q 832 766 832 878 q 773 602 832 667 q 611 515 715 536 l 611 510 q 725 440 684 491 q 765 315 765 389 q 663 84 765 168 q 380 0 562 0 l 47 0 l 257 991 l 528 991 m 332 582 l 467 582 q 612 623 561 582 q 664 739 664 664 q 513 856 664 856 l 390 856 l 332 582 m 236 136 l 387 136 q 544 182 487 136 q 600 314 600 229 q 559 415 600 380 q 440 450 519 450 l 304 450 l 236 136 z "},"Γ":{"ha":679,"x_min":47,"x_max":782,"o":"m 207 0 l 47 0 l 257 991 l 782 991 l 753 852 l 387 852 l 207 0 z "},"Δ":{"ha":807,"x_min":-37,"x_max":722,"o":"m 446 993 l 624 993 l 722 93 l 701 0 l -37 0 l -18 96 l 446 993 m 504 829 q 429 660 479 758 l 165 139 l 567 139 l 514 653 q 504 829 504 764 z "},"Ε":{"ha":730,"x_min":47,"x_max":783,"o":"m 574 0 l 47 0 l 257 991 l 783 991 l 754 852 l 389 852 l 332 585 l 672 585 l 644 447 l 302 447 l 237 138 l 603 138 l 574 0 z "},"Ζ":{"ha":741,"x_min":-26,"x_max":804,"o":"m 611 0 l -26 0 l -4 114 l 572 851 l 167 851 l 196 991 l 804 991 l 781 875 l 203 139 l 640 139 l 611 0 z "},"Η":{"ha":957,"x_min":47,"x_max":962,"o":"m 753 0 l 591 0 l 686 447 l 302 447 l 208 0 l 47 0 l 257 991 l 418 991 l 332 586 l 715 586 l 802 991 l 962 991 l 753 0 z "},"Θ":{"ha":1015,"x_min":92,"x_max":972,"o":"m 711 572 l 682 436 l 351 436 l 379 572 l 711 572 m 972 614 q 913 290 972 434 q 739 66 853 146 q 469 -14 625 -14 q 191 90 290 -14 q 92 374 92 193 q 158 701 92 553 q 340 928 224 849 q 607 1007 456 1007 q 876 903 779 1007 q 972 614 972 800 m 596 868 q 420 804 497 868 q 302 626 344 740 q 260 372 260 513 q 317 191 260 258 q 475 125 374 125 q 645 186 570 125 q 762 362 720 247 q 804 619 804 478 q 749 802 804 736 q 596 868 693 868 z "},"Κ":{"ha":812,"x_min":47,"x_max":937,"o":"m 737 0 l 559 0 l 389 444 l 288 376 l 208 0 l 47 0 l 257 991 l 418 991 l 315 513 l 411 625 l 745 991 l 937 991 l 519 538 l 737 0 z "},"Λ":{"ha":804,"x_min":-82,"x_max":730,"o":"m -82 0 l 443 993 l 619 993 l 730 0 l 574 0 l 515 600 q 503 831 505 692 q 458 725 487 791 q 408 620 429 660 q 90 0 388 580 l -82 0 z "},"Μ":{"ha":1192,"x_min":46,"x_max":1197,"o":"m 439 0 l 361 823 l 357 823 q 319 593 351 743 l 195 0 l 46 0 l 256 991 l 475 991 l 549 212 l 553 212 l 964 991 l 1197 991 l 990 0 l 836 0 l 960 591 q 1018 823 986 718 l 1014 823 l 578 0 l 439 0 z "},"Ν":{"ha":1011,"x_min":46,"x_max":1018,"o":"m 808 0 l 632 0 l 354 789 l 350 789 l 343 742 q 319 598 327 641 q 195 0 311 555 l 46 0 l 256 991 l 437 991 l 708 212 l 713 212 q 734 343 717 249 q 761 481 751 437 l 869 991 l 1018 991 l 808 0 z "},"Ξ":{"ha":721,"x_min":-24,"x_max":766,"o":"m 182 585 l 625 585 l 597 449 l 153 449 l 182 585 m 212 991 l 766 991 l 737 852 l 183 852 l 212 991 m 612 138 l 583 0 l -24 0 l 4 138 l 612 138 z "},"Ο":{"ha":1007,"x_min":92,"x_max":964,"o":"m 964 625 q 899 288 964 436 q 722 63 835 140 q 460 -14 609 -14 q 188 88 284 -14 q 92 368 92 189 q 158 699 92 549 q 341 928 225 848 q 604 1007 457 1007 q 869 906 774 1007 q 964 625 964 805 m 591 868 q 422 803 498 868 q 303 622 346 738 q 260 370 260 507 q 315 189 260 252 q 469 125 370 125 q 638 190 563 125 q 754 369 713 254 q 796 624 796 484 q 743 804 796 739 q 591 868 689 868 z "},"Π":{"ha":954,"x_min":47,"x_max":961,"o":"m 751 0 l 589 0 l 770 852 l 389 852 l 208 0 l 47 0 l 257 991 l 961 991 l 751 0 z "},"Ρ":{"ha":796,"x_min":47,"x_max":796,"o":"m 315 507 l 379 507 q 566 561 500 507 q 632 714 632 615 q 592 822 632 788 q 471 856 553 856 l 390 856 l 315 507 m 796 720 q 681 461 796 551 q 361 371 566 371 l 286 371 l 208 0 l 47 0 l 257 991 l 484 991 q 718 923 639 991 q 796 720 796 855 z "},"Σ":{"ha":739,"x_min":-25,"x_max":790,"o":"m -25 0 l 1 129 l 366 510 l 165 865 l 192 991 l 790 991 l 761 852 l 343 852 l 541 498 l 199 138 l 648 138 l 619 0 l -25 0 z "},"Τ":{"ha":714,"x_min":119,"x_max":827,"o":"m 358 0 l 197 0 l 376 852 l 119 852 l 150 991 l 827 991 l 798 852 l 539 852 l 358 0 z "},"Υ":{"ha":741,"x_min":126,"x_max":868,"o":"m 395 538 l 688 991 l 868 991 l 446 372 l 368 0 l 207 0 l 288 375 l 126 991 l 290 991 l 395 538 z "},"Φ":{"ha":1083,"x_min":92,"x_max":1040,"o":"m 376 -14 l 410 138 q 174 233 257 149 q 92 458 92 316 q 217 764 92 653 q 568 884 342 876 l 593 1006 l 749 1006 l 724 884 q 959 790 877 872 q 1040 568 1040 707 q 985 347 1040 442 q 822 197 929 251 q 566 139 715 142 l 532 -14 l 376 -14 m 593 269 q 803 354 728 277 q 878 564 878 432 q 830 699 878 649 q 696 750 782 748 l 593 269 m 539 750 q 330 670 406 747 q 254 461 254 593 q 300 324 254 375 q 436 269 346 273 l 539 750 z "},"Χ":{"ha":781,"x_min":-75,"x_max":893,"o":"m 705 0 l 532 0 l 401 401 l 104 0 l -75 0 l 322 522 l 153 991 l 319 991 l 440 625 l 713 991 l 893 991 l 519 510 l 705 0 z "},"Ψ":{"ha":1076,"x_min":127,"x_max":1136,"o":"m 621 298 l 602 298 l 538 0 l 382 0 l 446 298 l 436 298 q 208 370 289 298 q 127 568 127 441 q 143 705 127 625 l 204 991 l 364 991 l 300 686 q 288 585 288 621 q 331 469 288 505 q 463 433 374 433 l 473 433 l 591 991 l 747 991 l 629 433 l 640 433 q 818 490 755 433 q 904 664 880 547 l 974 991 l 1136 991 l 1063 647 q 915 384 1025 469 q 621 298 805 298 z "},"Ω":{"ha":1011,"x_min":-26,"x_max":964,"o":"m 583 868 q 424 819 494 868 q 312 676 353 770 q 271 469 271 583 q 300 283 271 361 q 396 138 329 204 l 367 0 l -26 0 l 1 139 l 245 139 q 140 283 176 197 q 104 476 104 370 q 167 751 104 629 q 340 941 230 874 q 595 1007 450 1007 q 793 962 710 1007 q 920 833 876 918 q 964 637 964 749 q 891 352 964 479 q 675 139 819 224 l 922 139 l 893 0 l 468 0 l 497 138 q 721 349 645 224 q 798 628 798 473 q 742 806 798 743 q 583 868 686 868 z "},"Ϋ":{"ha":741,"x_min":126,"x_max":868,"o":"m 395 538 l 688 991 l 868 991 l 446 372 l 368 0 l 207 0 l 288 375 l 126 991 l 290 991 l 395 538 m 313 1165 q 336 1232 313 1206 q 403 1257 360 1257 q 455 1241 435 1257 q 474 1193 474 1225 q 450 1124 474 1149 q 387 1099 426 1099 q 334 1115 355 1099 q 313 1165 313 1131 m 572 1165 q 596 1232 572 1206 q 663 1257 620 1257 q 714 1241 695 1257 q 734 1193 734 1225 q 710 1124 734 1149 q 646 1099 686 1099 q 593 1115 614 1099 q 572 1165 572 1131 z "},"ά":{"ha":815,"x_min":64,"x_max":814,"o":"m 422 764 q 608 642 551 764 l 614 642 l 627 668 q 682 750 656 724 l 814 750 q 718 488 751 623 l 664 254 q 653 165 653 208 q 665 130 653 142 q 696 118 676 118 q 741 126 715 118 l 741 5 q 643 -14 699 -14 q 498 113 513 -14 l 494 113 q 384 15 437 43 q 268 -14 331 -14 q 118 56 172 -14 q 64 249 64 125 q 110 511 64 392 q 238 697 156 630 q 422 764 320 764 m 330 115 q 439 172 387 115 q 523 319 491 229 q 555 497 555 410 q 526 596 555 559 q 443 633 496 633 q 335 583 385 633 q 255 444 285 532 q 225 257 225 357 q 330 115 225 115 m 429 861 q 541 1112 493 985 l 699 1112 l 699 1095 q 624 974 675 1048 q 525 842 574 900 l 429 842 l 429 861 z "},"έ":{"ha":665,"x_min":35,"x_max":676,"o":"m 481 329 l 392 329 q 250 299 300 329 q 199 210 199 269 q 230 139 199 165 q 332 113 262 113 q 564 174 445 113 l 564 41 q 306 -14 456 -14 q 107 38 180 -14 q 35 180 35 90 q 248 393 35 356 l 248 397 q 167 457 195 418 q 139 546 139 495 q 218 706 139 648 q 432 764 297 764 q 676 710 576 764 l 624 590 q 437 639 530 639 q 324 611 363 639 q 285 534 285 583 q 418 450 285 450 l 505 450 l 481 329 m 378 861 q 490 1112 442 985 l 648 1112 l 648 1095 q 573 974 624 1048 q 474 842 523 900 l 378 842 l 378 861 z "},"ή":{"ha":819,"x_min":32,"x_max":745,"o":"m 404 -334 l 572 456 q 585 545 585 517 q 497 633 585 633 q 401 595 448 633 q 315 483 353 556 q 258 318 277 410 l 192 0 l 32 0 l 192 750 l 317 750 l 302 611 l 309 611 q 425 727 365 691 q 554 764 484 764 q 695 712 645 764 q 745 566 745 661 q 729 443 745 519 l 564 -334 l 404 -334 m 428 861 q 539 1112 492 985 l 697 1112 l 697 1095 q 623 974 673 1048 q 524 842 572 900 l 428 842 l 428 861 z "},"ί":{"ha":467,"x_min":68,"x_max":494,"o":"m 296 115 q 397 136 340 115 l 397 16 q 333 -5 374 4 q 250 -14 293 -14 q 68 154 68 -14 q 82 258 68 189 l 186 750 l 346 750 l 240 250 q 231 179 231 204 q 296 115 231 115 m 224 861 q 336 1112 288 985 l 494 1112 l 494 1095 q 419 974 470 1048 q 320 842 369 900 l 224 842 l 224 861 z "},"ΰ":{"ha":828,"x_min":85,"x_max":770,"o":"m 353 -14 q 154 52 223 -14 q 85 236 85 117 q 102 364 85 284 l 183 750 l 342 750 l 260 364 q 244 245 244 294 q 366 115 244 115 q 548 276 486 115 q 610 750 610 437 l 770 750 q 665 169 770 352 q 353 -14 561 -14 m 264 936 q 287 1002 264 977 q 349 1028 309 1028 q 398 1012 380 1028 q 416 964 416 996 q 393 895 416 920 q 334 869 371 869 q 284 885 304 869 q 264 936 264 901 m 588 936 q 611 1002 588 977 q 673 1028 633 1028 q 722 1012 703 1028 q 740 964 740 996 q 717 895 740 920 q 658 869 694 869 q 608 885 629 869 q 588 936 588 901 m 441 960 q 533 1164 513 1105 l 688 1164 l 688 1150 q 564 996 656 1099 l 516 942 l 441 942 l 441 960 z "},"α":{"ha":815,"x_min":64,"x_max":814,"o":"m 422 764 q 608 642 551 764 l 614 642 l 627 668 q 682 750 656 724 l 814 750 q 718 488 751 623 l 664 254 q 653 165 653 208 q 665 130 653 142 q 696 118 676 118 q 741 126 715 118 l 741 5 q 643 -14 699 -14 q 498 113 513 -14 l 494 113 q 384 15 437 43 q 268 -14 331 -14 q 118 56 172 -14 q 64 249 64 125 q 110 511 64 392 q 238 697 156 630 q 422 764 320 764 m 330 115 q 439 172 387 115 q 523 319 491 229 q 555 497 555 410 q 526 596 555 559 q 443 633 496 633 q 335 583 385 633 q 255 444 285 532 q 225 257 225 357 q 330 115 225 115 z "},"β":{"ha":831,"x_min":-37,"x_max":807,"o":"m 539 1063 q 735 1000 664 1063 q 807 827 807 938 q 570 551 807 599 q 700 474 654 533 q 746 325 746 415 q 706 151 746 228 q 590 30 665 74 q 410 -14 515 -14 q 307 0 355 -14 q 203 50 258 13 l 122 -334 l -37 -334 l 193 757 q 313 990 227 917 q 539 1063 398 1063 m 526 935 q 417 889 458 935 q 351 737 375 844 l 228 165 q 297 130 254 144 q 386 115 340 115 q 530 173 476 115 q 583 325 583 231 q 412 485 583 485 l 374 485 l 401 614 l 446 614 q 593 665 542 614 q 644 812 644 717 q 614 901 644 867 q 526 935 585 935 z "},"γ":{"ha":673,"x_min":49,"x_max":747,"o":"m 216 -334 l 49 -334 q 172 8 78 -174 l 68 750 l 225 750 l 265 380 q 278 153 278 269 l 281 153 q 329 267 296 196 q 385 379 362 338 l 576 750 l 747 750 l 363 43 q 216 -334 256 -149 z "},"δ":{"ha":791,"x_min":43,"x_max":800,"o":"m 382 635 q 269 836 269 725 q 344 1001 269 939 q 543 1063 418 1063 q 671 1045 608 1063 q 800 985 734 1027 l 737 871 q 646 918 694 898 q 543 939 597 939 q 456 912 486 939 q 425 839 425 886 q 446 773 425 803 q 543 682 466 744 q 668 539 628 613 q 708 376 708 465 q 662 172 708 261 q 529 35 616 83 q 329 -14 443 -14 q 176 19 241 -14 q 77 113 112 52 q 43 252 43 174 q 130 493 43 393 q 382 635 216 592 m 347 117 q 489 189 435 117 q 543 374 543 262 q 460 561 543 494 q 276 453 345 530 q 208 271 208 376 q 243 157 208 197 q 347 117 278 117 z "},"ε":{"ha":665,"x_min":35,"x_max":676,"o":"m 481 329 l 392 329 q 250 299 300 329 q 199 210 199 269 q 230 139 199 165 q 332 113 262 113 q 564 174 445 113 l 564 41 q 306 -14 456 -14 q 107 38 180 -14 q 35 180 35 90 q 248 393 35 356 l 248 397 q 167 457 195 418 q 139 546 139 495 q 218 706 139 648 q 432 764 297 764 q 676 710 576 764 l 624 590 q 437 639 530 639 q 324 611 363 639 q 285 534 285 583 q 418 450 285 450 l 505 450 l 481 329 z "},"ζ":{"ha":636,"x_min":64,"x_max":754,"o":"m 64 279 q 111 481 64 382 q 254 684 159 580 q 539 939 349 787 q 387 930 471 930 l 237 930 l 265 1055 l 754 1055 l 730 949 q 423 672 523 777 q 274 477 323 567 q 225 301 225 387 q 255 201 225 239 q 355 132 285 163 q 462 75 430 100 q 511 18 494 50 q 528 -58 528 -14 q 502 -158 528 -109 q 407 -271 475 -208 l 240 -271 q 340 -164 311 -206 q 370 -86 370 -121 q 347 -40 370 -59 q 258 8 325 -20 q 110 115 155 52 q 64 279 64 178 z "},"η":{"ha":819,"x_min":32,"x_max":745,"o":"m 404 -334 l 572 456 q 585 545 585 517 q 497 633 585 633 q 401 595 448 633 q 315 483 353 556 q 258 318 277 410 l 192 0 l 32 0 l 192 750 l 317 750 l 302 611 l 309 611 q 425 727 365 691 q 554 764 484 764 q 695 712 645 764 q 745 566 745 661 q 729 443 745 519 l 564 -334 l 404 -334 z "},"θ":{"ha":783,"x_min":66,"x_max":758,"o":"m 311 -14 q 129 62 191 -14 q 66 283 66 138 q 100 564 66 414 q 263 952 163 834 q 518 1071 363 1071 q 698 994 637 1071 q 758 765 758 917 q 721 470 758 636 q 628 199 684 304 q 492 40 571 93 q 311 -14 414 -14 m 326 110 q 460 201 406 110 q 557 475 514 292 l 244 475 q 224 273 224 362 q 249 151 224 191 q 326 110 273 110 m 503 947 q 372 863 429 947 q 272 602 315 779 l 582 602 q 602 787 602 705 q 503 947 602 947 z "},"ι":{"ha":467,"x_min":68,"x_max":397,"o":"m 296 115 q 397 136 340 115 l 397 16 q 333 -5 374 4 q 250 -14 293 -14 q 68 154 68 -14 q 82 258 68 189 l 186 750 l 346 750 l 240 250 q 231 179 231 204 q 296 115 231 115 z "},"κ":{"ha":733,"x_min":32,"x_max":786,"o":"m 268 406 l 602 750 l 786 750 l 458 421 l 656 0 l 478 0 l 336 319 l 244 254 l 192 0 l 32 0 l 191 750 l 350 750 l 311 572 q 265 406 302 536 l 268 406 z "},"λ":{"ha":732,"x_min":-71,"x_max":669,"o":"m 347 725 l 338 806 q 309 899 330 869 q 241 929 288 929 q 172 922 202 929 l 153 1050 q 264 1064 202 1064 q 420 1010 368 1064 q 486 836 472 957 l 561 221 q 583 141 568 165 q 624 118 597 118 q 669 126 645 118 l 669 4 q 568 -14 628 -14 q 464 24 500 -14 q 418 147 427 62 q 392 373 401 293 q 382 541 383 452 q 347 457 364 500 q 306 372 329 414 l 100 0 l -71 0 l 347 725 z "},"μ":{"ha":828,"x_min":-37,"x_max":794,"o":"m 243 208 q 265 140 243 164 q 330 115 288 115 q 472 200 407 115 q 568 429 538 286 l 637 750 l 794 750 l 635 0 l 510 0 l 525 129 l 518 129 q 414 20 467 54 q 302 -14 361 -14 q 197 41 229 -14 l 192 41 q 165 -118 186 -8 l 121 -334 l -37 -334 l 192 750 l 351 750 l 256 296 q 243 208 243 239 z "},"ν":{"ha":721,"x_min":68,"x_max":734,"o":"m 68 750 l 225 750 l 271 329 q 283 142 277 268 q 456 389 387 247 q 574 750 525 530 l 734 750 q 587 325 686 503 q 321 0 488 146 l 161 0 l 68 750 z "},"ξ":{"ha":631,"x_min":58,"x_max":705,"o":"m 567 493 l 515 493 q 300 437 381 493 q 220 285 220 382 q 248 197 220 231 q 355 131 277 164 q 488 45 452 88 q 524 -57 524 1 q 495 -163 524 -111 q 403 -269 467 -214 l 235 -269 q 338 -158 313 -197 q 363 -86 363 -120 q 341 -39 363 -58 q 250 9 320 -20 q 105 110 152 50 q 58 261 58 170 q 127 449 58 372 q 328 555 196 525 l 328 559 q 222 620 260 578 q 184 722 184 661 q 244 855 184 798 q 407 939 303 912 q 256 930 312 930 l 218 930 l 244 1055 l 705 1055 l 681 939 l 671 939 q 505 914 580 939 q 387 844 429 890 q 345 737 345 799 q 525 610 345 610 l 591 610 l 567 493 z "},"ο":{"ha":796,"x_min":64,"x_max":732,"o":"m 571 476 q 538 590 571 549 q 443 631 505 631 q 330 582 380 631 q 253 451 280 534 q 225 273 225 368 q 259 158 225 198 q 358 118 292 118 q 468 164 419 118 q 544 293 517 210 q 571 476 571 376 m 732 469 q 682 220 732 332 q 546 48 633 108 q 347 -12 460 -12 q 140 65 217 -12 q 64 277 64 143 q 112 524 64 412 q 248 700 161 637 q 450 762 336 762 q 657 684 583 762 q 732 469 732 605 z "},"π":{"ha":913,"x_min":57,"x_max":939,"o":"m 718 114 q 790 131 755 114 l 790 11 q 661 -14 734 -14 q 546 24 585 -14 q 507 129 507 61 q 518 218 507 168 l 602 624 l 374 624 l 240 0 l 79 0 l 214 624 l 57 624 l 71 696 l 204 750 l 939 750 l 913 624 l 761 624 l 676 212 q 669 160 669 184 q 718 114 669 114 z "},"ρ":{"ha":810,"x_min":-37,"x_max":745,"o":"m 745 469 q 699 221 745 334 q 572 47 652 109 q 389 -14 492 -14 q 199 71 277 -14 q 184 -22 192 22 q 121 -334 176 -67 l -37 -334 l 122 421 q 245 683 160 603 q 472 764 330 764 q 673 687 602 764 q 745 469 745 610 m 463 633 q 349 579 392 633 q 279 401 305 526 l 232 183 q 370 115 286 115 q 475 161 428 115 q 553 293 522 206 q 583 472 583 380 q 554 590 583 547 q 463 633 525 633 z "},"ς":{"ha":636,"x_min":64,"x_max":660,"o":"m 225 314 q 255 203 225 245 q 364 127 284 161 q 494 45 458 88 q 529 -60 529 2 q 501 -164 529 -113 q 408 -275 473 -216 l 240 -275 q 334 -174 299 -220 q 368 -86 368 -129 q 346 -36 368 -56 q 262 8 324 -17 q 110 123 156 52 q 64 294 64 193 q 118 536 64 424 q 261 706 172 648 q 461 764 351 764 q 660 722 568 764 l 612 597 q 461 633 530 633 q 345 593 398 633 q 259 476 292 553 q 225 314 225 399 z "},"σ":{"ha":832,"x_min":64,"x_max":867,"o":"m 718 403 q 690 242 718 323 q 614 105 663 161 q 497 18 565 48 q 347 -12 429 -12 q 137 67 211 -12 q 64 292 64 146 q 115 535 64 432 q 265 694 166 639 q 501 750 364 750 l 867 750 l 842 625 l 654 625 q 718 403 718 533 m 490 625 q 295 537 365 625 q 225 294 225 449 q 358 118 225 118 q 507 208 452 118 q 562 449 562 298 q 524 625 562 551 l 490 625 z "},"τ":{"ha":636,"x_min":57,"x_max":671,"o":"m 397 115 q 500 136 444 115 l 500 16 q 436 -5 476 4 q 354 -14 395 -14 q 168 154 168 -14 q 182 258 168 195 l 258 624 l 57 624 l 71 696 l 203 750 l 671 750 l 644 624 l 418 624 l 340 256 q 329 179 329 210 q 346 133 329 150 q 397 115 363 115 z "},"υ":{"ha":828,"x_min":85,"x_max":770,"o":"m 353 -14 q 154 52 223 -14 q 85 236 85 117 q 102 364 85 284 l 183 750 l 342 750 l 260 364 q 244 245 244 294 q 366 115 244 115 q 548 276 486 115 q 610 750 610 437 l 770 750 q 665 169 770 352 q 353 -14 561 -14 z "},"φ":{"ha":996,"x_min":64,"x_max":932,"o":"m 329 -9 q 134 86 205 5 q 64 296 64 168 q 119 543 64 432 q 300 766 174 654 l 401 673 q 267 494 309 583 q 224 306 224 406 q 355 117 224 139 l 427 454 q 486 638 452 574 q 573 732 520 701 q 703 764 626 764 q 871 693 811 764 q 932 494 932 622 q 877 238 932 351 q 721 59 823 124 q 481 -14 619 -5 l 414 -334 l 260 -334 l 329 -9 m 771 501 q 696 639 771 639 q 631 606 656 639 q 591 500 607 573 l 509 117 q 649 179 591 127 q 740 316 708 231 q 771 501 771 400 z "},"χ":{"ha":732,"x_min":-167,"x_max":800,"o":"m 187 758 q 303 714 263 758 q 357 570 344 670 l 380 389 l 628 750 l 800 750 l 419 220 l 467 -106 q 492 -179 474 -157 q 547 -201 509 -201 q 608 -192 578 -201 l 608 -315 q 498 -334 557 -334 q 379 -288 420 -334 q 323 -138 337 -241 l 294 83 l 9 -334 l -167 -334 l 257 252 l 218 528 q 195 602 211 581 q 149 624 179 624 q 102 614 132 624 l 74 736 q 187 758 128 758 z "},"ψ":{"ha":1057,"x_min":89,"x_max":999,"o":"m 546 115 q 768 283 698 134 q 839 750 839 432 l 999 750 q 948 319 999 479 q 790 80 897 160 q 518 -14 684 -1 l 450 -334 l 296 -334 l 364 -14 q 159 66 229 -2 q 89 249 89 134 q 96 334 89 290 l 183 750 l 342 750 l 261 368 q 249 262 249 305 q 286 155 249 193 q 392 113 323 117 l 590 1054 l 745 1054 l 546 115 z "},"ω":{"ha":1076,"x_min":64,"x_max":1013,"o":"m 277 -14 q 120 54 177 -14 q 64 245 64 122 q 109 496 64 366 q 236 750 153 625 l 399 750 q 267 495 313 623 q 220 250 220 367 q 307 114 220 114 q 392 160 361 114 q 443 290 424 205 l 486 494 l 639 494 q 597 297 612 367 q 585 210 582 227 q 663 114 585 114 q 762 169 718 114 q 832 325 806 223 q 859 543 859 427 q 839 750 859 653 l 991 750 q 1013 553 1013 654 q 967 253 1013 386 q 844 54 922 121 q 661 -14 765 -14 q 489 114 526 -14 q 396 16 447 46 q 277 -14 345 -14 z "},"ϊ":{"ha":467,"x_min":68,"x_max":519,"o":"m 296 115 q 397 136 340 115 l 397 16 q 333 -5 374 4 q 250 -14 293 -14 q 68 154 68 -14 q 82 258 68 189 l 186 750 l 346 750 l 240 250 q 231 179 231 204 q 296 115 231 115 m 98 936 q 121 1002 98 977 q 188 1028 145 1028 q 240 1012 220 1028 q 259 964 259 996 q 235 895 259 920 q 172 869 211 869 q 119 885 140 869 q 98 936 98 901 m 357 936 q 381 1002 357 977 q 448 1028 405 1028 q 499 1012 480 1028 q 519 964 519 996 q 495 895 519 920 q 431 869 471 869 q 378 885 399 869 q 357 936 357 901 z "},"ϋ":{"ha":828,"x_min":85,"x_max":770,"o":"m 353 -14 q 154 52 223 -14 q 85 236 85 117 q 102 364 85 284 l 183 750 l 342 750 l 260 364 q 244 245 244 294 q 366 115 244 115 q 548 276 486 115 q 610 750 610 437 l 770 750 q 665 169 770 352 q 353 -14 561 -14 m 288 936 q 312 1002 288 977 q 378 1028 336 1028 q 430 1012 411 1028 q 450 964 450 996 q 426 895 450 920 q 362 869 401 869 q 309 885 330 869 q 288 936 288 901 m 548 936 q 572 1002 548 977 q 638 1028 595 1028 q 690 1012 671 1028 q 709 964 709 996 q 685 895 709 920 q 622 869 661 869 q 569 885 590 869 q 548 936 548 901 z "},"ό":{"ha":796,"x_min":64,"x_max":732,"o":"m 571 476 q 538 590 571 549 q 443 631 505 631 q 330 582 380 631 q 253 451 280 534 q 225 273 225 368 q 259 158 225 198 q 358 118 292 118 q 468 164 419 118 q 544 293 517 210 q 571 476 571 376 m 732 469 q 682 220 732 332 q 546 48 633 108 q 347 -12 460 -12 q 140 65 217 -12 q 64 277 64 143 q 112 524 64 412 q 248 700 161 637 q 450 762 336 762 q 657 684 583 762 q 732 469 732 605 m 414 861 q 525 1112 477 985 l 683 1112 l 683 1095 q 609 974 659 1048 q 509 842 558 900 l 414 842 l 414 861 z "},"ύ":{"ha":828,"x_min":85,"x_max":770,"o":"m 353 -14 q 154 52 223 -14 q 85 236 85 117 q 102 364 85 284 l 183 750 l 342 750 l 260 364 q 244 245 244 294 q 366 115 244 115 q 548 276 486 115 q 610 750 610 437 l 770 750 q 665 169 770 352 q 353 -14 561 -14 m 414 861 q 525 1112 477 985 l 683 1112 l 683 1095 q 609 974 659 1048 q 509 842 558 900 l 414 842 l 414 861 z "},"ώ":{"ha":1076,"x_min":64,"x_max":1013,"o":"m 277 -14 q 120 54 177 -14 q 64 245 64 122 q 109 496 64 366 q 236 750 153 625 l 399 750 q 267 495 313 623 q 220 250 220 367 q 307 114 220 114 q 392 160 361 114 q 443 290 424 205 l 486 494 l 639 494 q 597 297 612 367 q 585 210 582 227 q 663 114 585 114 q 762 169 718 114 q 832 325 806 223 q 859 543 859 427 q 839 750 859 653 l 991 750 q 1013 553 1013 654 q 967 253 1013 386 q 844 54 922 121 q 661 -14 765 -14 q 489 114 526 -14 q 396 16 447 46 q 277 -14 345 -14 m 555 861 q 667 1112 619 985 l 825 1112 l 825 1095 q 750 974 801 1048 q 651 842 700 900 l 555 842 l 555 861 z "},"Ё":{"ha":730,"x_min":47,"x_max":783,"o":"m 574 0 l 47 0 l 257 991 l 783 991 l 754 852 l 389 852 l 332 585 l 672 585 l 644 447 l 302 447 l 237 138 l 603 138 l 574 0 m 330 1165 q 354 1232 330 1206 q 420 1257 378 1257 q 472 1241 453 1257 q 492 1193 492 1225 q 468 1124 492 1149 q 404 1099 444 1099 q 351 1115 372 1099 q 330 1165 330 1131 m 590 1165 q 614 1232 590 1206 q 680 1257 637 1257 q 732 1241 713 1257 q 751 1193 751 1225 q 727 1124 751 1149 q 664 1099 703 1099 q 611 1115 632 1099 q 590 1165 590 1131 z "},"Ђ":{"ha":978,"x_min":119,"x_max":884,"o":"m 589 -14 q 476 5 522 -14 l 476 143 q 570 123 519 123 q 658 155 627 123 q 703 254 688 186 q 719 344 717 322 q 721 382 721 366 q 694 455 721 430 q 604 479 667 479 l 431 479 l 329 0 l 167 0 l 349 852 l 119 852 l 150 991 l 794 991 l 765 852 l 510 852 l 460 618 l 629 618 q 820 561 756 618 q 884 403 884 504 q 858 218 884 338 q 769 42 832 98 q 589 -14 706 -14 z "},"Ѓ":{"ha":679,"x_min":47,"x_max":782,"o":"m 207 0 l 47 0 l 257 991 l 782 991 l 753 852 l 387 852 l 207 0 m 429 1088 q 582 1293 495 1161 l 761 1293 l 761 1280 q 654 1171 724 1236 q 535 1071 583 1106 l 429 1071 l 429 1088 z "},"Є":{"ha":831,"x_min":92,"x_max":890,"o":"m 627 867 q 421 791 509 867 q 290 579 333 716 l 682 579 l 654 441 l 264 441 q 260 370 260 420 q 315 188 260 251 q 481 125 371 125 q 704 171 576 125 l 704 32 q 586 -2 645 9 q 450 -14 526 -14 q 185 87 278 -14 q 92 370 92 189 q 163 697 92 546 q 354 927 235 848 q 627 1006 473 1006 q 890 943 772 1006 l 827 811 q 627 867 724 867 z "},"Ѕ":{"ha":717,"x_min":26,"x_max":734,"o":"m 631 290 q 533 67 631 148 q 262 -14 435 -14 q 26 37 120 -14 l 26 189 q 264 123 144 123 q 410 163 357 123 q 464 273 464 203 q 436 356 464 320 q 319 449 408 393 q 214 532 248 494 q 162 613 180 569 q 144 711 144 658 q 186 865 144 798 q 304 969 228 932 q 476 1006 380 1006 q 734 943 615 1006 l 676 814 q 476 867 567 867 q 357 827 402 867 q 313 724 313 787 q 323 668 313 692 q 354 623 333 644 q 446 558 376 602 q 591 431 551 492 q 631 290 631 370 z "},"Ј":{"ha":415,"x_min":-218,"x_max":425,"o":"m -103 -277 q -218 -260 -174 -277 l -215 -123 q -111 -138 -158 -138 q 61 32 25 -138 l 264 991 l 425 991 l 218 11 q 109 -207 187 -136 q -103 -277 31 -277 z "},"Љ":{"ha":1282,"x_min":-43,"x_max":1206,"o":"m 524 851 l 483 699 q 335 221 389 351 q 216 39 281 91 q 47 -14 150 -14 q -43 1 -3 -14 l -43 138 q 25 123 -2 123 q 101 145 71 123 q 159 215 131 166 q 223 368 187 264 q 307 641 259 471 q 403 991 355 810 l 916 991 l 831 589 l 890 589 q 1125 524 1044 589 q 1206 334 1206 460 q 1101 86 1206 173 q 803 0 997 0 l 545 0 l 724 851 l 524 851 m 825 135 q 986 182 931 135 q 1040 323 1040 230 q 886 453 1040 453 l 802 453 l 733 135 l 825 135 z "},"Њ":{"ha":1278,"x_min":47,"x_max":1200,"o":"m 749 991 l 909 991 l 825 590 l 892 590 q 1122 526 1044 590 q 1200 335 1200 461 q 1097 86 1200 173 q 802 0 994 0 l 539 0 l 635 453 l 304 453 l 208 0 l 47 0 l 257 991 l 418 991 l 334 590 l 663 590 l 749 991 m 822 135 q 982 182 928 135 q 1036 322 1036 230 q 882 453 1036 453 l 798 453 l 729 135 l 822 135 z "},"Ћ":{"ha":978,"x_min":119,"x_max":882,"o":"m 721 380 q 691 456 721 432 q 599 479 662 479 l 431 479 l 329 0 l 167 0 l 349 852 l 119 852 l 150 991 l 794 991 l 765 852 l 510 852 l 460 618 l 629 618 q 882 397 882 618 q 867 281 882 351 l 810 0 l 646 0 l 711 300 q 721 380 721 351 z "},"Ќ":{"ha":802,"x_min":47,"x_max":928,"o":"m 741 0 l 559 0 l 311 489 l 208 0 l 47 0 l 257 991 l 418 991 l 317 518 l 739 991 l 928 991 l 481 498 l 741 0 m 485 1088 q 637 1293 551 1161 l 817 1293 l 817 1280 q 709 1171 780 1236 q 591 1071 639 1106 l 485 1071 l 485 1088 z "},"Ў":{"ha":812,"x_min":8,"x_max":940,"o":"m 136 -14 q 8 7 62 -14 l 8 154 q 132 127 64 127 q 235 161 190 127 q 335 285 280 194 l 134 991 l 296 991 l 408 559 q 441 410 435 451 q 507 545 475 490 l 761 991 l 940 991 l 504 268 q 379 92 431 147 q 270 11 328 36 q 136 -14 212 -14 m 846 1297 q 742 1125 819 1179 q 526 1071 664 1071 q 343 1118 406 1071 q 279 1259 279 1165 q 285 1297 279 1278 l 424 1297 l 421 1261 q 538 1171 421 1171 q 647 1201 610 1171 q 699 1297 685 1232 l 846 1297 z "},"Џ":{"ha":954,"x_min":47,"x_max":961,"o":"m 257 991 l 419 991 l 239 139 l 619 139 l 800 991 l 961 991 l 751 0 l 478 0 l 419 -273 l 262 -273 l 321 0 l 47 0 l 257 991 z "},"А":{"ha":821,"x_min":-82,"x_max":747,"o":"m 561 275 l 232 275 l 90 0 l -82 0 l 449 993 l 635 993 l 747 0 l 589 0 l 561 275 m 550 416 q 519 758 523 699 q 515 852 515 817 q 419 644 478 758 l 302 416 l 550 416 z "},"Б":{"ha":803,"x_min":49,"x_max":785,"o":"m 407 589 q 643 523 563 589 q 722 329 722 458 q 617 85 722 170 q 319 0 513 0 l 49 0 l 258 991 l 785 991 l 755 852 l 389 852 l 334 589 l 407 589 m 336 135 q 503 182 447 135 q 558 319 558 229 q 404 453 558 453 l 304 453 l 236 135 l 336 135 z "},"В":{"ha":846,"x_min":47,"x_max":832,"o":"m 528 991 q 755 935 678 991 q 832 766 832 878 q 773 602 832 667 q 611 515 715 536 l 611 510 q 725 440 684 491 q 765 315 765 389 q 663 84 765 168 q 380 0 562 0 l 47 0 l 257 991 l 528 991 m 332 582 l 467 582 q 612 623 561 582 q 664 739 664 664 q 513 856 664 856 l 390 856 l 332 582 m 236 136 l 387 136 q 544 182 487 136 q 600 314 600 229 q 559 415 600 380 q 440 450 519 450 l 304 450 l 236 136 z "},"Г":{"ha":679,"x_min":47,"x_max":782,"o":"m 207 0 l 47 0 l 257 991 l 782 991 l 753 852 l 387 852 l 207 0 z "},"Д":{"ha":930,"x_min":-123,"x_max":904,"o":"m 604 -272 l 663 0 l 89 0 l 31 -272 l -123 -272 l -37 139 l 40 139 q 274 542 164 313 q 449 991 383 771 l 904 991 l 724 139 l 850 139 l 762 -272 l 604 -272 m 711 851 l 558 851 q 411 485 504 686 q 221 139 318 284 l 558 139 l 711 851 z "},"Е":{"ha":730,"x_min":47,"x_max":783,"o":"m 574 0 l 47 0 l 257 991 l 783 991 l 754 852 l 389 852 l 332 585 l 672 585 l 644 447 l 302 447 l 237 138 l 603 138 l 574 0 z "},"Ж":{"ha":1140,"x_min":-77,"x_max":1260,"o":"m 366 525 l 147 991 l 313 991 l 525 522 l 625 991 l 781 991 l 681 522 l 1079 991 l 1260 991 l 835 497 l 1061 0 l 890 0 l 673 492 l 571 0 l 415 0 l 518 490 l 110 0 l -77 0 l 366 525 z "},"З":{"ha":783,"x_min":11,"x_max":766,"o":"m 766 781 q 696 602 766 672 q 500 515 625 532 l 500 513 q 646 443 593 500 q 700 296 700 385 q 590 68 700 151 q 288 -14 480 -14 q 132 -1 198 -14 q 11 40 66 12 l 11 184 q 139 135 68 153 q 285 117 211 117 q 468 166 402 117 q 533 302 533 216 q 476 415 533 380 q 315 449 420 449 l 195 449 l 222 578 l 334 578 q 531 624 463 578 q 600 751 600 670 q 563 843 600 812 q 458 873 526 873 q 216 791 341 873 l 155 904 q 320 983 240 960 q 494 1006 400 1006 q 692 944 617 1006 q 766 781 766 882 z "},"И":{"ha":1008,"x_min":47,"x_max":1015,"o":"m 257 991 l 407 991 q 265 332 283 406 q 239 227 248 257 l 244 227 l 822 991 l 1015 991 l 806 0 l 657 0 q 775 561 733 361 q 825 779 817 761 l 821 779 l 241 0 l 47 0 l 257 991 z "},"Й":{"ha":1008,"x_min":47,"x_max":1015,"o":"m 257 991 l 407 991 q 265 332 283 406 q 239 227 248 257 l 244 227 l 822 991 l 1015 991 l 806 0 l 657 0 q 775 561 733 361 q 825 779 817 761 l 821 779 l 241 0 l 47 0 l 257 991 m 949 1297 q 845 1125 923 1179 q 630 1071 768 1071 q 447 1118 510 1071 q 383 1259 383 1165 q 389 1297 383 1278 l 528 1297 l 525 1261 q 642 1171 525 1171 q 751 1201 713 1171 q 802 1297 789 1232 l 949 1297 z "},"К":{"ha":802,"x_min":47,"x_max":928,"o":"m 741 0 l 559 0 l 311 489 l 208 0 l 47 0 l 257 991 l 418 991 l 317 518 l 739 991 l 928 991 l 481 498 l 741 0 z "},"Л":{"ha":929,"x_min":-43,"x_max":936,"o":"m 524 851 q 369 313 432 498 q 237 56 307 127 q 47 -16 167 -16 q -43 1 -7 -16 l -43 138 q 25 123 -5 123 q 101 145 71 123 q 159 215 131 166 q 223 368 187 264 q 307 641 259 471 q 403 991 355 810 l 936 991 l 725 0 l 564 0 l 746 851 l 524 851 z "},"М":{"ha":1192,"x_min":46,"x_max":1197,"o":"m 439 0 l 361 823 l 357 823 q 319 593 351 743 l 195 0 l 46 0 l 256 991 l 475 991 l 549 212 l 553 212 l 964 991 l 1197 991 l 990 0 l 836 0 l 960 591 q 1018 823 986 718 l 1014 823 l 578 0 l 439 0 z "},"Н":{"ha":957,"x_min":47,"x_max":962,"o":"m 753 0 l 591 0 l 686 447 l 302 447 l 208 0 l 47 0 l 257 991 l 418 991 l 332 586 l 715 586 l 802 991 l 962 991 l 753 0 z "},"О":{"ha":1007,"x_min":92,"x_max":964,"o":"m 964 625 q 899 288 964 436 q 722 63 835 140 q 460 -14 609 -14 q 188 88 284 -14 q 92 368 92 189 q 158 699 92 549 q 341 928 225 848 q 604 1007 457 1007 q 869 906 774 1007 q 964 625 964 805 m 591 868 q 422 803 498 868 q 303 622 346 738 q 260 370 260 507 q 315 189 260 252 q 469 125 370 125 q 638 190 563 125 q 754 369 713 254 q 796 624 796 484 q 743 804 796 739 q 591 868 689 868 z "},"П":{"ha":954,"x_min":47,"x_max":961,"o":"m 751 0 l 589 0 l 770 852 l 389 852 l 208 0 l 47 0 l 257 991 l 961 991 l 751 0 z "},"Р":{"ha":796,"x_min":47,"x_max":796,"o":"m 315 507 l 379 507 q 566 561 500 507 q 632 714 632 615 q 592 822 632 788 q 471 856 553 856 l 390 856 l 315 507 m 796 720 q 681 461 796 551 q 361 371 566 371 l 286 371 l 208 0 l 47 0 l 257 991 l 484 991 q 718 923 639 991 q 796 720 796 855 z "},"С":{"ha":831,"x_min":92,"x_max":890,"o":"m 627 867 q 440 806 522 867 q 309 630 358 746 q 260 376 260 515 q 316 190 260 254 q 481 125 372 125 q 704 171 576 125 l 704 32 q 450 -14 582 -14 q 187 87 282 -14 q 92 370 92 188 q 163 697 92 546 q 354 927 235 848 q 627 1006 473 1006 q 890 943 774 1006 l 827 811 q 736 850 784 834 q 627 867 688 867 z "},"Т":{"ha":714,"x_min":119,"x_max":827,"o":"m 358 0 l 197 0 l 376 852 l 119 852 l 150 991 l 827 991 l 798 852 l 539 852 l 358 0 z "},"У":{"ha":812,"x_min":8,"x_max":940,"o":"m 136 -14 q 8 7 62 -14 l 8 154 q 132 127 64 127 q 235 161 190 127 q 335 285 280 194 l 134 991 l 296 991 l 408 559 q 441 410 435 451 q 507 545 475 490 l 761 991 l 940 991 l 504 268 q 379 92 431 147 q 270 11 328 36 q 136 -14 212 -14 z "},"Ф":{"ha":1083,"x_min":92,"x_max":1040,"o":"m 376 -14 l 410 138 q 174 233 257 149 q 92 458 92 316 q 217 764 92 653 q 568 884 342 876 l 593 1006 l 749 1006 l 724 884 q 959 790 877 872 q 1040 568 1040 707 q 985 347 1040 442 q 822 197 929 251 q 566 139 715 142 l 532 -14 l 376 -14 m 593 269 q 803 354 728 277 q 878 564 878 432 q 830 699 878 649 q 696 750 782 748 l 593 269 m 539 750 q 330 670 406 747 q 254 461 254 593 q 300 324 254 375 q 436 269 346 273 l 539 750 z "},"Х":{"ha":781,"x_min":-75,"x_max":893,"o":"m 705 0 l 532 0 l 401 401 l 104 0 l -75 0 l 322 522 l 153 991 l 319 991 l 440 625 l 713 991 l 893 991 l 519 510 l 705 0 z "},"Ц":{"ha":971,"x_min":46,"x_max":950,"o":"m 896 136 l 808 -273 l 650 -273 l 708 0 l 46 0 l 256 991 l 418 991 l 237 139 l 608 139 l 789 991 l 950 991 l 768 136 l 896 136 z "},"Ч":{"ha":911,"x_min":147,"x_max":918,"o":"m 546 0 l 629 393 q 376 335 502 335 q 207 388 267 335 q 147 538 147 441 q 158 633 147 579 l 233 991 l 395 991 l 322 646 q 311 571 311 600 q 425 473 311 473 q 659 525 529 473 l 755 991 l 918 991 l 708 0 l 546 0 z "},"Ш":{"ha":1360,"x_min":46,"x_max":1367,"o":"m 46 0 l 256 991 l 421 991 l 239 139 l 549 139 l 729 991 l 895 991 l 714 139 l 1022 139 l 1203 991 l 1367 991 l 1157 0 l 46 0 z "},"Щ":{"ha":1388,"x_min":46,"x_max":1367,"o":"m 1312 136 l 1225 -273 l 1068 -273 l 1126 0 l 46 0 l 256 991 l 421 991 l 239 139 l 549 139 l 729 991 l 895 991 l 714 139 l 1022 139 l 1203 991 l 1367 991 l 1186 136 l 1312 136 z "},"Ъ":{"ha":917,"x_min":119,"x_max":840,"o":"m 525 589 q 760 523 680 589 q 840 329 840 458 q 736 85 840 171 q 437 0 632 0 l 168 0 l 349 852 l 119 852 l 150 991 l 541 991 l 454 589 l 525 589 m 453 135 q 619 182 564 135 q 675 319 675 229 q 635 422 675 391 q 521 453 596 453 l 427 453 l 358 135 l 453 135 z "},"Ы":{"ha":1139,"x_min":47,"x_max":1146,"o":"m 936 0 l 772 0 l 982 991 l 1146 991 l 936 0 m 418 991 l 334 589 l 393 589 q 628 524 547 589 q 708 329 708 458 q 604 85 708 171 q 306 0 500 0 l 47 0 l 257 991 l 418 991 m 321 135 q 487 182 431 135 q 543 319 543 229 q 504 421 543 390 q 389 453 464 453 l 304 453 l 236 135 l 321 135 z "},"Ь":{"ha":796,"x_min":47,"x_max":718,"o":"m 418 991 l 334 589 l 403 589 q 638 523 559 589 q 718 329 718 458 q 613 85 718 170 q 315 0 509 0 l 47 0 l 257 991 l 418 991 m 332 135 q 498 182 441 135 q 554 319 554 229 q 400 453 554 453 l 304 453 l 236 135 l 332 135 z "},"Э":{"ha":831,"x_min":16,"x_max":787,"o":"m 258 125 q 599 441 527 125 l 205 441 l 233 579 l 619 579 l 621 628 q 567 805 621 743 q 414 867 513 867 q 317 857 366 867 q 196 819 268 846 l 154 951 q 433 1006 290 1006 q 695 908 604 1006 q 787 629 787 810 q 722 287 787 436 q 541 62 657 138 q 265 -14 424 -14 q 131 -1 191 -14 q 16 41 70 11 l 16 189 q 135 141 77 157 q 258 125 193 125 z "},"Ю":{"ha":1378,"x_min":47,"x_max":1335,"o":"m 1335 625 q 1274 289 1335 435 q 1107 64 1214 142 q 856 -14 1000 -14 q 595 87 687 -14 q 503 368 503 189 q 507 447 503 412 l 302 447 l 208 0 l 47 0 l 257 991 l 418 991 l 332 586 l 529 586 q 701 895 577 782 q 996 1007 825 1007 q 1245 906 1155 1007 q 1335 625 1335 806 m 978 868 q 821 803 891 868 q 710 623 750 739 q 671 370 671 507 q 722 188 671 251 q 865 125 773 125 q 1020 186 952 125 q 1128 363 1088 248 q 1168 624 1168 477 q 1118 805 1168 741 q 978 868 1067 868 z "},"Я":{"ha":821,"x_min":-68,"x_max":828,"o":"m 422 397 l 125 0 l -68 0 l 281 450 q 179 546 210 492 q 149 672 149 600 q 249 907 149 823 q 533 991 350 991 l 828 991 l 618 0 l 457 0 l 541 397 l 422 397 m 639 856 l 530 856 q 371 809 425 856 q 317 676 317 763 q 360 569 317 607 q 482 532 404 532 l 570 532 l 639 856 z "},"а":{"ha":804,"x_min":64,"x_max":781,"o":"m 271 -14 q 119 55 175 -14 q 64 249 64 124 q 111 505 64 386 q 241 694 158 625 q 422 764 323 764 q 536 733 488 764 q 610 643 583 702 l 616 643 l 659 750 l 781 750 l 621 0 l 497 0 l 511 119 l 507 119 q 271 -14 400 -14 m 329 115 q 438 168 385 115 q 526 309 492 220 q 561 501 561 397 q 529 597 561 561 q 446 633 497 633 q 337 581 388 633 q 256 439 286 529 q 225 253 225 349 q 253 150 225 184 q 329 115 280 115 z "},"б":{"ha":782,"x_min":71,"x_max":829,"o":"m 71 306 q 116 605 71 456 q 238 851 161 754 q 414 983 315 948 q 576 1025 459 1002 q 811 1063 694 1048 l 829 928 l 758 917 q 460 850 530 884 q 343 749 390 817 q 269 578 296 681 l 271 578 q 383 668 321 637 q 510 699 445 699 q 661 635 607 699 q 715 449 715 571 q 668 207 715 315 q 537 42 621 98 q 343 -14 454 -14 q 140 68 210 -14 q 71 306 71 150 m 357 117 q 455 157 412 117 q 526 275 498 197 q 554 437 554 353 q 456 574 554 574 q 347 536 405 574 q 248 439 289 498 q 232 300 232 362 q 357 117 232 117 z "},"в":{"ha":771,"x_min":64,"x_max":730,"o":"m 469 764 q 662 713 593 764 q 730 568 730 662 q 554 379 730 419 l 554 376 q 685 221 685 341 q 648 100 685 153 q 541 17 611 47 q 371 -14 470 -14 q 143 65 222 -14 q 64 293 64 144 q 114 536 64 428 q 256 704 164 644 q 469 764 349 764 m 225 322 l 224 304 l 224 285 q 262 152 224 198 q 376 106 300 106 q 488 138 448 106 q 528 224 528 170 q 489 298 528 273 q 366 322 451 322 l 225 322 m 467 642 q 328 588 386 642 q 244 439 271 534 l 389 439 q 526 470 479 439 q 574 555 574 501 q 547 617 574 593 q 467 642 520 642 z "},"г":{"ha":650,"x_min":25,"x_max":612,"o":"m 125 707 q 380 764 253 764 q 553 715 493 764 q 612 576 612 667 q 564 442 612 497 q 396 342 515 387 q 233 269 275 302 q 191 191 191 236 q 220 131 191 151 q 304 110 250 110 q 416 127 362 110 q 521 168 471 145 l 521 40 q 396 -2 454 9 q 275 -14 339 -14 q 91 39 157 -14 q 25 186 25 91 q 52 291 25 245 q 130 370 79 336 q 317 454 182 404 q 419 507 387 479 q 452 570 452 534 q 358 639 452 639 q 165 589 273 639 l 125 707 z "},"д":{"ha":808,"x_min":64,"x_max":760,"o":"m 760 636 q 704 299 760 453 q 553 66 649 146 q 330 -14 456 -14 q 134 61 203 -14 q 64 269 64 136 q 106 493 64 391 q 227 654 149 595 q 401 713 304 713 q 595 591 531 713 l 599 591 l 600 614 l 600 633 q 556 865 600 791 q 416 939 511 939 q 275 908 344 939 l 239 1031 q 336 1059 281 1049 q 439 1069 391 1069 q 760 636 760 1069 m 343 117 q 487 208 426 117 q 576 457 549 298 q 520 553 559 518 q 429 589 481 589 q 326 546 373 589 q 252 430 278 504 q 225 267 225 355 q 256 156 225 195 q 343 117 288 117 z "},"е":{"ha":729,"x_min":64,"x_max":690,"o":"m 450 642 q 328 583 385 642 q 245 429 271 525 l 265 429 q 465 466 393 429 q 536 568 536 502 q 515 622 536 603 q 450 642 493 642 m 347 -14 q 139 62 214 -14 q 64 272 64 137 q 116 522 64 406 q 259 701 169 637 q 460 764 349 764 q 630 714 569 764 q 690 575 690 665 q 577 382 690 452 q 256 313 465 313 l 227 313 l 225 292 l 225 272 q 263 154 225 197 q 378 111 302 111 q 475 124 427 111 q 589 168 523 137 l 589 41 q 469 -1 524 12 q 347 -14 414 -14 z "},"ж":{"ha":1246,"x_min":-20,"x_max":1272,"o":"m 538 318 l 431 318 q 298 75 394 164 q 68 -14 201 -14 q -20 -4 22 -14 l 5 123 q 66 115 38 115 q 182 163 131 115 q 261 295 233 212 q 290 472 290 378 q 260 592 290 551 q 175 633 230 633 q 96 619 137 633 l 96 749 q 203 764 147 764 q 385 688 320 764 q 450 475 450 613 q 447 431 450 456 l 561 431 l 629 750 l 779 750 l 710 431 l 818 431 q 951 675 855 586 q 1179 764 1047 764 q 1272 754 1236 764 l 1244 627 q 1181 633 1215 633 q 1070 589 1120 633 q 990 460 1020 545 q 960 278 960 376 q 988 158 960 200 q 1074 115 1017 115 q 1153 131 1107 115 l 1153 0 q 1047 -14 1105 -14 q 865 60 930 -14 q 800 273 800 134 l 800 296 l 802 318 l 686 318 l 618 0 l 469 0 l 538 318 z "},"з":{"ha":667,"x_min":7,"x_max":629,"o":"m 285 450 q 427 477 384 450 q 471 559 471 505 q 359 639 471 639 q 158 589 275 639 l 117 707 q 386 764 250 764 q 566 716 502 764 q 629 583 629 669 q 584 460 629 509 q 454 393 538 412 l 454 389 q 549 334 515 373 q 582 233 582 294 q 491 51 582 115 q 237 -14 401 -14 q 113 -1 175 -14 q 7 35 51 12 l 7 172 q 240 113 122 113 q 375 145 327 113 q 424 233 424 177 q 392 306 424 282 q 293 329 361 329 l 183 329 l 210 450 l 285 450 z "},"и":{"ha":819,"x_min":75,"x_max":786,"o":"m 343 750 l 256 336 q 235 205 235 241 q 321 115 235 115 q 418 154 370 115 q 503 264 466 193 q 561 432 541 336 l 628 750 l 786 750 l 628 0 l 503 0 l 517 139 l 511 139 q 395 23 456 60 q 265 -14 335 -14 q 125 38 174 -14 q 75 186 75 90 q 83 270 75 229 q 100 354 92 312 l 183 750 l 343 750 z "},"й":{"ha":819,"x_min":75,"x_max":812,"o":"m 343 750 l 256 336 q 235 205 235 241 q 321 115 235 115 q 418 154 370 115 q 503 264 466 193 q 561 432 541 336 l 628 750 l 786 750 l 628 0 l 503 0 l 517 139 l 511 139 q 395 23 456 60 q 265 -14 335 -14 q 125 38 174 -14 q 75 186 75 90 q 83 270 75 229 q 100 354 92 312 l 183 750 l 343 750 m 812 1068 q 708 896 786 950 q 493 842 631 842 q 310 889 373 842 q 246 1029 246 936 q 252 1068 246 1048 l 391 1068 l 388 1032 q 505 942 388 942 q 614 972 576 942 q 665 1068 652 1002 l 812 1068 z "},"к":{"ha":732,"x_min":32,"x_max":789,"o":"m 600 750 l 789 750 l 440 376 l 661 0 l 478 0 l 269 370 l 192 0 l 32 0 l 192 750 l 350 750 l 275 395 l 600 750 z "},"л":{"ha":800,"x_min":-53,"x_max":761,"o":"m 607 0 l 447 0 l 581 624 q 533 629 555 629 q 452 608 484 629 q 393 535 420 586 q 315 336 366 484 q 220 106 256 166 q 138 17 184 46 q 25 -12 91 -12 q -53 1 -18 -12 l -53 135 q -1 125 -28 125 q 57 147 32 125 q 105 214 82 169 q 175 392 129 259 q 258 595 224 534 q 332 691 292 656 q 428 743 373 726 q 561 760 483 760 q 761 730 667 760 l 607 0 z "},"м":{"ha":1028,"x_min":28,"x_max":996,"o":"m 810 572 q 807 568 808 570 q 492 0 806 566 l 372 0 l 306 456 q 294 572 298 508 l 174 0 l 28 0 l 187 750 l 389 750 l 453 290 l 464 171 q 542 328 505 267 l 783 750 l 996 750 l 836 0 l 688 0 l 810 572 z "},"н":{"ha":843,"x_min":32,"x_max":810,"o":"m 351 750 l 288 449 l 587 449 l 652 750 l 810 750 l 652 0 l 492 0 l 559 323 l 261 323 l 192 0 l 32 0 l 193 750 l 351 750 z "},"о":{"ha":796,"x_min":64,"x_max":732,"o":"m 571 476 q 538 590 571 549 q 443 631 505 631 q 330 582 380 631 q 253 451 280 534 q 225 273 225 368 q 259 158 225 198 q 358 118 292 118 q 468 164 419 118 q 544 293 517 210 q 571 476 571 376 m 732 469 q 682 220 732 332 q 546 48 633 108 q 347 -12 460 -12 q 140 65 217 -12 q 64 277 64 143 q 112 524 64 412 q 248 700 161 637 q 450 762 336 762 q 657 684 583 762 q 732 469 732 605 z "},"п":{"ha":819,"x_min":32,"x_max":745,"o":"m 476 0 l 572 456 q 585 545 585 517 q 497 633 585 633 q 401 595 448 633 q 315 483 353 556 q 258 318 277 410 l 192 0 l 32 0 l 192 750 l 317 750 l 302 611 l 309 611 q 425 727 365 691 q 554 764 484 764 q 695 712 645 764 q 745 566 745 661 q 729 443 745 519 l 636 0 l 476 0 z "},"р":{"ha":814,"x_min":-37,"x_max":749,"o":"m 392 -14 q 210 106 269 -14 l 203 106 q 186 -20 198 40 l 121 -334 l -37 -334 l 192 750 l 317 750 l 302 623 l 309 623 q 542 764 415 764 q 694 694 639 764 q 749 500 749 624 q 701 241 749 361 q 572 54 654 121 q 392 -14 490 -14 m 482 633 q 373 579 427 633 q 284 437 319 526 q 250 253 250 348 q 282 152 250 188 q 371 115 313 115 q 479 169 429 115 q 558 311 529 222 q 587 497 587 400 q 482 633 587 633 z "},"с":{"ha":647,"x_min":64,"x_max":660,"o":"m 343 -14 q 137 58 210 -14 q 64 264 64 130 q 114 519 64 404 q 254 699 163 634 q 458 764 344 764 q 660 722 570 764 l 612 597 q 463 633 530 633 q 293 529 361 633 q 225 272 225 425 q 263 156 225 197 q 368 115 301 115 q 462 130 418 115 q 550 167 506 145 l 550 35 q 343 -14 455 -14 z "},"т":{"ha":1234,"x_min":32,"x_max":1160,"o":"m 547 764 q 720 604 696 764 l 725 604 q 841 723 776 683 q 975 764 905 764 q 1113 712 1065 764 q 1160 566 1160 660 q 1145 443 1160 522 l 1050 0 l 890 0 l 987 456 q 1000 546 1000 520 q 918 633 1000 633 q 782 549 845 633 q 689 326 718 465 l 621 0 l 461 0 l 558 456 q 570 542 570 511 q 490 633 570 633 q 352 547 416 633 q 258 318 289 461 l 192 0 l 32 0 l 192 750 l 317 750 l 302 611 l 309 611 q 547 764 409 764 z "},"у":{"ha":681,"x_min":-115,"x_max":750,"o":"m 68 750 l 225 750 l 268 390 q 279 272 274 348 q 283 149 283 195 l 288 149 q 379 361 346 294 l 578 750 l 750 750 l 283 -118 q 151 -282 222 -230 q -18 -334 79 -334 q -115 -321 -70 -334 l -115 -193 q -31 -204 -64 -204 q 60 -175 20 -204 q 144 -69 101 -145 l 179 -7 l 68 750 z "},"ф":{"ha":990,"x_min":64,"x_max":928,"o":"m 652 758 q 856 658 785 741 q 928 444 928 576 q 872 212 928 315 q 718 52 817 109 q 489 -12 618 -5 l 421 -334 l 271 -334 l 340 -9 q 136 89 209 6 q 64 306 64 172 q 119 536 64 433 q 274 696 175 640 q 503 758 372 753 l 566 1055 l 715 1055 l 652 758 m 227 314 q 264 177 227 228 q 367 118 301 125 l 476 632 q 345 587 401 627 q 258 474 290 547 q 227 314 227 400 m 517 118 q 646 165 591 125 q 733 279 701 205 q 765 440 765 353 q 728 572 765 524 q 625 629 690 621 l 517 118 z "},"х":{"ha":700,"x_min":-58,"x_max":751,"o":"m 332 262 l 125 0 l -58 0 l 264 386 l 107 750 l 273 750 l 371 497 l 566 750 l 751 750 l 439 378 l 607 0 l 440 0 l 332 262 z "},"ц":{"ha":843,"x_min":74,"x_max":786,"o":"m 343 750 l 245 293 q 235 205 235 241 q 321 115 235 115 q 464 202 397 115 q 561 432 530 288 l 628 750 l 786 750 l 676 229 q 668 167 668 190 q 680 131 668 144 q 715 118 692 118 q 772 127 738 118 l 688 -265 l 534 -265 l 595 -5 q 535 42 555 9 q 511 129 515 75 l 507 129 q 265 -14 408 -14 q 124 38 174 -14 q 74 186 74 90 q 92 317 74 232 l 183 750 l 343 750 z "},"ч":{"ha":799,"x_min":109,"x_max":765,"o":"m 322 750 l 282 562 q 269 468 269 504 q 294 397 269 420 q 361 375 319 375 q 499 447 444 375 q 589 669 555 519 l 607 750 l 765 750 l 606 0 l 446 0 l 489 207 q 508 287 497 248 q 528 358 519 326 l 522 358 q 301 245 431 245 q 158 298 207 245 q 109 449 109 351 q 126 582 109 503 l 163 750 l 322 750 z "},"ш":{"ha":1234,"x_min":74,"x_max":1202,"o":"m 772 750 l 675 294 q 664 208 664 240 q 743 117 664 117 q 881 202 818 117 q 975 432 943 288 l 1042 750 l 1202 750 l 1042 0 l 917 0 l 930 139 l 925 139 q 686 -14 825 -14 q 567 29 609 -14 q 514 146 524 71 l 509 146 q 393 27 458 67 q 258 -14 328 -14 q 121 38 168 -14 q 74 184 74 90 q 89 307 74 228 l 183 750 l 343 750 l 245 294 q 233 204 233 233 q 315 117 233 117 q 452 201 389 117 q 545 424 515 286 l 612 750 l 772 750 z "},"щ":{"ha":1257,"x_min":74,"x_max":1202,"o":"m 772 750 l 675 293 q 664 208 664 241 q 683 139 664 162 q 743 117 701 117 q 881 202 818 117 q 975 432 943 288 l 1042 750 l 1202 750 l 1090 229 q 1083 167 1083 191 q 1096 131 1083 143 q 1131 118 1109 118 q 1187 127 1155 118 l 1103 -265 l 950 -265 l 1010 -5 q 924 131 932 22 l 921 131 q 686 -14 821 -14 q 567 29 609 -14 q 514 146 524 71 l 509 146 q 393 27 458 67 q 258 -14 329 -14 q 121 38 168 -14 q 74 184 74 90 q 89 307 74 224 l 183 750 l 343 750 l 245 293 q 233 204 233 235 q 315 117 233 117 q 452 201 388 117 q 545 424 515 285 l 612 750 l 772 750 z "},"ъ":{"ha":879,"x_min":60,"x_max":796,"o":"m 414 433 q 562 450 486 450 q 735 397 673 450 q 796 249 796 344 q 758 111 796 170 q 647 19 720 52 q 472 -14 574 -14 q 280 43 344 -14 q 216 203 216 100 q 233 330 216 255 l 296 624 l 60 624 l 86 750 l 482 750 l 414 433 m 514 330 q 390 317 460 330 q 375 212 375 246 q 490 106 375 106 q 597 140 557 106 q 637 233 637 174 q 608 307 637 283 q 514 330 578 330 z "},"ы":{"ha":1059,"x_min":79,"x_max":1025,"o":"m 345 750 l 277 433 q 419 450 361 450 q 581 397 522 450 q 639 252 639 345 q 556 58 639 130 q 330 -14 474 -14 q 141 43 203 -14 q 79 203 79 100 q 94 332 79 261 l 184 750 l 345 750 m 366 330 q 252 317 317 330 q 244 282 248 297 q 240 256 241 268 q 238 233 239 243 q 237 211 237 222 q 343 106 237 106 q 444 141 406 106 q 481 235 481 176 q 452 309 481 287 q 366 330 422 330 m 865 0 l 707 0 l 865 750 l 1025 750 l 865 0 z "},"ь":{"ha":751,"x_min":79,"x_max":668,"o":"m 275 433 q 432 450 351 450 q 607 397 547 450 q 668 249 668 344 q 629 112 668 171 q 515 19 589 52 q 338 -14 441 -14 q 143 44 206 -14 q 79 204 79 101 q 94 330 79 264 l 184 750 l 345 750 l 275 433 m 386 330 q 252 317 324 330 q 239 254 242 271 q 236 212 236 236 q 357 106 236 106 q 469 140 429 106 q 510 233 510 174 q 479 307 510 283 q 386 330 448 330 z "},"э":{"ha":652,"x_min":17,"x_max":587,"o":"m 310 764 q 515 686 444 764 q 587 461 587 608 q 541 212 587 319 q 404 45 494 104 q 191 -14 315 -14 q 91 -4 137 -14 q 17 21 45 6 l 17 158 q 189 117 108 117 q 331 167 273 117 q 411 322 389 218 l 122 322 l 146 441 l 427 441 l 427 464 q 285 633 427 633 q 206 622 243 633 q 132 595 170 611 l 87 713 q 310 764 195 764 z "},"ю":{"ha":1122,"x_min":32,"x_max":1057,"o":"m 1057 469 q 1011 221 1057 332 q 882 48 965 109 q 689 -12 799 -12 q 488 65 560 -12 q 416 275 416 142 l 418 323 l 261 323 l 192 0 l 32 0 l 193 750 l 351 750 l 288 449 l 437 449 q 569 681 479 599 q 786 762 660 762 q 986 685 914 762 q 1057 469 1057 607 m 778 631 q 675 585 721 631 q 603 453 630 539 q 575 273 575 367 q 606 160 575 201 q 700 118 636 118 q 799 164 754 118 q 870 294 844 211 q 896 476 896 376 q 864 591 896 551 q 778 631 833 631 z "},"я":{"ha":770,"x_min":-22,"x_max":734,"o":"m 412 288 q 339 265 370 288 q 285 194 309 243 q 205 59 234 95 q 141 6 176 23 q 56 -11 105 -11 q -22 1 7 -11 l -22 131 q 21 122 2 122 q 72 140 51 122 q 118 208 93 159 q 181 300 152 272 q 245 339 210 328 q 127 504 127 379 q 210 684 127 618 q 436 750 292 750 l 734 750 l 576 0 l 418 0 l 481 288 l 412 288 m 425 628 q 325 595 361 628 q 288 505 288 563 q 320 431 288 454 q 410 407 353 407 l 505 407 l 551 628 l 425 628 z "},"ё":{"ha":729,"x_min":64,"x_max":690,"o":"m 450 642 q 328 583 385 642 q 245 429 271 525 l 265 429 q 465 466 393 429 q 536 568 536 502 q 515 622 536 603 q 450 642 493 642 m 347 -14 q 139 62 214 -14 q 64 272 64 137 q 116 522 64 406 q 259 701 169 637 q 460 764 349 764 q 630 714 569 764 q 690 575 690 665 q 577 382 690 452 q 256 313 465 313 l 227 313 l 225 292 l 225 272 q 263 154 225 197 q 378 111 302 111 q 475 124 427 111 q 589 168 523 137 l 589 41 q 469 -1 524 12 q 347 -14 414 -14 m 260 936 q 284 1002 260 977 q 351 1028 308 1028 q 402 1012 383 1028 q 422 964 422 996 q 398 895 422 920 q 334 869 374 869 q 281 885 302 869 q 260 936 260 901 m 520 936 q 544 1002 520 977 q 610 1028 568 1028 q 662 1012 643 1028 q 682 964 682 996 q 657 895 682 920 q 594 869 633 869 q 541 885 562 869 q 520 936 520 901 z "},"ђ":{"ha":819,"x_min":32,"x_max":737,"o":"m 390 937 l 610 937 l 586 827 l 368 827 l 357 777 q 309 596 342 701 l 314 596 q 547 730 415 730 q 688 677 640 730 q 737 526 737 624 q 722 410 737 475 l 615 -94 q 528 -276 589 -218 q 367 -334 467 -334 q 267 -318 303 -334 l 267 -187 q 346 -203 307 -203 q 460 -75 433 -203 l 566 422 q 578 509 578 476 q 492 600 578 600 q 350 515 416 600 q 253 283 283 431 l 192 0 l 32 0 l 207 827 l 102 827 l 126 937 l 231 937 l 256 1055 l 415 1055 l 390 937 z "},"ѓ":{"ha":650,"x_min":25,"x_max":680,"o":"m 125 707 q 380 764 253 764 q 553 715 493 764 q 612 576 612 667 q 564 442 612 497 q 396 342 515 387 q 233 269 275 302 q 191 191 191 236 q 220 131 191 151 q 304 110 250 110 q 416 127 362 110 q 521 168 471 145 l 521 40 q 396 -2 454 9 q 275 -14 339 -14 q 91 39 157 -14 q 25 186 25 91 q 52 291 25 245 q 130 370 79 336 q 317 454 182 404 q 419 507 387 479 q 452 570 452 534 q 358 639 452 639 q 165 589 273 639 l 125 707 m 349 859 q 501 1064 414 932 l 680 1064 l 680 1051 q 573 942 644 1006 q 454 842 503 877 l 349 842 l 349 859 z "},"є":{"ha":647,"x_min":64,"x_max":660,"o":"m 343 -14 q 137 59 210 -14 q 64 265 64 132 q 115 523 64 406 q 254 702 165 640 q 458 764 342 764 q 660 722 570 764 l 612 597 q 463 633 530 633 q 331 582 387 633 q 249 441 275 531 l 533 441 l 507 322 l 227 322 l 225 298 l 225 272 q 261 158 225 200 q 368 115 297 115 q 448 126 408 115 q 550 167 489 136 l 550 35 q 343 -14 455 -14 z "},"ѕ":{"ha":625,"x_min":9,"x_max":597,"o":"m 530 231 q 450 50 530 113 q 228 -14 370 -14 q 9 32 99 -14 l 9 170 q 221 109 113 109 q 328 136 287 109 q 368 210 368 163 q 345 269 368 244 q 249 335 321 294 q 129 428 164 380 q 94 539 94 475 q 167 704 94 644 q 363 764 239 764 q 597 707 496 764 l 546 587 q 366 639 451 639 q 285 616 316 639 q 254 554 254 594 q 277 500 254 524 q 368 439 299 476 q 469 370 439 399 q 515 308 499 342 q 530 231 530 275 z "},"і":{"ha":382,"x_min":32,"x_max":406,"o":"m 224 935 q 250 1009 224 981 q 325 1038 277 1038 q 383 1020 361 1038 q 406 965 406 1002 q 378 889 406 917 q 307 861 351 861 q 248 879 271 861 q 224 935 224 897 m 192 0 l 32 0 l 192 750 l 351 750 l 192 0 z "},"ї":{"ha":382,"x_min":32,"x_max":517,"o":"m 192 0 l 32 0 l 192 750 l 351 750 l 192 0 m 96 936 q 120 1002 96 977 q 186 1028 144 1028 q 238 1012 219 1028 q 258 964 258 996 q 234 895 258 920 q 170 869 210 869 q 117 885 138 869 q 96 936 96 901 m 356 936 q 380 1002 356 977 q 446 1028 404 1028 q 498 1012 479 1028 q 517 964 517 996 q 493 895 517 920 q 430 869 469 869 q 377 885 398 869 q 356 936 356 901 z "},"ј":{"ha":382,"x_min":-178,"x_max":406,"o":"m -77 -334 q -178 -318 -138 -334 l -178 -189 q -98 -203 -134 -203 q 17 -77 -9 -203 l 193 750 l 351 750 l 171 -96 q 84 -276 145 -218 q -77 -334 24 -334 m 225 935 q 251 1009 225 981 q 325 1038 277 1038 q 384 1020 361 1038 q 406 965 406 1002 q 378 889 406 917 q 307 861 351 861 q 248 879 271 861 q 225 935 225 896 z "},"љ":{"ha":1128,"x_min":-53,"x_max":1047,"o":"m 665 433 q 814 450 752 450 q 986 397 924 450 q 1047 249 1047 345 q 1009 111 1047 170 q 898 19 970 52 q 724 -14 825 -14 q 532 43 595 -14 q 468 203 468 100 q 485 330 468 255 l 547 625 q 511 629 525 629 q 442 609 470 629 q 390 542 414 589 q 313 336 366 494 q 222 109 258 170 q 138 18 186 48 q 24 -12 91 -12 q -53 1 -18 -12 l -53 135 q -1 125 -30 125 q 56 145 31 125 q 103 209 81 166 q 172 392 125 251 q 255 602 224 544 q 324 694 286 661 q 413 744 362 728 q 530 760 464 760 q 728 729 641 760 l 665 433 m 765 330 q 642 317 712 330 q 627 212 627 246 q 742 106 627 106 q 849 140 809 106 q 889 233 889 174 q 859 307 889 283 q 765 330 829 330 z "},"њ":{"ha":1162,"x_min":36,"x_max":1082,"o":"m 700 433 q 848 450 789 450 q 1020 397 959 450 q 1082 249 1082 345 q 1043 111 1082 170 q 932 19 1005 52 q 758 -14 859 -14 q 566 43 630 -14 q 503 203 503 100 q 518 323 503 245 l 265 323 l 196 0 l 36 0 l 197 750 l 355 750 l 292 449 l 546 449 l 610 750 l 768 750 l 700 433 m 800 330 q 676 317 747 330 q 661 212 661 246 q 777 106 661 106 q 884 140 844 106 q 924 233 924 174 q 894 307 924 283 q 800 330 864 330 z "},"ћ":{"ha":819,"x_min":32,"x_max":737,"o":"m 476 0 l 568 431 q 579 517 579 479 q 497 606 579 606 q 398 567 448 606 q 310 457 348 528 q 253 293 271 386 l 192 0 l 32 0 l 208 827 l 102 827 l 126 937 l 231 937 l 256 1055 l 415 1055 l 390 937 l 610 937 l 586 827 l 367 827 l 310 604 l 315 604 q 429 708 372 676 q 549 739 486 739 q 737 526 737 739 q 724 418 737 488 l 635 0 l 476 0 z "},"ќ":{"ha":732,"x_min":32,"x_max":789,"o":"m 600 750 l 789 750 l 440 376 l 661 0 l 478 0 l 269 370 l 192 0 l 32 0 l 192 750 l 350 750 l 275 395 l 600 750 m 412 859 q 565 1064 478 932 l 744 1064 l 744 1051 q 637 942 707 1006 q 518 842 566 877 l 412 842 l 412 859 z "},"ў":{"ha":681,"x_min":-115,"x_max":750,"o":"m 68 750 l 225 750 l 268 390 q 279 272 274 348 q 283 149 283 195 l 288 149 q 379 361 346 294 l 578 750 l 750 750 l 283 -118 q 151 -282 222 -230 q -18 -334 79 -334 q -115 -321 -70 -334 l -115 -193 q -31 -204 -64 -204 q 60 -175 20 -204 q 144 -69 101 -145 l 179 -7 l 68 750 m 735 1068 q 631 896 709 950 q 416 842 553 842 q 232 889 296 842 q 169 1029 169 936 q 174 1068 169 1048 l 313 1068 l 311 1032 q 427 942 311 942 q 537 972 499 942 q 588 1068 574 1002 l 735 1068 z "},"џ":{"ha":819,"x_min":74,"x_max":786,"o":"m 382 -39 l 412 -39 l 349 -334 l 196 -334 l 250 -90 l 382 -39 m 343 750 l 245 293 q 235 205 235 241 q 321 115 235 115 q 464 202 397 115 q 561 432 530 288 l 628 750 l 786 750 l 628 0 l 503 0 l 517 139 l 511 139 q 395 23 456 60 q 265 -14 335 -14 q 124 38 174 -14 q 74 186 74 90 q 92 317 74 232 l 183 750 l 343 750 z "},"Ґ":{"ha":679,"x_min":47,"x_max":822,"o":"m 631 991 l 675 1197 l 822 1197 l 750 852 l 387 852 l 207 0 l 47 0 l 257 991 l 631 991 z "},"ґ":{"ha":587,"x_min":32,"x_max":681,"o":"m 608 624 l 323 624 l 192 0 l 32 0 l 192 750 l 482 750 l 528 962 l 681 962 l 608 624 z "},"Ẁ":{"ha":1213,"x_min":138,"x_max":1337,"o":"m 893 0 l 718 0 l 693 571 l 689 696 l 692 768 l 688 768 q 608 571 656 671 l 347 0 l 174 0 l 138 991 l 293 991 l 306 415 q 297 180 306 323 l 301 180 q 397 421 357 330 l 660 991 l 812 991 l 833 422 l 836 308 l 833 180 l 839 180 q 886 314 858 240 q 928 418 915 389 l 1171 991 l 1337 991 l 893 0 m 808 1071 l 711 1071 q 621 1174 667 1114 q 553 1279 576 1234 l 553 1293 l 719 1293 q 808 1088 751 1189 l 808 1071 z "},"ẁ":{"ha":1044,"x_min":82,"x_max":1105,"o":"m 572 0 l 559 425 l 559 473 l 561 608 q 526 524 544 566 q 292 0 508 481 l 114 0 l 82 750 l 232 750 l 241 312 q 233 146 239 253 l 237 146 q 311 330 282 265 l 500 750 l 672 750 l 685 340 l 686 304 l 684 146 l 688 146 q 726 253 699 180 q 769 364 753 327 q 940 750 785 401 l 1105 750 l 754 0 l 572 0 m 670 842 l 572 842 q 483 944 528 884 q 414 1050 437 1004 l 414 1064 l 581 1064 q 670 859 612 960 l 670 842 z "},"Ẃ":{"ha":1213,"x_min":138,"x_max":1337,"o":"m 893 0 l 718 0 l 693 571 l 689 696 l 692 768 l 688 768 q 608 571 656 671 l 347 0 l 174 0 l 138 991 l 293 991 l 306 415 q 297 180 306 323 l 301 180 q 397 421 357 330 l 660 991 l 812 991 l 833 422 l 836 308 l 833 180 l 839 180 q 886 314 858 240 q 928 418 915 389 l 1171 991 l 1337 991 l 893 0 m 667 1088 q 819 1293 732 1161 l 998 1293 l 998 1280 q 891 1171 962 1236 q 772 1071 821 1106 l 667 1071 l 667 1088 z "},"ẃ":{"ha":1044,"x_min":82,"x_max":1105,"o":"m 572 0 l 559 425 l 559 473 l 561 608 q 526 524 544 566 q 292 0 508 481 l 114 0 l 82 750 l 232 750 l 241 312 q 233 146 239 253 l 237 146 q 311 330 282 265 l 500 750 l 672 750 l 685 340 l 686 304 l 684 146 l 688 146 q 726 253 699 180 q 769 364 753 327 q 940 750 785 401 l 1105 750 l 754 0 l 572 0 m 532 859 q 684 1064 597 932 l 863 1064 l 863 1051 q 756 942 827 1006 q 637 842 686 877 l 532 842 l 532 859 z "},"Ẅ":{"ha":1213,"x_min":138,"x_max":1337,"o":"m 893 0 l 718 0 l 693 571 l 689 696 l 692 768 l 688 768 q 608 571 656 671 l 347 0 l 174 0 l 138 991 l 293 991 l 306 415 q 297 180 306 323 l 301 180 q 397 421 357 330 l 660 991 l 812 991 l 833 422 l 836 308 l 833 180 l 839 180 q 886 314 858 240 q 928 418 915 389 l 1171 991 l 1337 991 l 893 0 m 542 1165 q 566 1232 542 1206 q 632 1257 589 1257 q 684 1241 665 1257 q 703 1193 703 1225 q 679 1124 703 1149 q 616 1099 655 1099 q 563 1115 584 1099 q 542 1165 542 1131 m 802 1165 q 825 1232 802 1206 q 892 1257 849 1257 q 944 1241 924 1257 q 963 1193 963 1225 q 939 1124 963 1149 q 876 1099 915 1099 q 823 1115 844 1099 q 802 1165 802 1131 z "},"ẅ":{"ha":1044,"x_min":82,"x_max":1105,"o":"m 572 0 l 559 425 l 559 473 l 561 608 q 526 524 544 566 q 292 0 508 481 l 114 0 l 82 750 l 232 750 l 241 312 q 233 146 239 253 l 237 146 q 311 330 282 265 l 500 750 l 672 750 l 685 340 l 686 304 l 684 146 l 688 146 q 726 253 699 180 q 769 364 753 327 q 940 750 785 401 l 1105 750 l 754 0 l 572 0 m 395 936 q 418 1002 395 977 q 485 1028 442 1028 q 537 1012 517 1028 q 556 964 556 996 q 532 895 556 920 q 469 869 508 869 q 416 885 437 869 q 395 936 395 901 m 654 936 q 678 1002 654 977 q 745 1028 702 1028 q 797 1012 777 1028 q 816 964 816 996 q 792 895 816 920 q 728 869 768 869 q 675 885 696 869 q 654 936 654 901 z "},"Ỳ":{"ha":741,"x_min":126,"x_max":868,"o":"m 395 538 l 688 991 l 868 991 l 446 372 l 368 0 l 207 0 l 288 375 l 126 991 l 290 991 l 395 538 m 554 1071 l 456 1071 q 367 1174 412 1114 q 298 1279 321 1234 l 298 1293 l 465 1293 q 554 1088 496 1189 l 554 1071 z "},"ỳ":{"ha":681,"x_min":-115,"x_max":750,"o":"m 68 750 l 225 750 l 268 390 q 279 272 274 348 q 283 149 283 195 l 288 149 q 379 361 346 294 l 578 750 l 750 750 l 283 -118 q 151 -282 222 -230 q -18 -334 79 -334 q -115 -321 -70 -334 l -115 -193 q -31 -204 -64 -204 q 60 -175 20 -204 q 144 -69 101 -145 l 179 -7 l 68 750 m 479 842 l 381 842 q 292 944 337 884 q 223 1050 246 1004 l 223 1064 l 389 1064 q 479 859 421 960 l 479 842 z "},"–":{"ha":667,"x_min":32,"x_max":629,"o":"m 32 307 l 61 439 l 629 439 l 600 307 l 32 307 z "},"—":{"ha":1333,"x_min":32,"x_max":1296,"o":"m 32 307 l 61 439 l 1296 439 l 1267 307 l 32 307 z "},"―":{"ha":1333,"x_min":32,"x_max":1296,"o":"m 32 307 l 61 439 l 1296 439 l 1267 307 l 32 307 z "},"‗":{"ha":551,"x_min":-144,"x_max":468,"o":"m 410 -313 l -144 -313 l -123 -218 l 431 -218 l 410 -313 m 448 -125 l -106 -125 l -86 -31 l 468 -31 l 448 -125 z "},"‘":{"ha":267,"x_min":81,"x_max":380,"o":"m 85 652 l 81 667 q 153 808 104 718 q 261 991 202 899 l 380 991 q 245 652 298 798 l 85 652 z "},"’":{"ha":267,"x_min":78,"x_max":379,"o":"m 374 991 l 379 977 q 304 829 354 920 q 199 652 254 738 l 78 652 q 150 825 107 716 q 212 991 193 933 l 374 991 z "},"‚":{"ha":359,"x_min":-69,"x_max":232,"o":"m 227 161 l 232 146 q 52 -179 159 -12 l -69 -179 q 66 161 2 -18 l 227 161 z "},"‛":{"ha":267,"x_min":153,"x_max":318,"o":"m 310 991 l 309 916 q 318 652 309 768 l 207 652 q 174 803 190 713 q 153 977 159 892 l 163 991 l 310 991 z "},"“":{"ha":545,"x_min":81,"x_max":657,"o":"m 363 652 l 357 667 q 538 991 414 795 l 657 991 q 522 652 574 798 l 363 652 m 85 652 l 81 667 q 153 808 104 718 q 261 991 202 899 l 380 991 q 245 652 298 798 l 85 652 z "},"”":{"ha":545,"x_min":78,"x_max":656,"o":"m 374 991 l 379 977 q 304 829 354 920 q 199 652 254 738 l 78 652 q 150 825 107 716 q 212 991 193 933 l 374 991 m 650 991 l 656 977 q 473 652 589 827 l 354 652 q 428 829 389 729 q 489 991 467 928 l 650 991 z "},"„":{"ha":636,"x_min":-69,"x_max":509,"o":"m 227 161 l 232 146 q 52 -179 159 -12 l -69 -179 q 66 161 2 -18 l 227 161 m 503 161 l 509 146 q 328 -179 446 6 l 208 -179 q 343 161 290 12 l 503 161 z "},"†":{"ha":675,"x_min":138,"x_max":681,"o":"m 652 652 l 439 672 l 332 0 l 165 0 l 345 672 l 138 652 l 167 793 l 367 772 l 390 1055 l 557 1055 l 460 772 l 681 793 l 652 652 z "},"‡":{"ha":689,"x_min":46,"x_max":697,"o":"m 382 354 l 603 375 l 572 235 l 359 254 l 342 0 l 175 0 l 265 254 l 46 235 l 77 375 l 288 354 l 294 533 l 359 700 l 140 679 l 171 821 l 382 800 l 400 1055 l 567 1055 l 476 800 l 697 821 l 667 679 l 456 700 l 450 533 l 382 354 z "},"•":{"ha":513,"x_min":103,"x_max":458,"o":"m 103 464 q 160 635 103 570 q 311 700 216 700 q 419 663 379 700 q 458 549 458 626 q 403 378 458 443 q 249 313 347 313 q 141 352 180 313 q 103 464 103 391 z "},"…":{"ha":1108,"x_min":199,"x_max":770,"o":"m 566 64 q 597 154 566 120 q 686 187 629 187 q 747 166 724 187 q 770 103 770 144 q 738 15 770 50 q 653 -20 705 -20 q 587 4 608 -20 q 566 64 566 28 m 403 64 q 435 154 403 120 q 524 187 467 187 q 584 166 562 187 q 607 103 607 144 q 575 15 607 50 q 490 -20 543 -20 q 424 4 446 -20 q 403 64 403 28 m 199 64 q 231 154 199 120 q 319 187 262 187 q 380 166 357 187 q 403 103 403 144 q 371 15 403 50 q 286 -20 338 -20 q 220 4 241 -20 q 199 64 199 28 z "},"‰":{"ha":1621,"x_min":96,"x_max":1565,"o":"m 359 892 q 292 850 322 892 q 244 733 262 809 q 227 587 227 657 q 281 496 227 496 q 346 535 316 496 q 395 654 375 574 q 415 803 415 734 q 359 892 415 892 m 546 804 q 508 592 546 696 q 409 435 471 488 q 269 383 347 383 q 140 437 185 383 q 96 591 96 490 q 132 804 96 704 q 228 955 168 904 q 370 1006 289 1006 q 501 954 456 1006 q 546 804 546 903 m 1025 991 l 289 0 l 157 0 l 893 991 l 1025 991 m 1378 496 q 1313 457 1342 496 q 1264 342 1284 418 q 1244 191 1244 267 q 1300 100 1244 100 q 1367 141 1337 100 q 1416 261 1396 182 q 1435 407 1435 340 q 1378 496 1435 496 m 1565 410 q 1528 196 1565 300 q 1429 39 1490 91 q 1291 -14 1369 -14 q 1159 38 1204 -14 q 1114 189 1114 90 q 1149 407 1114 306 q 1246 558 1185 507 q 1388 608 1308 608 q 1519 557 1474 608 q 1565 410 1565 507 m 901 496 q 837 457 866 496 q 788 341 807 418 q 768 191 768 264 q 823 100 768 100 q 888 139 859 100 q 938 258 918 179 q 958 407 958 336 q 901 496 958 496 m 1089 410 q 1052 196 1089 300 q 952 39 1014 91 q 814 -14 890 -14 q 683 38 728 -14 q 637 189 637 90 q 673 406 637 305 q 770 558 709 507 q 911 608 831 608 q 1043 557 997 608 q 1089 410 1089 507 z "},"′":{"ha":328,"x_min":144,"x_max":350,"o":"m 350 991 l 248 633 l 144 633 l 193 991 l 350 991 z "},"″":{"ha":582,"x_min":144,"x_max":606,"o":"m 350 991 l 248 633 l 144 633 l 193 991 l 350 991 m 606 991 l 503 633 l 399 633 l 449 991 l 606 991 z "},"‹":{"ha":421,"x_min":54,"x_max":414,"o":"m 54 389 l 322 675 l 414 595 l 218 368 l 322 119 l 201 68 l 54 372 l 54 389 z "}}}
